<svg width="12" height="12" viewBox="0 0 12 12" fill="none" xmlns="http://www.w3.org/2000/svg">
<path d="M10.6667 0.666687H1.33334C0.596656 0.666687 0 1.26337 0 2.00003V10C0 10.7367 0.596656 11.3334 1.33334 11.3334H10.6667C11.4033 11.3334 12 10.7367 12 10V2.00003C12 1.26337 11.4033 0.666687 10.6667 0.666687ZM5.33334 5.33338H4.33334V5.00003H3V7.00003H4.33334V6.66669H5.33334V7.33334C5.33334 7.7 5.03669 8 4.66669 8H2.66669C2.29666 8.00003 2 7.70003 2 7.33338V4.66672C2 4.30003 2.29666 4.00003 2.66666 4.00003H4.66666C5.03666 4.00003 5.33331 4.30003 5.33331 4.66669V5.33338H5.33334ZM10 5.33338H9V5.00003H7.66666V7.00003H9V6.66669H10V7.33334C10 7.70003 9.70334 8.00003 9.33334 8.00003H7.33334C6.96334 8.00003 6.66669 7.70003 6.66669 7.33338V4.66672C6.66669 4.30006 6.96334 4.00006 7.33334 4.00006H9.33334C9.70334 4.00006 10 4.30006 10 4.66672V5.33338Z" fill="#03C6AE"/>
</svg>
