<svg width="15" height="15" viewBox="0 0 15 15" fill="none" xmlns="http://www.w3.org/2000/svg">
<path d="M0.300781 11.7351H9.00078V14.6649L10.8008 13.5849L12.6008 14.6649V11.7351H14.7008V0.335083H0.300781V11.7351ZM12.0803 9.69928C12.0533 9.72658 12.0245 9.75178 11.996 9.77728C11.9798 9.79168 11.9648 9.80698 11.948 9.82078C11.9294 9.83638 11.9096 9.84958 11.8904 9.86428C11.6319 10.0629 11.324 10.1871 11 10.2234L10.9835 10.2258C10.8616 10.2379 10.7388 10.2379 10.6169 10.2258L10.6004 10.2234C10.2764 10.1871 9.96851 10.0629 9.70998 9.86428C9.69078 9.84958 9.67098 9.83608 9.65238 9.82078C9.63588 9.80698 9.62058 9.79168 9.60438 9.77728C9.57588 9.75178 9.54738 9.72658 9.52008 9.69928C9.18652 9.3631 8.99942 8.90867 8.99958 8.43508C8.99958 7.44238 9.80688 6.63508 10.7996 6.63508C11.7923 6.63508 12.5996 7.44238 12.5996 8.43508C12.6008 8.90864 12.414 9.36331 12.0803 9.69928ZM12.0008 13.6053L10.8008 12.8853L9.60078 13.6053V10.5141C9.61098 10.5201 9.62238 10.524 9.63288 10.5297C9.71238 10.5741 9.79428 10.6149 9.87888 10.6503L9.89028 10.6545C10.4736 10.8955 11.1286 10.8955 11.7119 10.6545L11.7233 10.6503C11.8079 10.6149 11.8898 10.5744 11.9693 10.5297C11.9798 10.524 11.9912 10.5201 12.0014 10.5141V13.6053H12.0008ZM0.900781 0.935083H14.1008V11.1351H12.6008V10.0173C12.9873 9.58084 13.2007 9.01805 13.2008 8.43508C13.2008 7.11178 12.1241 6.03508 10.8008 6.03508C9.47748 6.03508 8.40078 7.11178 8.40078 8.43508C8.40078 9.04138 8.62848 9.59428 9.00078 10.0173V11.1351H0.900781V0.935083Z" fill="#03C6AE"/>
<path d="M3.60156 2.13507H11.4016V2.73507H3.60156V2.13507ZM5.10156 3.93507H9.90156V4.53507H5.10156V3.93507ZM2.10156 9.33507H5.40156V9.93507H2.10156V9.33507Z" fill="#03C6AE"/>
</svg>
