<svg width="14" height="10" viewBox="0 0 14 10" fill="none" xmlns="http://www.w3.org/2000/svg">
<path d="M0.158654 5.5C0.0528846 5.4 0 5.25 0 5.15C0 5.05 0.0528846 4.9 0.158654 4.8L0.899038 4.1C1.11058 3.9 1.42788 3.9 1.63942 4.1L1.69231 4.15L4.60096 7.1C4.70673 7.2 4.86538 7.2 4.97115 7.1L12.0577 0.15H12.1106C12.3221 -0.05 12.6394 -0.05 12.851 0.15L13.5913 0.85C13.8029 1.05 13.8029 1.35 13.5913 1.55L5.12981 9.85C5.02404 9.95 4.91827 10 4.75962 10C4.60096 10 4.49519 9.95 4.38942 9.85L0.264423 5.65L0.158654 5.5Z" fill="#03C6AE"/>
</svg>
