<svg width="11" height="11" viewBox="0 0 11 11" fill="none" xmlns="http://www.w3.org/2000/svg">
<path fill-rule="evenodd" clip-rule="evenodd" d="M6.80734 5.50003L10.7293 1.57812C11.0903 1.2171 11.0903 0.631779 10.7293 0.270814C10.3682 -0.0902025 9.78296 -0.0902025 9.42195 0.270814L5.49999 4.19277L1.57803 0.270762C1.21701 -0.0902541 0.63174 -0.0902541 0.270724 0.270762C-0.0902412 0.631779 -0.0902412 1.2171 0.270724 1.57807L4.19268 5.49997L0.270724 9.42194C-0.0902412 9.78295 -0.0902412 10.3683 0.270724 10.7292C0.63174 11.0903 1.21701 11.0903 1.57803 10.7292L5.49999 6.80728L9.42195 10.7292C9.78291 11.0903 10.3682 11.0903 10.7293 10.7292C11.0903 10.3682 11.0903 9.78295 10.7293 9.42194L6.80734 5.50003Z" fill="#03C6AE"/>
</svg>
