<svg width="25" height="24" viewBox="0 0 25 24" fill="none" xmlns="http://www.w3.org/2000/svg">
<path d="M10.5371 3H14.5371C16.6588 3 18.6937 3.84285 20.194 5.34315C21.6943 6.84344 22.5371 8.87827 22.5371 11C22.5371 13.1217 21.6943 15.1566 20.194 16.6569C18.6937 18.1571 16.6588 19 14.5371 19V22.5C9.53711 20.5 2.53711 17.5 2.53711 11C2.53711 8.87827 3.37996 6.84344 4.88026 5.34315C6.38055 3.84285 8.41538 3 10.5371 3ZM12.5371 17H14.5371C15.325 17 16.1053 16.8448 16.8332 16.5433C17.5612 16.2417 18.2226 15.7998 18.7798 15.2426C19.3369 14.6855 19.7789 14.0241 20.0804 13.2961C20.3819 12.5681 20.5371 11.7879 20.5371 11C20.5371 10.2121 20.3819 9.43185 20.0804 8.7039C19.7789 7.97595 19.3369 7.31451 18.7798 6.75736C18.2226 6.20021 17.5612 5.75825 16.8332 5.45672C16.1053 5.15519 15.325 5 14.5371 5H10.5371C8.94581 5 7.41969 5.63214 6.29447 6.75736C5.16925 7.88258 4.53711 9.4087 4.53711 11C4.53711 14.61 6.99911 16.966 12.5371 19.48V17Z" fill="#802EC0"/>
</svg>
