<svg width="34" height="34" viewBox="0 0 34 34" fill="none" xmlns="http://www.w3.org/2000/svg">
<g style="mix-blend-mode:multiply">
<rect x="6" y="6" width="18" height="14" rx="3" fill="#802EC0"/>
</g>
<path fill-rule="evenodd" clip-rule="evenodd" d="M11.27 10.7876C11.7073 10.5255 12 10.0469 12 9.5C12 8.67157 11.3284 8 10.5 8C9.67158 8 9.00001 8.67157 9.00001 9.5C9.00001 10.0469 9.29273 10.5255 9.73005 10.7876C8.72609 11.1122 8 12.0547 8 13.1668V13.9214C8 14.149 8.18445 14.3334 8.41198 14.3334H12.588C12.8155 14.3334 13 14.149 13 13.9214V13.1668C13 12.0547 12.2739 11.1122 11.27 10.7876Z" fill="white"/>
<g style="mix-blend-mode:multiply">
<path d="M22 19.5C22 18.1193 23.1193 17 24.5 17C25.8807 17 27 18.1193 27 19.5V28L24.5 26L22 28V19.5Z" fill="#03C6AE"/>
</g>
<g style="mix-blend-mode:multiply">
<circle cx="24.5" cy="16.5" r="3.5" fill="#FFB81E"/>
</g>
<rect x="15" y="9" width="7" height="2" rx="1" fill="white"/>
<rect x="15" y="12" width="5" height="2" rx="1" fill="white"/>
<rect x="8" y="16" width="11" height="2" rx="1" fill="white"/>
</svg>
