<svg width="34" height="34" viewBox="0 0 34 34" fill="none" xmlns="http://www.w3.org/2000/svg">
<g style="mix-blend-mode:multiply">
<rect x="6" y="6" width="18" height="22" rx="3" fill="#802EC0"/>
</g>
<path fill-rule="evenodd" clip-rule="evenodd" d="M12.27 12.4543C12.7073 12.1922 13 11.7137 13 11.1667C13 10.3383 12.3284 9.66675 11.5 9.66675C10.6716 9.66675 10 10.3383 10 11.1667C10 11.7137 10.2927 12.1922 10.73 12.4543C9.72609 12.779 9 13.7215 9 14.8335V15.5882C9 15.8157 9.18445 16.0002 9.41198 16.0002H13.588C13.8155 16.0002 14 15.8157 14 15.5882V14.8335C14 13.7215 13.2739 12.779 12.27 12.4543Z" fill="white"/>
<g style="mix-blend-mode:multiply">
<rect x="21" y="16" width="7" height="10" rx="3" fill="#03C6AE"/>
</g>
<g style="mix-blend-mode:multiply">
<rect x="21" y="8" width="7" height="7" rx="3" fill="#FFB81E"/>
</g>
<rect x="9" y="18" width="10" height="2" rx="1" fill="white"/>
<rect x="16" y="14" width="3" height="2" rx="1" fill="white"/>
<rect x="16" y="10" width="3" height="2" rx="1" fill="white"/>
<rect x="9" y="22" width="10" height="2" rx="1" fill="white"/>
</svg>
