<svg width="10" height="11" viewBox="0 0 10 11" fill="none" xmlns="http://www.w3.org/2000/svg">
<path d="M3.53252 6.01679C3.53252 5.89152 3.43091 5.79004 3.30554 5.79004H2.51348C2.38825 5.79004 2.28662 5.89152 2.28662 6.01679V6.80876C2.28662 6.93419 2.38825 7.03571 2.51348 7.03571H3.30554C3.43091 7.03571 3.53252 6.93419 3.53252 6.80876V6.01679Z" fill="#B5BDC9"/>
<path d="M5.51238 6.01679C5.51238 5.89152 5.41075 5.79004 5.28563 5.79004H4.49346C4.36823 5.79004 4.2666 5.89152 4.2666 6.01679V6.80876C4.2666 6.93419 4.36823 7.03571 4.49346 7.03571H5.28563C5.41075 7.03571 5.51238 6.93419 5.51238 6.80876V6.01679Z" fill="#B5BDC9"/>
<path d="M7.49151 6.01679C7.49151 5.89152 7.38988 5.79004 7.26465 5.79004H6.47258C6.34721 5.79004 6.24561 5.89152 6.24561 6.01679V6.80876C6.24561 6.93419 6.34721 7.03571 6.47258 7.03571H7.26465C7.38988 7.03571 7.49151 6.93419 7.49151 6.80876V6.01679Z" fill="#B5BDC9"/>
<path d="M3.53252 7.99665C3.53252 7.87118 3.43091 7.76978 3.30554 7.76978H2.51348C2.38825 7.76978 2.28662 7.87118 2.28662 7.99665V8.78847C2.28662 8.91382 2.38825 9.01533 2.51348 9.01533H3.30554C3.43091 9.01533 3.53252 8.9138 3.53252 8.78847V7.99665Z" fill="#B5BDC9"/>
<path d="M5.51238 7.99665C5.51238 7.87118 5.41075 7.76978 5.28563 7.76978H4.49346C4.36823 7.76978 4.2666 7.87118 4.2666 7.99665V8.78847C4.2666 8.91382 4.36823 9.01533 4.49346 9.01533H5.28563C5.41075 9.01533 5.51238 8.9138 5.51238 8.78847V7.99665Z" fill="#B5BDC9"/>
<path d="M7.49151 7.99665C7.49151 7.87118 7.38988 7.76978 7.26475 7.76978H6.47258C6.34721 7.76978 6.24561 7.87118 6.24561 7.99665V8.78847C6.24561 8.91382 6.34721 9.01533 6.47258 9.01533H7.26475C7.38988 9.01533 7.49151 8.9138 7.49151 8.78847V7.99665Z" fill="#B5BDC9"/>
<path d="M8.90792 1.61347V2.82314C8.90792 3.36989 8.46437 3.81049 7.9177 3.81049H7.29304C6.74633 3.81049 6.2969 3.36989 6.2969 2.82314V1.60913H3.48139V2.82314C3.48139 3.36989 3.03198 3.81049 2.48535 3.81049H1.86056C1.31391 3.81049 0.870383 3.36989 0.870383 2.82314V1.61347C0.392602 1.62788 0 2.02322 0 2.50916V9.59835C0 10.0934 0.401268 10.5 0.896338 10.5H8.88195C9.37628 10.5 9.77829 10.0926 9.77829 9.59835V2.50916C9.77829 2.02322 9.3857 1.62788 8.90792 1.61347ZM8.61779 9.15689C8.61779 9.37084 8.44432 9.54441 8.23029 9.54441H1.53093C1.3169 9.54441 1.14343 9.37084 1.14343 9.15689V5.49506C1.14343 5.28103 1.31688 5.10746 1.53093 5.10746H8.23027C8.4443 5.10746 8.61777 5.28103 8.61777 5.49506L8.61779 9.15689Z" fill="#B5BDC9"/>
<path d="M1.85865 3.16197H2.47653C2.66407 3.16197 2.81614 3.01013 2.81614 2.82259V0.839504C2.81614 0.65194 2.66407 0.5 2.47653 0.5H1.85865C1.67109 0.5 1.51904 0.65194 1.51904 0.839504V2.82259C1.51904 3.01013 1.67109 3.16197 1.85865 3.16197Z" fill="#B5BDC9"/>
<path d="M7.2849 3.16197H7.90278C8.0902 3.16197 8.24226 3.01013 8.24226 2.82259V0.839504C8.24228 0.65194 8.09022 0.5 7.90278 0.5H7.2849C7.09738 0.5 6.94531 0.65194 6.94531 0.839504V2.82259C6.94531 3.01013 7.09738 3.16197 7.2849 3.16197Z" fill="#B5BDC9"/>
</svg>
