<svg width="15" height="15" viewBox="0 0 15 15" fill="none" xmlns="http://www.w3.org/2000/svg">
<path d="M13.3333 0.833496H1.66668C0.74582 0.833496 0 1.57936 0 2.50018V12.5002C0 13.421 0.74582 14.1669 1.66668 14.1669H13.3334C14.2542 14.1669 15 13.421 15 12.5002V2.50018C15 1.57936 14.2542 0.833496 13.3333 0.833496ZM6.66668 6.66686H5.41668V6.25018H3.75V8.75018H5.41668V8.3335H6.66668V9.16682C6.66668 9.62514 6.29586 10.0001 5.83336 10.0001H3.33336C2.87082 10.0002 2.5 9.62518 2.5 9.16686V5.83354C2.5 5.37518 2.87082 5.00018 3.33332 5.00018H5.83332C6.29582 5.00018 6.66664 5.37518 6.66664 5.8335V6.66686H6.66668ZM12.5 6.66686H11.25V6.25018H9.58332V8.75018H11.25V8.3335H12.5V9.16682C12.5 9.62518 12.1292 10.0002 11.6667 10.0002H9.16668C8.70418 10.0002 8.33336 9.62518 8.33336 9.16686V5.83354C8.33336 5.37522 8.70418 5.00022 9.16668 5.00022H11.6667C12.1292 5.00022 12.5 5.37522 12.5 5.83354V6.66686Z" fill="white"/>
</svg>
