<svg width="15" height="15" viewBox="0 0 15 15" fill="none" xmlns="http://www.w3.org/2000/svg">
<g clip-path="url(#clip0_470_15548)">
<path d="M12.0373 2.99731L9.36186 0.444494C9.07729 0.172959 8.70482 0.0234375 8.31309 0.0234375H3.21943C2.37795 0.0234375 1.69336 0.713902 1.69336 1.56259V12.8124C1.69336 13.6611 2.37795 14.3516 3.21943 14.3516H10.9885C11.83 14.3516 12.5146 13.6611 12.5146 12.8124V4.1154C12.5146 3.69426 12.3406 3.28672 12.0373 2.99731ZM11.2288 3.38159H9.15723C9.08073 3.38159 9.0185 3.31882 9.0185 3.24167V1.27256L11.2288 3.38159ZM10.9885 13.512H3.21943C2.83694 13.512 2.52576 13.1982 2.52576 12.8124V1.56259C2.52576 1.17682 2.83694 0.862976 3.21943 0.862976H8.1861V3.24167C8.1861 3.78174 8.62175 4.22113 9.15723 4.22113H11.6822V12.8124C11.6822 13.1982 11.371 13.512 10.9885 13.512Z" fill="#03C6AE"/>
<path d="M10.0713 5.62036H3.96698C3.73713 5.62036 3.55078 5.80831 3.55078 6.04013C3.55078 6.27196 3.73713 6.4599 3.96698 6.4599H10.0713C10.3011 6.4599 10.4875 6.27196 10.4875 6.04013C10.4875 5.80831 10.3011 5.62036 10.0713 5.62036Z" fill="#03C6AE"/>
<path d="M10.0713 7.85913H3.96698C3.73713 7.85913 3.55078 8.04708 3.55078 8.2789C3.55078 8.51072 3.73713 8.69867 3.96698 8.69867H10.0713C10.3011 8.69867 10.4875 8.51072 10.4875 8.2789C10.4875 8.04708 10.3011 7.85913 10.0713 7.85913Z" fill="#03C6AE"/>
<path d="M5.98472 10.0979H3.96698C3.73713 10.0979 3.55078 10.2858 3.55078 10.5177C3.55078 10.7495 3.73713 10.9374 3.96698 10.9374H5.98472C6.21458 10.9374 6.40093 10.7495 6.40093 10.5177C6.40093 10.2858 6.21458 10.0979 5.98472 10.0979Z" fill="#03C6AE"/>
</g>
<defs>
<clipPath id="clip0_470_15548">
<rect width="14.2063" height="14.3281" fill="white" transform="translate(0 0.0234375)"/>
</clipPath>
</defs>
</svg>
