<svg width="34" height="34" viewBox="0 0 34 34" fill="none" xmlns="http://www.w3.org/2000/svg">
<path d="M27.625 34H6.375C2.85391 34 0 31.1461 0 27.625V6.375C0 2.85391 2.85391 0 6.375 0H27.625C31.1461 0 34 2.85391 34 6.375V27.625C34 31.1461 31.1461 34 27.625 34Z" fill="#FFD2E2"/>
<path d="M17.678 19.962C17.3727 20.1492 16.9818 20.2524 16.5772 20.2524C16.1726 20.2524 15.7817 20.1493 15.4764 19.962L10.4928 16.9055C10.4928 16.9055 10.043 16.6298 10.043 17.2544C10.043 17.9637 10.043 20.0916 10.043 20.0916C10.043 20.12 10.043 20.2624 10.043 20.3065C10.043 21.9144 12.9684 23.6477 16.5771 23.6477C20.1858 23.6477 23.1112 21.9144 23.1112 20.3065C23.1112 20.2624 23.1112 20.12 23.1112 20.0916C23.1112 20.0916 23.1112 17.8347 23.1112 17.0823C23.1112 16.581 22.7914 16.826 22.7914 16.826L17.678 19.962Z" fill="#FF3364"/>
<path d="M24.8636 14.4743C25.2465 14.2395 25.2465 13.8552 24.8636 13.6203L17.2716 9.82384C16.8887 9.58899 16.262 9.58899 15.8791 9.82384L8.2872 13.6203C7.90427 13.8551 7.90427 14.2394 8.2872 14.4743L15.8791 19.1305C16.262 19.3654 16.8887 19.3654 17.2716 19.1305" fill="#FF8DA9"/>
<path d="M24.5507 21.3759C24.5507 20.0903 24.5507 16.2335 24.5507 16.2335C24.5507 16.2335 24.5542 15.9899 24.4097 16.0704C24.2938 16.1349 24.0096 16.2933 23.9094 16.3804C23.7939 16.4809 23.8199 16.7064 23.8199 16.7064C23.8199 16.7064 23.8199 20.2085 23.8199 21.3759C23.8199 21.4422 23.7629 21.4738 23.7358 21.4898C23.4733 21.6441 23.2969 21.9289 23.2969 22.2554C23.2969 22.746 23.6946 23.1438 24.1853 23.1438C24.676 23.1438 25.0737 22.746 25.0737 22.2554C25.0737 21.9276 24.8959 21.6419 24.6318 21.4881C24.6055 21.4727 24.5507 21.4421 24.5507 21.3759Z" fill="#FF3364"/>
</svg>
