<svg width="29" height="29" viewBox="0 0 29 29" fill="none" xmlns="http://www.w3.org/2000/svg">
<g clip-path="url(#clip0_1138_216)">
<g style="mix-blend-mode:multiply">
<path d="M6.35345 28.1375C8.75294 28.1375 10.6981 26.1923 10.6981 23.7928C10.6981 21.3933 8.75294 19.4482 6.35345 19.4482C3.95396 19.4482 2.00879 21.3933 2.00879 23.7928C2.00879 26.1923 3.95396 28.1375 6.35345 28.1375Z" fill="#03C6AE"/>
</g>
<g style="mix-blend-mode:multiply">
<path d="M5.42118 16.07C4.75555 17.1539 4.25633 18.3101 3.95969 19.5457C3.72816 20.5068 3.64858 21.4751 3.80052 22.4578C3.88011 23.1226 4.06821 23.7585 4.35762 24.3583C4.97984 25.6228 5.90593 26.62 7.10695 27.3571C8.48885 28.2097 9.96481 28.6794 11.6216 28.6433C14.0816 28.6 16.5415 28.6289 19.0014 28.6361C19.327 28.6361 19.6526 28.6144 19.9709 28.5494C21.9895 28.1158 23.6681 27.1475 24.927 25.4928C25.636 24.5606 26.1208 23.5273 26.2438 22.3494C26.3885 21.6413 26.3016 20.9331 26.2148 20.2394C26.128 19.5457 25.9109 18.8809 25.6722 18.2233C25.2743 17.1033 24.6955 16.0917 24.0515 15.1089C24.0154 15.0439 23.9864 14.9789 23.943 14.921C22.2934 12.4859 20.2531 10.412 18.0609 8.46096C18.0319 8.41038 17.9885 8.3887 17.9379 8.35979C17.4893 8.07798 17.4459 7.95514 17.6268 7.47822C17.9306 6.69058 18.5022 6.11249 19.1389 5.58499C19.9348 4.92742 20.8247 4.4505 21.7942 4.08197C22.3151 3.88687 22.5756 3.2582 22.0981 2.75961C21.3673 2.0081 20.4991 1.43724 19.4934 1.10484C19.2474 1.02536 19.0014 0.960322 18.7554 0.888062C18.4299 0.888062 18.1043 0.888062 17.7787 0.888062C17.634 0.989226 17.4604 0.982 17.294 1.02536C16.527 1.24214 15.8469 1.61789 15.2175 2.09481C15.08 2.19598 14.9932 2.21765 14.8485 2.10926C14.0816 1.53118 13.2423 1.07594 12.2728 0.924192C12.2583 0.924192 12.2511 0.902514 12.2366 0.888062C11.9111 0.888062 11.5855 0.888062 11.2599 0.888062C11.2382 0.902514 11.2237 0.931418 11.202 0.938644C9.95757 1.16988 8.94467 1.82022 8.04028 2.66567C7.45424 3.21485 7.60618 3.84351 8.35863 4.14701C9.33536 4.54444 10.2615 5.05026 11.0718 5.72951C11.7012 6.25701 12.2294 6.864 12.4826 7.66609C12.5405 7.8612 12.526 8.00572 12.3452 8.13579C12.186 8.2514 12.0485 8.40315 11.9038 8.53322C10.2397 10.0001 8.67697 11.5754 7.28783 13.3096C6.61497 14.184 5.95658 15.0872 5.42118 16.07Z" fill="#802EC0"/>
</g>
<g style="mix-blend-mode:multiply">
<path d="M17.1361 22.8887C16.5062 22.1489 16.1645 21.2895 16.0898 20.3103C16.0151 19.3095 16.8585 18.6241 17.7339 18.9722C18.1396 19.1354 18.4385 19.4509 18.4385 19.8752C18.4599 20.9413 19.0684 21.5615 19.9011 22.0184C20.8726 22.5515 20.8833 22.5406 20.8726 21.42C20.8726 20.2559 20.8619 19.081 20.8726 17.9169C20.8726 17.634 20.7979 17.5361 20.5096 17.4709C18.8015 17.0683 17.3816 16.2306 16.5168 14.5987C16.3247 14.2288 16.1966 13.8263 16.1112 13.4129C15.7909 11.5634 16.677 10.2253 17.9794 9.1482C18.7054 8.54984 19.6128 8.20171 20.5416 8.02764C20.7979 7.98412 20.8619 7.86445 20.8619 7.62511C20.8619 7.18993 20.8085 6.75476 20.9046 6.33047C21.0434 5.75387 21.5772 5.36222 22.175 5.41661C22.7515 5.47101 23.2213 5.93882 23.2533 6.53718C23.2746 7.01587 23.2747 7.48367 23.2853 7.96236V7.995H23.3173C24.2461 8.21259 25.1429 8.47369 25.9436 9.02853C27.0326 9.7792 27.7478 10.8019 28.0467 12.1182C28.0574 12.3032 28.0681 12.499 28.0681 12.684C28.0681 13.3258 27.7692 13.761 27.2034 13.9351C26.6802 14.0983 26.1785 13.8916 25.8369 13.3802C25.8048 13.3367 25.7835 13.2932 25.7514 13.2497C25.6447 12.7492 25.6767 12.2162 25.3564 11.781C24.876 11.1282 24.2248 10.7692 23.4882 10.5408C23.3174 10.4864 23.2747 10.5408 23.2747 10.7039C23.2853 11.5634 23.2853 12.412 23.296 13.2715C23.2853 13.8698 23.2853 14.4682 23.2747 15.0665C23.264 15.3276 23.4134 15.3603 23.6163 15.4038C25.0148 15.6867 26.1998 16.372 27.118 17.4926C28.3884 19.0592 28.3457 21.0501 27.2888 22.5515C27.2461 22.6168 27.2034 22.682 27.1606 22.7582C26.1998 23.8896 24.9935 24.575 23.5629 24.8579C23.328 24.9014 23.264 25.0211 23.2747 25.2495C23.2853 25.5759 23.2853 25.9023 23.2747 26.2287C23.264 26.9358 22.7729 27.458 22.111 27.4689C21.4704 27.4798 20.926 26.9576 20.8833 26.2722C20.8619 25.9023 20.8726 25.5433 20.8833 25.1734C20.8833 24.9884 20.8085 24.9014 20.6377 24.8688C19.2712 24.575 18.0969 23.9223 17.1361 22.8887ZM23.2853 20.0819C23.2853 20.7564 23.2853 21.4418 23.2747 22.1163C23.2747 22.323 23.3067 22.41 23.5416 22.3339C24.1074 22.1489 24.6305 21.8878 25.0575 21.4744C25.8582 20.6911 25.9009 19.6685 25.1429 18.8416C24.6945 18.3521 24.1287 18.0692 23.5095 17.8734C23.264 17.7972 23.2747 17.9387 23.2747 18.091C23.2853 18.7546 23.2853 19.4182 23.2853 20.0819ZM20.8619 10.4755C20.0505 10.7039 19.3459 11.0521 18.8442 11.7375C18.4278 12.2923 18.3958 12.8798 18.6734 13.489C19.1004 14.4247 19.9224 14.7945 20.8619 15.0339C20.8619 13.5108 20.8619 12.0095 20.8619 10.4755Z" fill="#FFB81E"/>
</g>
</g>
<defs>
<clipPath id="clip0_1138_216">
<rect width="27.7572" height="27.7572" fill="white" transform="translate(0.621094 0.565491)"/>
</clipPath>
</defs>
</svg>
