<svg width="29" height="23" viewBox="0 0 29 23" fill="none" xmlns="http://www.w3.org/2000/svg">
<g style="mix-blend-mode:multiply">
<path d="M10.9997 18.1134C12.4757 18.1134 13.9584 18.1134 15.4345 18.1134C15.4345 19.0242 15.4345 19.9284 15.4279 20.8391C15.4279 21.0161 15.487 21.0619 15.651 21.0619C16.3005 21.0554 16.9434 21.0554 17.5929 21.0619C18.0652 21.0619 18.3867 21.3699 18.3801 21.8089C18.3736 22.2282 18.0455 22.5362 17.5863 22.5362C14.6669 22.5362 11.7541 22.5362 8.83471 22.5362C8.36236 22.5362 8.0409 22.2282 8.04746 21.7892C8.05402 21.3633 8.37548 21.0685 8.83471 21.0619C9.48419 21.0619 10.1271 21.0554 10.7766 21.0619C10.9472 21.0619 11.0062 21.0161 10.9997 20.8391C10.9997 19.9284 10.9997 19.0242 10.9997 18.1134Z" fill="#03C6AE"/>
</g>
<g style="mix-blend-mode:multiply">
<path d="M25.7541 2.21106C25.6819 2.15209 25.7147 2.04071 25.6885 1.97518C25.3276 0.854755 24.3829 0.415756 23.5366 0.415756C16.6613 0.422308 9.77944 0.422308 2.90412 0.415756C1.9135 0.415756 0.935994 1.05787 0.693258 2.04726C0.686698 2.08002 0.686698 2.13244 0.660456 2.1652C0.634215 2.18486 0.621094 2.22417 0.621094 2.25693V6.70589V12.6553C0.621094 12.7339 0.686698 12.7995 0.765423 12.7995C0.686698 12.7995 0.621094 12.865 0.621094 12.9436V16.187C0.621094 16.2132 0.634215 16.2394 0.647335 16.2656V16.2721C0.798225 17.2353 1.67732 18.1395 3.00253 18.1133C4.26213 18.0871 5.52829 18.1068 6.78789 18.1068C8.19182 18.1068 9.58919 18.1133 10.9931 18.1133C12.4692 18.1133 13.9519 18.1133 15.428 18.1133C15.5264 18.1133 15.6248 18.1068 15.7232 18.1068C18.3342 18.1068 20.9453 18.1068 23.5563 18.1068C24.606 18.1068 25.4392 17.4777 25.7278 16.4818C25.7409 16.4294 25.7409 16.3573 25.7803 16.3114C25.8 16.2852 25.8131 16.2525 25.8131 16.2197V12.8453C25.8131 10.7617 25.8131 8.68466 25.8131 6.60105V2.3159C25.8131 2.27003 25.7869 2.23072 25.7541 2.21106ZM8.2115 15.1583C7.71947 15.1648 7.22744 15.1583 6.73541 15.1583C6.24993 15.1583 5.77102 15.1583 5.28555 15.1583C4.85256 15.1517 4.53766 14.8437 4.53766 14.4244C4.53766 14.0116 4.85913 13.6906 5.29211 13.684C6.26305 13.6775 7.24056 13.6775 8.2115 13.684C8.64449 13.684 8.96595 14.0051 8.96595 14.4244C8.96595 14.8306 8.64449 15.1517 8.2115 15.1583ZM14.1552 7.787C13.2696 7.787 12.3905 7.787 11.5048 7.787C10.8225 7.787 10.5208 7.37421 10.7176 6.71244C10.8553 6.43725 11.0915 6.31276 11.3867 6.31276C12.3708 6.3062 13.3549 6.31276 14.3324 6.31276C14.6079 6.31276 14.8113 6.45035 14.9687 6.66658C15.2049 7.36111 14.8966 7.787 14.1552 7.787ZM14.293 4.83851C13.8075 4.84506 13.3286 4.83851 12.8432 4.83851C12.3708 4.83851 11.8919 4.83851 11.4195 4.83851C10.9669 4.83195 10.6454 4.53055 10.6454 4.10466C10.6454 3.68531 10.9669 3.36426 11.413 3.36426C12.3708 3.3577 13.3286 3.36426 14.2864 3.36426C14.7326 3.36426 15.0671 3.68531 15.0737 4.0981C15.0737 4.51089 14.7326 4.83195 14.293 4.83851Z" fill="#802EC0"/>
</g>
<g style="mix-blend-mode:multiply">
<path d="M28.3584 5.6251C28.3518 5.14679 28.05 4.83884 27.5777 4.83884C26.6264 4.83884 25.6752 4.83884 24.7305 4.83884C24.2581 4.83884 23.9301 5.15334 23.9367 5.58579C23.9367 6.03134 24.245 6.31309 24.7305 6.31309C25.0782 6.31309 25.4259 6.31309 25.8392 6.31309C25.7211 6.42447 25.6489 6.49655 25.5768 6.56207C24.3303 7.81355 23.0772 9.06502 21.8308 10.323C21.7127 10.441 21.6274 10.3951 21.5487 10.2903C21.2141 9.85784 20.7549 9.53678 20.394 9.13054C20.0857 8.78327 19.7446 8.46222 19.4231 8.12805C18.9704 7.6694 18.5899 7.6694 18.1372 8.1215C16.8317 9.41884 15.5262 10.7227 14.2272 12.0266C14.0304 12.2232 13.8008 12.3935 13.6893 12.6556C13.663 12.7015 13.6368 12.7539 13.6106 12.7998C13.5909 13.1733 13.7024 13.4812 14.0764 13.6319C14.4503 13.7826 14.739 13.6319 14.9948 13.3567C15.1654 13.1798 15.3491 13.016 15.5196 12.8457C15.5524 12.7998 15.5852 12.7474 15.6246 12.7015C15.5984 12.695 15.5721 12.6884 15.5393 12.6818C15.5656 12.6884 15.5918 12.695 15.6246 12.7015C15.6837 12.6491 15.7493 12.5967 15.8017 12.5377C16.7268 11.6138 17.6583 10.69 18.5834 9.75956C18.7277 9.61541 18.8064 9.5892 18.9639 9.753C19.6527 10.4606 20.3612 11.1552 21.0632 11.8563C21.5421 12.3346 21.9095 12.3346 22.3884 11.8628C23.8186 10.4344 25.2487 9.00605 26.6855 7.57767C26.7445 7.5187 26.7904 7.44007 26.8888 7.42041C26.8954 7.45317 26.8954 7.46628 26.8954 7.48593C26.8954 7.79389 26.8954 8.1084 26.8954 8.41635C26.8954 8.93398 27.1906 9.26814 27.6367 9.26814C28.0828 9.26159 28.3649 8.92742 28.3715 8.40324C28.3715 7.80699 28.3781 7.21074 28.3781 6.61449C28.3584 6.28033 28.3584 5.95271 28.3584 5.6251Z" fill="#FFB81E"/>
</g>
</svg>
