<svg width="29" height="29" viewBox="0 0 29 29" fill="none" xmlns="http://www.w3.org/2000/svg">
<g clip-path="url(#clip0_1138_146)">
<g style="mix-blend-mode:multiply">
<path d="M4.08438 10.6414C4.06268 9.58657 4.10608 8.53899 4.39543 7.51309C4.77159 6.17652 5.40092 4.98445 6.3196 3.92965C7.10084 3.03379 8.03398 2.34022 9.0901 1.81282C10.0522 1.32877 11.0794 1.03256 12.1572 0.938634C12.2006 0.938634 12.2368 0.902511 12.2729 0.888062C12.7793 0.888062 13.2857 0.888062 13.792 0.888062C14.1609 0.953084 14.5299 1.01088 14.8915 1.09035C16.3166 1.39379 17.6042 2.00066 18.7254 2.93264C20.3458 4.27643 21.3729 6.00313 21.8142 8.06216C21.995 8.90745 22.0095 9.77441 21.9878 10.6414C21.0836 10.6414 20.1794 10.6341 19.2752 10.6558C18.6531 10.6703 18.1105 10.8942 17.6621 11.3494C17.2714 11.7395 17.0689 12.2236 16.9025 12.7293C16.6059 13.6179 16.0634 14.3115 15.2894 14.8389C14.9132 15.099 14.4865 15.2363 14.0669 15.4097C13.4159 15.5469 12.7721 15.5758 12.1138 15.4241C11.6653 15.2868 11.2241 15.1279 10.8334 14.8678C9.97262 14.2971 9.41562 13.5096 9.11181 12.527C8.75736 11.3638 7.7808 10.6052 6.55107 10.6486C5.72643 10.6703 4.90179 10.6486 4.08438 10.6414ZM13.0325 12.2741C14.3201 12.2814 15.463 11.176 15.4775 9.86111C15.4919 8.51009 14.3924 7.40472 13.0542 7.40472C11.7087 7.40472 10.6237 8.49564 10.5947 9.83221C10.5658 11.0893 11.6798 12.2814 13.0325 12.2741Z" fill="#FFB81E"/>
</g>
<g style="mix-blend-mode:multiply">
<path d="M23.6078 22.3019C23.6078 20.0406 23.6078 17.7865 23.6078 15.5252C23.6078 14.1597 23.615 12.787 23.6078 11.4216C23.6078 10.9881 23.2606 10.663 22.8266 10.6485C22.5444 10.6413 22.2696 10.6413 21.9874 10.6413C21.0832 10.6413 20.179 10.6341 19.2748 10.6558C18.6527 10.6702 18.1102 10.8942 17.6617 11.3493C17.2711 11.7395 17.0685 12.2235 16.9022 12.7292C16.6056 13.6179 16.063 14.3114 15.289 14.8388C14.9129 15.0989 14.4861 15.2362 14.0665 15.4096C13.4155 15.5469 12.7717 15.5758 12.1134 15.424C11.665 15.2868 11.2237 15.1278 10.8258 14.8677C9.96503 14.297 9.40804 13.5095 9.10423 12.5269C8.74977 11.3638 7.77322 10.6052 6.54349 10.6485C5.72608 10.6774 4.90144 10.6485 4.0768 10.6485C3.79469 10.6485 3.51981 10.6485 3.23769 10.6558C2.80367 10.6702 2.45645 10.9953 2.45645 11.4288C2.44922 12.7943 2.45645 14.167 2.45645 15.5324C2.45645 16.8545 2.44922 18.1767 2.44922 19.4988C2.44922 20.3585 2.45645 21.2255 2.45645 22.0852C2.45645 23.4145 2.44922 24.7367 2.44922 26.066C2.44922 27.6121 3.4764 28.638 5.03165 28.6452C7.82386 28.6452 10.6161 28.6452 13.4083 28.6452C15.9835 28.6452 18.5587 28.638 21.1339 28.6452C22.4938 28.6524 23.5789 27.5615 23.6006 26.2827C23.6295 24.9534 23.6078 23.6241 23.6078 22.3019Z" fill="#802EC0"/>
</g>
<g style="mix-blend-mode:multiply">
<path d="M13.032 12.2739C11.6793 12.2812 10.5654 11.0891 10.5943 9.83199C10.6232 8.49543 11.7083 7.39728 13.0537 7.4045C14.392 7.4045 15.4915 8.5171 15.477 9.86089C15.4625 11.1758 14.3196 12.2812 13.032 12.2739Z" fill="#03C6AE"/>
</g>
<g style="mix-blend-mode:multiply">
<path d="M18.2974 21.1969C17.9284 22.6273 17.5668 24.0578 17.1978 25.4883C17.1689 25.6111 17.14 25.7267 17.1038 25.8496C16.9085 26.4781 16.3515 26.8177 15.7583 26.6659C15.1145 26.4998 14.7601 25.9435 14.9192 25.2788C15.2592 23.8917 15.6136 22.5045 15.9536 21.1246C16.0043 20.9079 16.0477 20.6911 16.0983 20.4744C16.3587 19.4557 16.6264 18.437 16.8868 17.4111C16.9664 17.1005 17.0387 16.7898 17.1183 16.4791C17.2846 15.8361 17.8633 15.4605 18.4565 15.605C19.1437 15.7784 19.4475 16.2985 19.2884 17.0138C19.0569 18.0613 18.7675 19.0873 18.4854 20.1204C18.4059 20.4599 18.3697 20.8356 18.2974 21.1969Z" fill="#03C6AE"/>
<path d="M26.0232 21.4064C25.9147 21.7821 25.6615 22.035 25.336 22.2445C24.316 22.9019 23.3105 23.5811 22.305 24.2529C21.9289 24.5058 21.5238 24.5853 21.1114 24.3685C20.7932 24.2024 20.5038 24.0001 20.4749 23.5738C20.4387 23.0753 20.5906 22.678 21.0174 22.389C21.5527 22.0277 22.0952 21.6665 22.6306 21.3053C22.891 21.2258 22.9488 21.1319 22.6812 20.9585C22.1386 20.6117 21.6106 20.2505 21.068 19.8965C20.4821 19.5136 20.3013 18.8417 20.6485 18.2926C20.9812 17.758 21.7046 17.6279 22.2906 18.0036C23.3322 18.69 24.3667 19.398 25.4156 20.0771C25.9075 20.4022 26.1028 20.8357 26.0232 21.4064Z" fill="#03C6AE"/>
<path d="M12.511 20.3876C12.2072 20.5826 11.9106 20.7777 11.5995 20.9583C11.3825 21.0811 11.3681 21.1678 11.5923 21.3051C12.1276 21.6374 12.6484 21.9914 13.1765 22.3454C13.7841 22.7572 13.9577 23.4364 13.6032 23.9782C13.2416 24.5345 12.5544 24.6357 11.9323 24.2311C10.8689 23.5303 9.81281 22.8223 8.74946 22.1143C8.39501 21.8831 8.178 21.5724 8.18523 21.1389C8.2214 20.6765 8.46012 20.3442 8.85074 20.0841C9.87792 19.4194 10.8834 18.7331 11.9033 18.054C12.5399 17.635 13.2488 17.7289 13.6032 18.2852C13.9577 18.8415 13.7696 19.5061 13.1403 19.9396C12.9305 20.0913 12.6846 20.1853 12.511 20.3876Z" fill="#03C6AE"/>
</g>
</g>
<defs>
<clipPath id="clip0_1138_146">
<rect width="27.7572" height="27.7572" fill="white" transform="translate(0.621094 0.565491)"/>
</clipPath>
</defs>
</svg>
