<svg width="29" height="29" viewBox="0 0 29 29" fill="none" xmlns="http://www.w3.org/2000/svg">
<g clip-path="url(#clip0_1138_4968)">
<g style="mix-blend-mode:multiply">
<path d="M11.0001 21.1134C12.4762 21.1134 13.9589 21.1134 15.435 21.1134C15.435 22.0242 15.435 22.9284 15.4284 23.8391C15.4284 24.0161 15.4875 24.0619 15.6515 24.0619C16.301 24.0554 16.9439 24.0554 17.5934 24.0619C18.0657 24.0619 18.3872 24.3699 18.3806 24.8089C18.3741 25.2282 18.046 25.5362 17.5868 25.5362C14.6674 25.5362 11.7546 25.5362 8.8352 25.5362C8.36285 25.5362 8.04139 25.2282 8.04795 24.7892C8.05451 24.3633 8.37597 24.0685 8.8352 24.0619C9.48468 24.0619 10.1276 24.0554 10.7771 24.0619C10.9477 24.0619 11.0067 24.0161 11.0001 23.8391C11.0001 22.9284 11.0001 22.0242 11.0001 21.1134Z" fill="#03C6AE"/>
</g>
<g style="mix-blend-mode:multiply">
<path d="M25.755 5.21106C25.6829 5.15209 25.7157 5.04071 25.6894 4.97518C25.3286 3.85475 24.3839 3.41576 23.5376 3.41576C16.6623 3.42231 9.78042 3.42231 2.9051 3.41576C1.91447 3.41576 0.93697 4.05787 0.694235 5.04726C0.687675 5.08002 0.687675 5.13244 0.661433 5.1652C0.635191 5.18486 0.62207 5.22417 0.62207 5.25693V9.70589V15.6553C0.62207 15.7339 0.687675 15.7995 0.7664 15.7995C0.687675 15.7995 0.62207 15.865 0.62207 15.9436V19.187C0.62207 19.2132 0.635191 19.2394 0.648312 19.2656V19.2721C0.799202 20.2353 1.6783 21.1395 3.0035 21.1133C4.2631 21.0871 5.52926 21.1068 6.78887 21.1068C8.1928 21.1068 9.59017 21.1133 10.9941 21.1133C12.4702 21.1133 13.9528 21.1133 15.4289 21.1133C15.5273 21.1133 15.6258 21.1068 15.7242 21.1068C18.3352 21.1068 20.9463 21.1068 23.5573 21.1068C24.607 21.1068 25.4401 20.4777 25.7288 19.4818C25.7419 19.4294 25.7419 19.3573 25.7813 19.3114C25.801 19.2852 25.8141 19.2525 25.8141 19.2197V15.8453C25.8141 13.7617 25.8141 11.6847 25.8141 9.60105V5.3159C25.8141 5.27003 25.7878 5.23072 25.755 5.21106ZM8.21248 18.1583C7.72044 18.1648 7.22841 18.1583 6.73638 18.1583C6.25091 18.1583 5.772 18.1583 5.28653 18.1583C4.85354 18.1517 4.53864 17.8437 4.53864 17.4244C4.53864 17.0116 4.8601 16.6906 5.29309 16.684C6.26403 16.6775 7.24153 16.6775 8.21248 16.684C8.64546 16.684 8.96692 17.0051 8.96692 17.4244C8.96692 17.8306 8.64546 18.1517 8.21248 18.1583ZM14.1562 10.787C13.2706 10.787 12.3915 10.787 11.5058 10.787C10.8235 10.787 10.5217 10.3742 10.7186 9.71244C10.8563 9.43725 11.0925 9.31276 11.3877 9.31276C12.3718 9.3062 13.3558 9.31276 14.3333 9.31276C14.6089 9.31276 14.8123 9.45035 14.9697 9.66658C15.2059 10.3611 14.8975 10.787 14.1562 10.787ZM14.294 7.83851C13.8085 7.84506 13.3296 7.83851 12.8441 7.83851C12.3718 7.83851 11.8929 7.83851 11.4205 7.83851C10.9679 7.83195 10.6464 7.53055 10.6464 7.10466C10.6464 6.68531 10.9679 6.36426 11.414 6.36426C12.3718 6.3577 13.3296 6.36426 14.2874 6.36426C14.7335 6.36426 15.0681 6.68531 15.0747 7.0981C15.0747 7.51089 14.7335 7.83195 14.294 7.83851Z" fill="#802EC0"/>
</g>
<g style="mix-blend-mode:multiply">
<path d="M28.3594 8.6251C28.3528 8.14679 28.051 7.83884 27.5787 7.83884C26.6274 7.83884 25.6761 7.83884 24.7314 7.83884C24.2591 7.83884 23.9311 8.15334 23.9376 8.58579C23.9376 9.03134 24.246 9.31309 24.7314 9.31309C25.0791 9.31309 25.4269 9.31309 25.8402 9.31309C25.7221 9.42447 25.6499 9.49655 25.5777 9.56207C24.3313 10.8135 23.0782 12.065 21.8317 13.323C21.7137 13.441 21.6284 13.3951 21.5496 13.2903C21.2151 12.8578 20.7558 12.5368 20.395 12.1305C20.0867 11.7833 19.7455 11.4622 19.4241 11.1281C18.9714 10.6694 18.5909 10.6694 18.1382 11.1215C16.8327 12.4188 15.5272 13.7227 14.2282 15.0266C14.0314 15.2232 13.8018 15.3935 13.6903 15.6556C13.664 15.7015 13.6378 15.7539 13.6115 15.7998C13.5919 16.1733 13.7034 16.4812 14.0773 16.6319C14.4513 16.7826 14.7399 16.6319 14.9958 16.3567C15.1664 16.1798 15.35 16.016 15.5206 15.8457C15.5534 15.7998 15.5862 15.7474 15.6256 15.7015C15.5993 15.695 15.5731 15.6884 15.5403 15.6818C15.5665 15.6884 15.5928 15.695 15.6256 15.7015C15.6846 15.6491 15.7502 15.5967 15.8027 15.5377C16.7277 14.6138 17.6593 13.69 18.5843 12.7596C18.7287 12.6154 18.8074 12.5892 18.9648 12.753C19.6537 13.4606 20.3622 14.1552 21.0642 14.8563C21.5431 15.3346 21.9105 15.3346 22.3894 14.8628C23.8195 13.4344 25.2497 12.006 26.6865 10.5777C26.7455 10.5187 26.7914 10.4401 26.8898 10.4204C26.8964 10.4532 26.8964 10.4663 26.8964 10.4859C26.8964 10.7939 26.8964 11.1084 26.8964 11.4164C26.8964 11.934 27.1916 12.2681 27.6377 12.2681C28.0838 12.2616 28.3659 11.9274 28.3725 11.4032C28.3725 10.807 28.379 10.2107 28.379 9.61449C28.3594 9.28033 28.3594 8.95271 28.3594 8.6251Z" fill="#FFB81E"/>
</g>
</g>
<defs>
<clipPath id="clip0_1138_4968">
<rect width="27.7572" height="27.7572" fill="white" transform="translate(0.62207 0.565491)"/>
</clipPath>
</defs>
</svg>
