<svg width="14" height="14" viewBox="0 0 14 14" fill="none" xmlns="http://www.w3.org/2000/svg">
<path fill-rule="evenodd" clip-rule="evenodd" d="M2.79961 2.80039C2.79961 2.42909 2.94711 2.07299 3.20966 1.81044C3.47221 1.54789 3.82831 1.40039 4.19961 1.40039H9.79961C10.1709 1.40039 10.527 1.54789 10.7896 1.81044C11.0521 2.07299 11.1996 2.42909 11.1996 2.80039V11.2004C11.3853 11.2004 11.5633 11.2741 11.6946 11.4054C11.8259 11.5367 11.8996 11.7147 11.8996 11.9004C11.8996 12.086 11.8259 12.2641 11.6946 12.3954C11.5633 12.5266 11.3853 12.6004 11.1996 12.6004H9.09961C8.91396 12.6004 8.73591 12.5266 8.60464 12.3954C8.47336 12.2641 8.39961 12.086 8.39961 11.9004V10.5004C8.39961 10.3147 8.32586 10.1367 8.19458 10.0054C8.06331 9.87414 7.88526 9.80039 7.69961 9.80039H6.29961C6.11396 9.80039 5.93591 9.87414 5.80464 10.0054C5.67336 10.1367 5.59961 10.3147 5.59961 10.5004V11.9004C5.59961 12.086 5.52586 12.2641 5.39458 12.3954C5.26331 12.5266 5.08526 12.6004 4.89961 12.6004H2.79961C2.61396 12.6004 2.43591 12.5266 2.30463 12.3954C2.17336 12.2641 2.09961 12.086 2.09961 11.9004C2.09961 11.7147 2.17336 11.5367 2.30463 11.4054C2.43591 11.2741 2.61396 11.2004 2.79961 11.2004V2.80039ZM4.89961 3.50039H6.29961V4.90039H4.89961V3.50039ZM6.29961 6.30039H4.89961V7.70039H6.29961V6.30039ZM7.69961 3.50039H9.09961V4.90039H7.69961V3.50039ZM9.09961 6.30039H7.69961V7.70039H9.09961V6.30039Z" fill="#B5BDC9"/>
</svg>
