<svg width="43" height="44" viewBox="0 0 43 44" fill="none" xmlns="http://www.w3.org/2000/svg">
<rect width="43" height="44" rx="5" fill="#F8F0FF"/>
<path d="M30.1425 20.2004C30.1419 20.0712 30.0867 19.9481 29.9902 19.8623C29.8932 19.7765 29.7636 19.7364 29.6361 19.7513L14.2437 21.5636C14.0159 21.5904 13.8438 21.784 13.8438 22.0136V26.0914C13.8438 27.8796 18.9702 28.3569 21.9993 28.3569C25.0282 28.3569 30.1548 27.8796 30.1548 26.0914C30.1548 26.0914 30.1548 26.0907 30.1548 26.0905L30.1425 20.2004Z" fill="#03B0AE"/>
<path d="M30.1439 21.5605H21.9883V28.3567C21.9925 28.3567 21.9966 28.3568 22.0007 28.3568C24.9506 28.3568 29.8874 27.9037 30.1439 26.2285V21.5605Z" fill="#089997"/>
<path d="M35.5067 17.6987L23.9119 13.7233C22.6801 13.3007 21.3235 13.3007 20.0916 13.7233L8.49718 17.6987C7.93932 17.8898 7.57812 18.3944 7.57812 18.9845C7.57812 19.5743 7.93925 20.079 8.49718 20.2701L20.0917 24.2454C20.7076 24.4566 21.3544 24.5623 22.0018 24.5623C22.6492 24.5623 23.2961 24.4568 23.9119 24.2454L35.5069 20.2701C36.0648 20.079 36.4255 19.5744 36.4255 18.9845C36.4253 18.3944 36.0647 17.8898 35.5067 17.6987Z" fill="#7C2BC0"/>
<path d="M30.5971 28.8099C30.3466 28.8099 30.1441 28.607 30.1441 28.3568V22.4366C30.1441 22.243 30.021 22.0706 29.8379 22.0079L21.8416 19.2664C21.6049 19.1852 21.4787 18.9276 21.5596 18.6908C21.6411 18.4541 21.8982 18.3275 22.1353 18.4093L30.1316 21.1509C30.6811 21.3393 31.0502 21.8558 31.0502 22.4367V28.3569C31.0502 28.607 30.8476 28.8099 30.5971 28.8099Z" fill="#03B0AE"/>
<path d="M31.0506 31.9816H30.1445C29.8941 31.9816 29.6914 31.7787 29.6914 31.5284V28.8099C29.6914 28.3094 30.097 27.9037 30.5975 27.9037C31.0981 27.9037 31.5036 28.3094 31.5036 28.8099V31.5284C31.5036 31.7787 31.3008 31.9816 31.0506 31.9816Z" fill="#F8AD1E"/>
<path d="M30.1445 25.0889C30.1477 25.087 30.1516 25.0852 30.1547 25.0832L30.1521 23.8431C30.1516 23.8501 30.1457 23.8582 30.1445 23.8651V25.0889Z" fill="#5C546A"/>
<path d="M21.9998 19.7482C23.0007 19.7482 23.8121 19.3425 23.8121 18.842C23.8121 18.3415 23.0007 17.9359 21.9998 17.9359C20.9989 17.9359 20.1875 18.3415 20.1875 18.842C20.1875 19.3425 20.9989 19.7482 21.9998 19.7482Z" fill="#D3D3D3"/>
</svg>
