<svg width="43" height="44" viewBox="0 0 43 44" fill="none" xmlns="http://www.w3.org/2000/svg">
<rect width="43" height="44" rx="5" fill="#F8F0FF"/>
<path d="M14.668 29.3333V16.5H29.3346V29.3333H14.668Z" fill="#F8AD1E"/>
<path fill-rule="evenodd" clip-rule="evenodd" d="M12.8346 15.5833C12.3284 15.5833 11.918 15.9937 11.918 16.5V22.9166C11.918 23.3789 12.2622 23.7689 12.7209 23.8263L20.0543 24.7429C20.092 24.7476 20.13 24.75 20.168 24.75H23.8346C23.8727 24.75 23.9106 24.7476 23.9483 24.7429L31.2816 23.8263C31.7404 23.7689 32.0846 23.3789 32.0846 22.9166V16.5C32.0846 15.9937 31.6742 15.5833 31.168 15.5833H12.8346ZM20.168 20.625C19.6617 20.625 19.2513 21.0354 19.2513 21.5416V26.125C19.2513 26.6313 19.6617 27.0416 20.168 27.0416H23.8346C24.3409 27.0416 24.7513 26.6313 24.7513 26.125V21.5416C24.7513 21.0354 24.3409 20.625 23.8346 20.625H20.168Z" fill="#7C2BC0"/>
<path fill-rule="evenodd" clip-rule="evenodd" d="M18.332 15.125C18.332 13.8593 19.358 12.8333 20.6237 12.8333H23.3737C24.6393 12.8333 25.6654 13.8593 25.6654 15.125V16.5H23.832V15.125C23.832 14.8719 23.6268 14.6666 23.3737 14.6666H20.6237C20.3706 14.6666 20.1654 14.8719 20.1654 15.125V16.5H18.332V15.125ZM12.832 30.25V23.375H14.6654V29.3333H29.332V23.375H31.1654V30.25C31.1654 30.7563 30.755 31.1666 30.2487 31.1666H13.7487C13.2424 31.1666 12.832 30.7563 12.832 30.25Z" fill="#03B0AE"/>
</svg>
