<svg width="12" height="13" viewBox="0 0 12 13" fill="none" xmlns="http://www.w3.org/2000/svg">
<path d="M6 1.5387C3.49286 1.5387 1.5 3.53155 1.5 6.0387C1.5 7.26012 1.95 8.41727 2.85 9.25298C2.91429 9.31727 5.48571 11.6316 5.55 11.6958C5.80714 11.8887 6.19286 11.8887 6.38571 11.6958C6.45 11.6316 9.08571 9.31727 9.08571 9.25298C9.98571 8.41727 10.4357 7.26012 10.4357 6.0387C10.5 3.53155 8.50714 1.5387 6 1.5387ZM6 7.32441C5.29286 7.32441 4.71429 6.74584 4.71429 6.0387C4.71429 5.33155 5.29286 4.75298 6 4.75298C6.70714 4.75298 7.28571 5.33155 7.28571 6.0387C7.28571 6.74584 6.70714 7.32441 6 7.32441Z" fill="#B5BDC9"/>
</svg>
