<svg width="7" height="14" viewBox="0 0 7 14" fill="none" xmlns="http://www.w3.org/2000/svg">
<path d="M5.12391 6.35961C4.61895 6.05601 4.0821 5.82469 3.55056 5.5847C3.24227 5.44591 2.94727 5.28399 2.68682 5.05845C2.17389 4.61317 2.27222 3.8903 2.87286 3.60405C3.04295 3.52309 3.22101 3.49706 3.40173 3.4855C4.09805 3.44502 4.75981 3.58381 5.38968 3.91343C5.70328 4.07825 5.80693 4.0262 5.91324 3.67055C6.02486 3.29466 6.11788 2.91299 6.22153 2.53421C6.29063 2.27976 6.20559 2.11205 5.985 2.00507C5.58103 1.81134 5.16643 1.67255 4.73057 1.59737C4.16183 1.50195 4.16183 1.49906 4.15917 0.877398C4.15652 0.00128508 4.15652 0.00128509 3.34858 0.00128509C3.23164 0.00128509 3.1147 -0.00160637 2.99777 0.00128509C2.62038 0.0128509 2.55659 0.0851375 2.54596 0.498617C2.54065 0.68367 2.54596 0.868724 2.5433 1.05667C2.54065 1.60605 2.53799 1.59737 2.05429 1.78821C0.884911 2.25084 0.162022 3.11828 0.0849498 4.50618C0.0158501 5.73506 0.605855 6.56491 1.53339 7.16922C2.10479 7.54222 2.73731 7.76197 3.34327 8.05401C3.5798 8.16678 3.8057 8.29689 4.00237 8.47616C4.5844 8.99952 4.47809 9.86985 3.7871 10.1995C3.41768 10.3759 3.027 10.4192 2.62569 10.3643C2.00645 10.2804 1.41379 10.1041 0.855677 9.78889C0.528782 9.60383 0.433106 9.65299 0.321483 10.0376C0.225807 10.3701 0.140761 10.7055 0.0557153 11.0409C-0.0585649 11.492 -0.0160423 11.5989 0.379952 11.81C0.884911 12.076 1.42442 12.2119 1.97456 12.3074C2.4051 12.3825 2.41839 12.4028 2.42371 12.8885C2.42637 13.1083 2.42637 13.3309 2.42902 13.5507C2.43168 13.8283 2.55393 13.9902 2.81704 13.996C3.11471 14.0017 3.41502 14.0017 3.71268 13.9931C3.95719 13.9873 4.0821 13.8427 4.0821 13.5738C4.0821 13.2731 4.09539 12.9695 4.08476 12.6688C4.07147 12.3623 4.19372 12.2062 4.46481 12.1252C5.08936 11.9401 5.6209 11.5758 6.03018 11.0322C7.16767 9.52866 6.73447 7.32825 5.12391 6.35961Z" fill="#B5BDC9"/>
</svg>
