<svg width="120" height="120" viewBox="0 0 120 120" fill="none" xmlns="http://www.w3.org/2000/svg">
<path d="M112.031 22.5H7.96875C6.67433 22.5 5.625 23.5493 5.625 24.8438V91.4062C5.625 92.7007 6.67433 93.75 7.96875 93.75H112.031C113.326 93.75 114.375 92.7007 114.375 91.4062V24.8438C114.375 23.5493 113.326 22.5 112.031 22.5Z" fill="#802EC0"/>
<path d="M91.875 13.125H28.125V65.625H91.875V13.125Z" fill="#FFB81E"/>
<path d="M82.5 114.375H37.5V112.129C37.5 111.145 37.8096 110.186 38.3848 109.388C38.96 108.59 39.7718 107.993 40.7051 107.682L42.3396 107.137C44.2063 106.515 45.8299 105.321 46.9804 103.725C48.1309 102.128 48.75 100.211 48.75 98.243V91.875H71.25V98.243C71.25 100.211 71.8691 102.128 73.0196 103.725C74.1701 105.321 75.7937 106.515 77.6604 107.137L79.2949 107.682C80.2282 107.993 81.04 108.59 81.6152 109.388C82.1904 110.186 82.5 111.145 82.5 112.129V114.375Z" fill="#036458"/>
<path d="M112.61 93.7008H8.54742C6.6743 93.75 5.625 92.7007 5.625 91.4062V78.75H114.375V91.4062C114.375 92.7007 113.326 93.75 112.61 93.7008Z" fill="#03C6AE"/>
<path d="M65.625 84.375H54.375V88.125H65.625V84.375Z" fill="#FEECD6"/>
<path d="M84.375 5.625H35.625V71.25H84.375V5.625Z" fill="#FFF6E3"/>
<path d="M71.25 26.25H48.75V18.75L54.375 20.625L60 13.125L65.625 20.625L71.25 18.75V26.25Z" fill="#FFB81E"/>
<path d="M76.875 33.75H43.125V56.25H76.875V33.75Z" fill="#FFCD5F"/>
<path d="M54.375 50.625V39.375L65.625 45L54.375 50.625Z" fill="#FFB81E"/>
<path d="M71.25 61.875H48.75V65.625H71.25V61.875Z" fill="#FFCD5F"/>
<path d="M100.701 59.4505L98.0492 56.7988L102.349 52.4997L98.0492 48.2005L100.701 45.5488L106.326 51.1738C106.5 51.3479 106.638 51.5546 106.732 51.7821C106.827 52.0096 106.875 52.2535 106.875 52.4997C106.875 52.7459 106.827 52.9898 106.732 53.2172C106.638 53.4447 106.5 53.6514 106.326 53.8255L100.701 59.4505ZM19.2992 59.4505L13.6742 53.8255C13.5001 53.6514 13.362 53.4447 13.2677 53.2172C13.1735 52.9898 13.125 52.7459 13.125 52.4997C13.125 52.2535 13.1735 52.0096 13.2677 51.7821C13.362 51.5546 13.5001 51.3479 13.6742 51.1738L19.2992 45.5488L21.9509 48.2005L17.6516 52.4997L21.9509 56.7988L19.2992 59.4505Z" fill="white"/>
</svg>
