<svg width="34" height="34" viewBox="0 0 34 34" fill="none" xmlns="http://www.w3.org/2000/svg">
<path d="M26.7226 18.1799C26.7226 16.9522 26.7293 15.7246 26.7293 14.4969C26.7293 13.9235 26.4393 13.6267 25.866 13.6267C24.888 13.6267 23.9167 13.62 22.9387 13.62C21.9269 13.62 20.9085 13.62 19.8967 13.62C18.143 13.62 16.3893 13.6267 14.6424 13.6267C14.3726 13.6267 14.1028 13.62 13.833 13.62C12.8213 13.62 11.8028 13.62 10.791 13.62C9.79278 13.62 8.78779 13.6267 7.78953 13.6267C7.34437 13.6267 7.00712 13.9235 7.00712 14.3485C7.00038 15.5896 7.00712 16.8375 7.01386 18.0787C7.01386 18.5644 7.00712 19.05 7.00712 19.5424C7.00712 20.9927 7.01386 22.4497 7.01386 23.8999C7.01386 25.2018 7.02061 26.5037 7.00038 27.8055C6.99363 28.2777 7.07457 28.6689 7.51299 28.9118C13.7386 28.9118 19.9574 28.9118 26.183 28.9118C26.4933 28.7566 26.7361 28.5408 26.7361 28.1563C26.7293 26.733 26.7226 20.0888 26.7226 18.1799Z" fill="#802EC0"/>
<g style="mix-blend-mode:multiply">
<path d="M20.3755 18.7199C20.6116 19.5968 20.652 20.4602 20.2946 21.3169C19.9708 22.0859 19.4582 22.6795 18.7365 23.0977C18.5611 23.1989 18.4599 23.2865 18.5274 23.5091C18.9928 25.0066 19.5189 26.4839 20.0382 27.9678C20.1866 28.4333 20.335 28.8987 20.4834 29.3641C20.7465 30.2141 20.2001 30.983 19.303 30.9898C17.6843 31.0033 16.0655 31.0033 14.4467 30.9898C13.5563 30.983 13.0033 30.2141 13.2663 29.3641C13.408 28.8987 13.5631 28.4333 13.7115 27.9678C14.2174 26.4771 14.7165 24.9931 15.2223 23.5091C15.2965 23.2798 15.1819 23.1989 15.0133 23.0977C14.1499 22.612 13.5766 21.87 13.3135 20.9459C13.0842 20.1634 13.1314 19.3338 13.4417 18.5513C13.8194 17.7756 14.3523 17.1415 15.1144 16.7031C16.9153 15.671 19.3233 16.4602 20.2271 18.3894C20.2743 18.5041 20.3215 18.612 20.3755 18.7199Z" fill="#FFB81E"/>
</g>
<g style="mix-blend-mode:multiply">
<path d="M12.3289 15.6442C12.3154 15.6442 12.3086 15.6442 12.2951 15.6442C11.4655 15.6442 10.791 14.9697 10.791 14.14C10.791 12.4267 10.791 10.1602 10.7978 9.02025C10.8045 7.61046 11.2699 6.35582 12.1602 5.26307C13.1517 4.04216 14.4333 3.30691 15.9779 3.07082C17.455 2.84823 18.8512 3.15177 20.1193 3.96121C21.5492 4.87859 22.4395 6.18044 22.8038 7.82631C22.8982 8.26476 22.9252 8.72345 22.9319 9.17539C22.9454 10.2681 22.9454 12.4739 22.9387 14.1467C22.9387 14.9764 22.2642 15.6509 21.4345 15.6509C21.4211 15.6509 21.4143 15.6509 21.4008 15.6509C20.5712 15.6509 19.8967 14.9764 19.8967 14.1467C19.8967 12.7639 19.9034 11.0034 19.8967 10.2142C19.8899 9.67455 19.9304 9.14166 19.8562 8.60203C19.6606 7.26645 18.4937 6.11299 16.9896 6.05228C16.2274 6.0253 15.5395 6.24115 14.9594 6.73356C14.2714 7.32716 13.8262 8.05566 13.833 9.00001C13.8397 10.1467 13.8397 12.4267 13.8397 14.1467C13.833 14.9697 13.1585 15.6442 12.3289 15.6442Z" fill="#03C6AE"/>
</g>
</svg>
