<svg width="120" height="120" viewBox="0 0 120 120" fill="none" xmlns="http://www.w3.org/2000/svg">
<path d="M34.0179 26.251H115.982C118.208 26.251 120 28.0428 120 30.2688V78.4832C120 80.7088 118.208 82.501 115.982 82.501H34.0179C31.792 82.501 30 80.7088 30 78.4832V30.2688C30 28.0428 31.792 26.251 34.0179 26.251Z" fill="#03C6AE"/>
<path d="M30 33.751V45.001H120V33.751H30Z" fill="#FFB81E"/>
<path d="M48.75 71.251H37.5V75.001H48.75V71.251Z" fill="#CAD1D8"/>
<path d="M103.5 60.001C103.5 61.9901 102.71 63.8976 101.303 65.3042C99.8968 66.7107 97.9891 67.501 96 67.501C94.0109 67.501 92.1032 66.7107 90.6967 65.3042C89.2902 63.8976 88.5 61.9901 88.5 60.001C88.5 58.0118 89.2902 56.1043 90.6967 54.6978C92.1032 53.2913 94.0109 52.501 96 52.501C97.9891 52.501 99.8968 53.2913 101.303 54.6978C102.71 56.1043 103.5 58.0119 103.5 60.001Z" fill="#FFB81E"/>
<path d="M63.75 71.251H52.5V75.001H63.75V71.251ZM78.75 71.251H67.5V75.001H78.75V71.251ZM93.75 71.251H82.5V75.001H93.75V71.251ZM78.75 56.251H37.5V63.751H78.75V56.251Z" fill="#DDDDDD"/>
<path d="M112.5 60.001C112.5 61.9901 111.71 63.8976 110.303 65.3042C108.897 66.7107 106.989 67.501 105 67.501C103.011 67.501 101.103 66.7107 99.6967 65.3042C98.2902 63.8976 97.5 61.9901 97.5 60.001C97.5 58.0118 98.2902 56.1043 99.6967 54.6978C101.103 53.2913 103.011 52.501 105 52.501C106.989 52.501 108.897 53.2913 110.303 54.6978C111.71 56.1043 112.5 58.0118 112.5 60.001Z" fill="#DB3563"/>
<path d="M4.01791 37.501H85.9821C88.208 37.501 90 39.2923 90 41.5183V89.7327C90 91.9584 88.208 93.751 85.9821 93.751H4.01791C1.79198 93.751 0 91.9584 0 89.7327V41.5183C0 39.2923 1.79198 37.501 4.01791 37.501Z" fill="#802EC0"/>
<path d="M45 78.75C52.2487 78.75 58.125 72.8737 58.125 65.625C58.125 58.3763 52.2487 52.5 45 52.5C37.7513 52.5 31.875 58.3763 31.875 65.625C31.875 72.8737 37.7513 78.75 45 78.75Z" stroke="white" stroke-miterlimit="8.78" stroke-linecap="square"/>
<path d="M26.25 75H18.75M63.75 56.25H71.25H63.75ZM67.5 65.625H78.75H67.5ZM63.75 75H71.25H63.75ZM26.25 56.25H18.75H26.25ZM22.5 65.625H11.25H22.5Z" stroke="white"/>
</svg>
