<svg width="34" height="34" viewBox="0 0 34 34" fill="none" xmlns="http://www.w3.org/2000/svg">
<path d="M27.625 34H6.375C2.85391 34 0 31.1461 0 27.625V6.375C0 2.85391 2.85391 0 6.375 0H27.625C31.1461 0 34 2.85391 34 6.375V27.625C34 31.1461 31.1461 34 27.625 34Z" fill="#E3F8FA"/>
<path d="M20.5416 12.5726C20.5416 14.5284 18.9562 16.1139 17.0003 16.1139C15.0444 16.1139 13.459 14.5284 13.459 12.5726C13.459 10.6167 15.0444 9.03125 17.0003 9.03125C18.9562 9.03125 20.5416 10.6167 20.5416 12.5726Z" fill="#26C6DA"/>
<path d="M20.0101 17.5312H13.9889C12.1347 17.5312 10.625 19.041 10.625 20.8962V23.375C10.625 23.6681 10.8631 23.9062 11.1562 23.9062H22.8438C23.1369 23.9062 23.375 23.6681 23.375 23.375V20.8962C23.375 19.041 21.8653 17.5312 20.0101 17.5312Z" fill="#26C6DA"/>
</svg>
