<svg width="34" height="34" viewBox="0 0 34 34" fill="none" xmlns="http://www.w3.org/2000/svg">
<rect width="34" height="34" rx="5" fill="#FFE3A6"/>
<path d="M24.5282 10H10.1385C8.95903 10 8 10.959 8 12.1385V21.8604C8 23.041 8.95903 24 10.1385 24H24.527C25.7076 24 26.6667 23.041 26.6667 21.8615V12.1396C26.6667 10.959 25.7076 10 24.5282 10Z" fill="#FFB81E"/>
<path d="M23.7497 20.8885H19.4715C19.1494 20.8885 18.8882 20.627 18.8882 20.3051C18.8882 19.983 19.1494 19.7218 19.4715 19.7218H23.7497C24.0715 19.7218 24.333 19.983 24.333 20.3051C24.333 20.627 24.0715 20.8885 23.7497 20.8885Z" fill="#FFEE95" fill-opacity="0.49"/>
<path d="M23.7497 17.7781H19.4715C19.1494 17.7781 18.8882 17.5169 18.8882 17.1948C18.8882 16.8729 19.1494 16.6115 19.4715 16.6115H23.7497C24.0715 16.6115 24.333 16.8729 24.333 17.1948C24.333 17.5169 24.0715 17.7781 23.7497 17.7781Z" fill="#FFEE95" fill-opacity="0.49"/>
<path d="M23.7497 14.6667H19.4715C19.1494 14.6667 18.8882 14.4052 18.8882 14.0833C18.8882 13.7615 19.1494 13.5 19.4715 13.5H23.7497C24.0715 13.5 24.333 13.7615 24.333 14.0833C24.333 14.4052 24.0715 14.6667 23.7497 14.6667Z" fill="#FFEE95" fill-opacity="0.49"/>
<path d="M15.7778 15.0552C15.7778 16.1293 14.9071 17 13.833 17C12.7589 17 11.8882 16.1293 11.8882 15.0552C11.8882 13.9811 12.7589 13.1104 13.833 13.1104C14.9071 13.1104 15.7778 13.9811 15.7778 15.0552Z" fill="white"/>
<path d="M17.3335 20.3052C17.3335 20.6271 17.072 20.8885 16.7502 20.8885H10.9168C10.595 20.8885 10.3335 20.6271 10.3335 20.3052V19.9167C10.3335 18.7372 11.2925 17.7782 12.472 17.7782H15.1938C16.3733 17.7782 17.3324 18.7372 17.3324 19.9167V20.3052H17.3335Z" fill="white"/>
</svg>
