<svg width="15" height="15" viewBox="0 0 15 15" fill="none" xmlns="http://www.w3.org/2000/svg">
<g clip-path="url(#clip0_470_15566)">
<path d="M7.10316 0.0234375C3.17728 0.0234375 0 3.22759 0 7.1875C0 11.147 3.17686 14.3516 7.10316 14.3516C11.0291 14.3516 14.2063 11.1474 14.2063 7.1875C14.2063 3.22793 11.0294 0.0234375 7.10316 0.0234375ZM7.10316 13.4171C3.69736 13.4171 0.926491 10.6225 0.926491 7.1875C0.926491 3.75247 3.69731 0.957872 7.10316 0.957872C10.509 0.957872 13.2798 3.7525 13.2798 7.1875C13.2798 10.6225 10.509 13.4171 7.10316 13.4171Z" fill="#03C6AE"/>
<path d="M9.9392 6.78296L5.61687 4.26407C5.30811 4.08424 4.92188 4.30969 4.92188 4.66862V9.7064C4.92188 10.068 5.31061 10.2894 5.61687 10.1109L9.9392 7.59205C10.2476 7.41228 10.2472 6.96251 9.9392 6.78296ZM5.84836 8.89683V5.47818L8.78149 7.18751L5.84836 8.89683Z" fill="#03C6AE"/>
</g>
<defs>
<clipPath id="clip0_470_15566">
<rect width="14.2063" height="14.3281" fill="white" transform="translate(0 0.0234375)"/>
</clipPath>
</defs>
</svg>
