<svg width="30" height="30" viewBox="0 0 30 30" fill="none" xmlns="http://www.w3.org/2000/svg">
<path d="M14.999 0C6.72752 0 -0.000976562 6.72914 -0.000976562 15C-0.000976562 23.2709 6.72752 30 14.999 30C23.2705 30 29.999 23.2709 29.999 15C29.999 6.72914 23.2705 0 14.999 0Z" fill="#802EC0"/>
<path d="M19.999 14H18.999V11C18.999 8.8 17.199 7 14.999 7C12.799 7 10.999 8.8 10.999 11V14H9.99902C9.49902 14 8.99902 14.5 8.99902 15V22C8.99902 22.5 9.49902 23 9.99902 23H19.999C20.499 23 20.999 22.5 20.999 22V15C20.999 14.5 20.499 14 19.999 14ZM15.999 21H13.999L14.399 18.8C13.899 18.6 13.499 18 13.499 17.5C13.499 16.7 14.199 16 14.999 16C15.799 16 16.499 16.7 16.499 17.5C16.499 18.1 16.199 18.6 15.599 18.8L15.999 21ZM16.999 14H12.999V11C12.999 9.9 13.899 9 14.999 9C16.099 9 16.999 9.9 16.999 11V14Z" fill="white"/>
</svg>
