<svg width="99" height="82" viewBox="0 0 99 82" fill="none" xmlns="http://www.w3.org/2000/svg">
<g style="mix-blend-mode:multiply">
<path d="M6.75586 9.99996C6.75586 4.47714 11.1958 0 16.6728 0H82.3283C87.8053 0 92.2452 4.47998 92.2452 10.0028C92.2452 29.9723 92.2452 45.6624 92.2452 64.8801C92.2452 67.0892 90.4692 68.8828 88.2785 68.8828H67.867C66.7533 68.8828 65.8505 69.7932 65.8505 70.9162C65.8505 73.7237 63.5935 75.9996 60.8092 75.9996H39.1576C36.3734 75.9996 34.1164 73.7237 34.1164 70.9162C34.1164 69.7932 33.2135 68.8828 32.0999 68.8828H10.7226C8.53184 68.8828 6.75586 67.0919 6.75586 64.8828V9.99996Z" fill="#03C6AE"/>
</g>
<path d="M10.9258 12.5127C10.9258 11.4081 11.8212 10.5127 12.9258 10.5127L40.2024 10.5127C41.3069 10.5127 42.2024 11.4111 42.2024 12.5157C42.2024 29.7016 42.2024 39.0154 42.2024 54.7652C42.2024 55.8698 41.3069 56.7691 40.2024 56.7691H12.9258C11.8212 56.7691 10.9258 55.8737 10.9258 54.7691V12.5127Z" fill="white"/>
<path d="M46.373 17.7364C46.373 14.975 48.593 12.7364 51.3315 12.7364L83.1176 12.6152C85.8561 12.6152 88.0761 14.975 88.0761 17.7364C88.0761 20.4978 85.8561 22.6152 83.1176 22.6152L51.3315 22.7364C48.593 22.7364 46.373 20.4978 46.373 17.7364Z" fill="white"/>
<path d="M46.373 34.5572C46.373 31.7958 48.593 29.5572 51.3315 29.5572L83.1176 29.436C85.8561 29.436 88.0761 31.7958 88.0761 34.5572C88.0761 37.3186 85.8561 39.436 83.1176 39.436L51.3315 39.5572C48.593 39.5572 46.373 37.3186 46.373 34.5572Z" fill="white"/>
<path d="M46.373 51.3775C46.373 48.6161 48.593 46.3775 51.3315 46.3775L83.1176 46.2563C85.8561 46.2563 88.0761 48.6161 88.0761 51.3775C88.0761 54.1389 85.8561 56.2563 83.1176 56.2563L51.3315 56.3775C48.593 56.3775 46.373 54.1389 46.373 51.3775Z" fill="white"/>
<g style="mix-blend-mode:multiply">
<path d="M2.58594 75.9999C2.58594 79.3136 5.24991 81.9999 8.53609 81.9999H90.4656C93.7517 81.9999 96.4157 79.3136 96.4157 75.9999V68C96.4157 66.8954 95.5277 66 94.4323 66H4.56932C3.47393 66 2.58594 66.8954 2.58594 68V75.9999Z" fill="#802EC0"/>
</g>
<g style="mix-blend-mode:multiply">
<path d="M31.6514 40.4895C31.9779 39.1376 32.846 38.0023 33.9013 37.1058C36.4627 34.93 38.3796 31.8065 38.3796 28.2344C38.3796 21.5804 33.0895 16.8203 26.5638 16.8203C20.0381 16.8203 14.748 21.5804 14.748 28.2344C14.748 31.8065 16.6649 34.9299 19.2263 37.1058C20.2816 38.0023 21.1498 39.1376 21.4762 40.4895L22.174 43.3794H30.9536L31.6514 40.4895Z" fill="#FFB81E"/>
</g>
<g style="mix-blend-mode:multiply">
<path d="M20.416 45.1502C20.416 44.1723 21.2022 43.3796 22.1719 43.3796H23.9278C24.9 43.3796 25.6906 42.5894 25.6991 41.609L25.707 40.7043C25.7112 40.2248 26.0978 39.8384 26.5733 39.8384C27.0518 39.8384 27.4396 40.2295 27.4396 40.712V41.609C27.4396 42.5869 28.2258 43.3796 29.1955 43.3796H30.9514C31.9212 43.3796 32.7073 44.1723 32.7073 45.1502C32.7073 46.1281 31.9212 46.9208 30.9514 46.9208H22.1719C21.2022 46.9208 20.416 46.1281 20.416 45.1502Z" fill="#FFB81E"/>
</g>
<g style="mix-blend-mode:multiply">
<path d="M23.9258 46.9199H29.1935V47.8052C29.1935 49.272 28.0143 50.4611 26.5596 50.4611C25.105 50.4611 23.9258 49.272 23.9258 47.8052V46.9199Z" fill="#FFB81E"/>
</g>
</svg>
