<svg width="24" height="24" viewBox="0 0 24 24" fill="none" xmlns="http://www.w3.org/2000/svg">
<path fill-rule="evenodd" clip-rule="evenodd" d="M4.1431 12.0018C4.1431 6.94179 8.3131 2.86179 13.4031 3.00179C18.0931 3.13179 22.0131 7.05179 22.1431 11.7418C22.2831 16.8318 18.1931 21.0018 13.1431 21.0018C11.0631 21.0018 9.1431 20.2918 7.6231 19.1018C7.1531 18.7318 7.1231 18.0318 7.5431 17.6018C7.9031 17.2418 8.4631 17.2118 8.8631 17.5218C10.0431 18.4518 11.5331 19.0018 13.1431 19.0018C17.0431 19.0018 20.1931 15.8118 20.1431 11.9018C20.0931 8.18179 16.9631 5.05179 13.2431 5.00179C9.3231 4.95179 6.1431 8.10179 6.1431 12.0018H7.9431C8.3831 12.0018 8.6131 12.5418 8.2931 12.8518L5.5031 15.6518C5.3031 15.8518 4.9931 15.8518 4.7931 15.6518L2.0031 12.8518C1.6831 12.5418 1.9031 12.0018 2.3531 12.0018H4.1431ZM12.1431 8.75179C12.1431 8.34179 12.4831 8.00179 12.8931 8.00179C13.3131 8.00179 13.6431 8.34179 13.6431 8.74179V12.1418L16.5231 13.8518C16.8731 14.0618 16.9931 14.5218 16.7831 14.8818C16.5731 15.2318 16.1131 15.3518 15.7531 15.1418L12.6331 13.2918C12.3331 13.1118 12.1431 12.7818 12.1431 12.4318V8.75179Z" fill="#802EC0"/>
</svg>
