<svg width="37" height="37" viewBox="0 0 37 37" fill="none" xmlns="http://www.w3.org/2000/svg">
<g clip-path="url(#clip0_1283_20246)">
<path d="M18.4117 36.8753C28.5672 36.8753 36.7999 28.7619 36.7999 18.7536C36.7999 8.74521 28.5672 0.631836 18.4117 0.631836C8.25613 0.631836 0.0234375 8.74521 0.0234375 18.7536C0.0234375 28.7619 8.25613 36.8753 18.4117 36.8753Z" fill="#ECB13A"/>
<path d="M17.8951 35.0702C27.5151 35.0702 35.3136 27.3847 35.3136 17.9041C35.3136 8.42356 27.5151 0.738037 17.8951 0.738037C8.27511 0.738037 0.476562 8.42356 0.476562 17.9041C0.476562 27.3847 8.27511 35.0702 17.8951 35.0702Z" fill="#FFDE4F"/>
<path d="M17.8729 19.2988C12.9742 19.2988 8.98047 22.4913 8.98047 26.4129C8.98047 26.7386 9.24624 27.0005 9.57665 27.0005C9.90706 27.0005 10.1728 26.7386 10.1728 26.4129C10.1728 23.1355 13.6278 20.4738 17.8729 20.4738C22.118 20.4738 25.573 23.1425 25.573 26.4129C25.573 26.7386 25.8388 27.0005 26.1692 27.0005C26.4996 27.0005 26.7654 26.7386 26.7654 26.4129C26.7654 22.4913 22.7717 19.2988 17.8729 19.2988Z" fill="#645033"/>
<path d="M10.3244 14.669C11.6891 14.669 12.7954 13.5788 12.7954 12.2339C12.7954 10.8891 11.6891 9.79883 10.3244 9.79883C8.95979 9.79883 7.85352 10.8891 7.85352 12.2339C7.85352 13.5788 8.95979 14.669 10.3244 14.669Z" fill="#645033"/>
<path d="M26.2619 14.6976C27.6266 14.6976 28.7329 13.6074 28.7329 12.2625C28.7329 10.9176 27.6266 9.82739 26.2619 9.82739C24.8973 9.82739 23.791 10.9176 23.791 12.2625C23.791 13.6074 24.8973 14.6976 26.2619 14.6976Z" fill="#645033"/>
</g>
<defs>
<clipPath id="clip0_1283_20246">
<rect width="36.7765" height="36.2435" fill="white" transform="translate(0.0878906 0.631836)"/>
</clipPath>
</defs>
</svg>
