<svg width="21" height="21" viewBox="0 0 21 21" fill="none" xmlns="http://www.w3.org/2000/svg">
<path d="M15.4109 13.5549C16.4443 12.1437 17.0624 10.4103 17.0624 8.53123C17.0624 3.82727 13.2352 0 8.53119 0C3.82723 0 0 3.82727 0 8.53123C0 13.2352 3.82727 17.0625 8.53123 17.0625C10.4103 17.0625 12.1439 16.4443 13.5551 15.4109L19.1441 20.9999L21 19.1439C21 19.1439 15.4109 13.5549 15.4109 13.5549ZM8.53123 14.4375C5.27434 14.4375 2.62501 11.7881 2.62501 8.53123C2.62501 5.27434 5.27434 2.62501 8.53123 2.62501C11.7881 2.62501 14.4375 5.27434 14.4375 8.53123C14.4375 11.7881 11.7881 14.4375 8.53123 14.4375Z" fill="#802EC0"/>
</svg>
