<svg width="36" height="37" viewBox="0 0 36 37" fill="none" xmlns="http://www.w3.org/2000/svg">
<g clip-path="url(#clip0_678_16882)">
<path d="M17.6941 36.0377C27.3951 36.0377 35.2593 28.1734 35.2593 18.4724C35.2593 8.77144 27.3951 0.907227 17.6941 0.907227C7.99312 0.907227 0.128906 8.77144 0.128906 18.4724C0.128906 28.1734 7.99312 36.0377 17.6941 36.0377Z" fill="#ECB13A"/>
<path d="M17.2014 34.2881C26.3909 34.2881 33.8404 26.8386 33.8404 17.6492C33.8404 8.45976 26.3909 1.01025 17.2014 1.01025C8.012 1.01025 0.5625 8.45976 0.5625 17.6492C0.5625 26.8386 8.012 34.2881 17.2014 34.2881Z" fill="#FFDE4F"/>
<path d="M17.18 26.4662C12.5005 26.4662 8.68555 23.3717 8.68555 19.5705C8.68555 19.2548 8.93942 19.001 9.25505 19.001C9.57067 19.001 9.82454 19.2548 9.82454 19.5705C9.82454 22.7473 13.1249 25.3272 17.18 25.3272C21.2351 25.3272 24.5354 22.7404 24.5354 19.5705C24.5354 19.2548 24.7893 19.001 25.1049 19.001C25.4206 19.001 25.6744 19.2548 25.6744 19.5705C25.6744 23.3717 21.8595 26.4662 17.18 26.4662Z" fill="#645033"/>
<path d="M9.96971 14.5136C11.2733 14.5136 12.33 13.4569 12.33 12.1533C12.33 10.8497 11.2733 9.79297 9.96971 9.79297C8.66613 9.79297 7.60938 10.8497 7.60938 12.1533C7.60938 13.4569 8.66613 14.5136 9.96971 14.5136Z" fill="#645033"/>
<path d="M25.1943 14.541C26.4979 14.541 27.5546 13.4842 27.5546 12.1806C27.5546 10.8771 26.4979 9.82031 25.1943 9.82031C23.8907 9.82031 22.834 10.8771 22.834 12.1806C22.834 13.4842 23.8907 14.541 25.1943 14.541Z" fill="#645033"/>
</g>
<defs>
<clipPath id="clip0_678_16882">
<rect width="35.1304" height="35.1304" fill="white" transform="translate(0.191406 0.907227)"/>
</clipPath>
</defs>
</svg>
