<svg width="32" height="32" viewBox="0 0 32 32" fill="none" xmlns="http://www.w3.org/2000/svg">
<path d="M18.6673 6.3H18.5807C18.4928 6.28933 18.408 6.26128 18.3311 6.21748C18.2542 6.17369 18.1868 6.11501 18.1328 6.04489C18.0788 5.97477 18.0393 5.8946 18.0166 5.80906C17.9939 5.72352 17.9885 5.63432 18.0007 5.54667C18.0054 5.47563 18.0054 5.40437 18.0007 5.33333C18.0007 4.8029 17.7899 4.29419 17.4149 3.91912C17.0398 3.54405 16.5311 3.33333 16.0007 3.33333C15.4702 3.33333 14.9615 3.54405 14.5864 3.91912C14.2114 4.29419 14.0007 4.8029 14.0007 5.33333C13.9959 5.40437 13.9959 5.47563 14.0007 5.54667C14.012 5.63421 14.0061 5.72315 13.9831 5.80839C13.9601 5.89363 13.9205 5.9735 13.8667 6.04346C13.8128 6.11341 13.7457 6.17207 13.6692 6.21609C13.5927 6.26011 13.5082 6.28862 13.4207 6.3C13.3331 6.31138 13.2442 6.30541 13.1589 6.28242C13.0737 6.25943 12.9938 6.21988 12.9239 6.16602C12.8539 6.11216 12.7953 6.04505 12.7512 5.96852C12.7072 5.892 12.6787 5.80755 12.6673 5.72C12.6588 5.59125 12.6588 5.46208 12.6673 5.33333C12.6673 4.44928 13.0185 3.60143 13.6436 2.97631C14.2688 2.35119 15.1166 2 16.0007 2C16.8847 2 17.7326 2.35119 18.3577 2.97631C18.9828 3.60143 19.334 4.44928 19.334 5.33333C19.3425 5.46208 19.3425 5.59125 19.334 5.72C19.3128 5.8814 19.2334 6.02948 19.1106 6.13632C18.9877 6.24316 18.8301 6.30138 18.6673 6.3ZM27.8073 8.19333L25.1407 5.52667C25.0131 5.41745 24.8491 5.36038 24.6813 5.36686C24.5135 5.37334 24.3543 5.44289 24.2356 5.56162C24.1169 5.68035 24.0473 5.83951 24.0408 6.0073C24.0344 6.17508 24.0914 6.33913 24.2007 6.46667L25.0607 7.33333L24.2007 8.19333C24.1309 8.2531 24.0742 8.32664 24.0342 8.40935C23.9942 8.49206 23.9717 8.58215 23.9681 8.67396C23.9646 8.76578 23.98 8.85733 24.0136 8.94288C24.0471 9.02843 24.0979 9.10613 24.1629 9.1711C24.2279 9.23607 24.3056 9.28691 24.3911 9.32043C24.4767 9.35394 24.5682 9.36941 24.66 9.36587C24.7518 9.36232 24.8419 9.33983 24.9246 9.29982C25.0073 9.2598 25.0809 9.20312 25.1407 9.13333L26.0007 8.27333L26.8607 9.13333C26.9882 9.24255 27.1522 9.29962 27.32 9.29314C27.4878 9.28666 27.647 9.21711 27.7657 9.09838C27.8844 8.97965 27.954 8.82049 27.9605 8.6527C27.9669 8.48492 27.9099 8.32087 27.8007 8.19333H27.8073ZM16.0007 8.66667C14.2866 8.66667 12.6109 9.17496 11.1857 10.1273C9.76049 11.0796 8.64966 12.4331 7.9937 14.0167C7.33774 15.6004 7.16611 17.3429 7.50052 19.0241C7.83492 20.7053 8.66034 22.2495 9.8724 23.4616C11.0845 24.6736 12.6287 25.4991 14.3099 25.8335C15.991 26.1679 17.7336 25.9962 19.3172 25.3403C20.9009 24.6843 22.2544 23.5735 23.2067 22.1483C24.159 20.723 24.6673 19.0474 24.6673 17.3333C24.6673 15.0348 23.7542 12.8304 22.1289 11.2051C20.5036 9.57976 18.2992 8.66667 16.0007 8.66667ZM22.0007 13.0867C22.1136 13.0184 22.2442 12.9851 22.376 12.9911C22.5079 12.9971 22.6349 13.0421 22.7412 13.1204C22.8474 13.1987 22.928 13.3067 22.9728 13.4308C23.0176 13.555 23.0245 13.6896 22.9927 13.8177C22.961 13.9457 22.8919 14.0615 22.7943 14.1503C22.6966 14.2391 22.5749 14.2969 22.4443 14.3164C22.3138 14.3359 22.1805 14.3163 22.0611 14.26C21.9418 14.2036 21.8419 14.1132 21.774 14C21.6833 13.8487 21.6562 13.6677 21.6987 13.4965C21.7412 13.3253 21.8497 13.178 22.0007 13.0867ZM16.0007 9.33333C16.1325 9.33333 16.2614 9.37243 16.371 9.44569C16.4807 9.51894 16.5661 9.62306 16.6166 9.74488C16.667 9.86669 16.6802 10.0007 16.6545 10.1301C16.6288 10.2594 16.5653 10.3782 16.4721 10.4714C16.3788 10.5646 16.26 10.6281 16.1307 10.6539C16.0014 10.6796 15.8674 10.6664 15.7455 10.6159C15.6237 10.5655 15.5196 10.48 15.4463 10.3704C15.3731 10.2607 15.334 10.1319 15.334 10C15.334 9.82319 15.4042 9.65362 15.5293 9.5286C15.6543 9.40357 15.8238 9.33333 16.0007 9.33333ZM8.00066 17.3333C8.00066 17.2015 8.03975 17.0726 8.11301 16.963C8.18626 16.8533 8.29038 16.7679 8.4122 16.7174C8.53402 16.667 8.66806 16.6538 8.79738 16.6795C8.9267 16.7052 9.04549 16.7687 9.13873 16.8619C9.23196 16.9552 9.29546 17.074 9.32118 17.2033C9.3469 17.3326 9.3337 17.4666 9.28324 17.5885C9.23278 17.7103 9.14734 17.8144 9.0377 17.8876C8.92807 17.9609 8.79918 18 8.66732 18C8.49051 18 8.32094 17.9298 8.19592 17.8047C8.07089 17.6797 8.00066 17.5101 8.00066 17.3333ZM10.0007 21.58C9.88774 21.6483 9.7571 21.6816 9.62528 21.6756C9.49346 21.6695 9.36638 21.6246 9.26014 21.5463C9.15391 21.468 9.07329 21.36 9.02851 21.2358C8.98372 21.1117 8.97678 20.9771 9.00857 20.849C9.04035 20.7209 9.10943 20.6052 9.20706 20.5164C9.30468 20.4276 9.42646 20.3698 9.55697 20.3502C9.68748 20.3307 9.82084 20.3504 9.94018 20.4067C10.0595 20.463 10.1594 20.5535 10.2273 20.6667C10.318 20.8179 10.3451 20.999 10.3026 21.1702C10.2602 21.3413 10.1516 21.4887 10.0007 21.58ZM10.2273 14C10.1594 14.1132 10.0595 14.2036 9.94018 14.26C9.82084 14.3163 9.68748 14.3359 9.55697 14.3164C9.42646 14.2969 9.30468 14.2391 9.20706 14.1503C9.10943 14.0615 9.04035 13.9457 9.00857 13.8177C8.97678 13.6896 8.98372 13.555 9.02851 13.4308C9.07329 13.3067 9.15391 13.1987 9.26014 13.1204C9.36638 13.0421 9.49346 12.9971 9.62528 12.9911C9.7571 12.9851 9.88774 13.0184 10.0007 13.0867C10.1516 13.178 10.2602 13.3253 10.3026 13.4965C10.3451 13.6677 10.318 13.8487 10.2273 14ZM12.894 24C12.8285 24.1159 12.7297 24.2095 12.6106 24.2687C12.4914 24.328 12.3572 24.3503 12.2252 24.3326C12.0933 24.3149 11.9697 24.2582 11.8703 24.1696C11.7709 24.0811 11.7002 23.9648 11.6675 23.8358C11.6348 23.7067 11.6414 23.5709 11.6866 23.4457C11.7317 23.3204 11.8133 23.2116 11.9209 23.1332C12.0284 23.0547 12.157 23.0103 12.29 23.0056C12.4231 23.0008 12.5545 23.0361 12.6673 23.1067C12.8163 23.1945 12.9252 23.3368 12.9713 23.5035C13.0173 23.6701 12.9968 23.8482 12.914 24H12.894ZM12.6673 11.56C12.5529 11.6275 12.421 11.6592 12.2884 11.6512C12.1558 11.6432 12.0287 11.5958 11.9233 11.515C11.8178 11.4342 11.7389 11.3238 11.6966 11.1979C11.6544 11.072 11.6507 10.9363 11.686 10.8083C11.7214 10.6803 11.7942 10.5658 11.895 10.4794C11.9959 10.393 12.1203 10.3387 12.2523 10.3235C12.3842 10.3083 12.5177 10.3328 12.6356 10.3939C12.7535 10.4551 12.8504 10.5501 12.914 10.6667C12.9968 10.8185 13.0173 10.9965 12.9713 11.1632C12.9252 11.3299 12.8163 11.4722 12.6673 11.56ZM16.0007 25.3333C15.8688 25.3333 15.7399 25.2942 15.6303 25.221C15.5206 25.1477 15.4352 25.0436 15.3847 24.9218C15.3343 24.8 15.3211 24.6659 15.3468 24.5366C15.3725 24.4073 15.436 24.2885 15.5293 24.1953C15.6225 24.102 15.7413 24.0385 15.8706 24.0128C15.9999 23.9871 16.134 24.0003 16.2558 24.0507C16.3776 24.1012 16.4817 24.1867 16.555 24.2963C16.6282 24.4059 16.6673 24.5348 16.6673 24.6667C16.6673 24.8435 16.5971 25.013 16.4721 25.1381C16.347 25.2631 16.1775 25.3333 16.0007 25.3333ZM16.6673 18.48V19.3333C16.6673 19.5101 16.5971 19.6797 16.4721 19.8047C16.347 19.9298 16.1775 20 16.0007 20C15.8238 20 15.6543 19.9298 15.5293 19.8047C15.4042 19.6797 15.334 19.5101 15.334 19.3333V18.48C15.1335 18.3624 14.9672 18.1943 14.8517 17.9926C14.7362 17.7909 14.6754 17.5625 14.6754 17.33C14.6754 17.0975 14.7362 16.8691 14.8517 16.6674C14.9672 16.4657 15.1335 16.2976 15.334 16.18V12.6667C15.334 12.4899 15.4042 12.3203 15.5293 12.1953C15.6543 12.0702 15.8238 12 16.0007 12C16.1775 12 16.347 12.0702 16.4721 12.1953C16.5971 12.3203 16.6673 12.4899 16.6673 12.6667V16.1867C16.8678 16.3043 17.0341 16.4723 17.1496 16.6741C17.2651 16.8758 17.3259 17.1042 17.3259 17.3367C17.3259 17.5691 17.2651 17.7976 17.1496 17.9993C17.0341 18.201 16.8678 18.369 16.6673 18.4867V18.48ZM20.0007 24.26C19.8863 24.3237 19.7558 24.3523 19.6253 24.3422C19.4948 24.3322 19.3701 24.284 19.2669 24.2036C19.1636 24.1232 19.0863 24.0142 19.0445 23.8901C19.0028 23.7661 18.9985 23.6325 19.0321 23.506C19.0658 23.3796 19.136 23.2658 19.2338 23.1789C19.3317 23.092 19.453 23.0359 19.5826 23.0175C19.7121 22.9991 19.8443 23.0192 19.9625 23.0754C20.0807 23.1315 20.1798 23.2213 20.2473 23.3333C20.2935 23.41 20.3238 23.4951 20.3364 23.5837C20.349 23.6723 20.3436 23.7625 20.3206 23.849C20.2976 23.9355 20.2574 24.0164 20.2024 24.087C20.1475 24.1577 20.0788 24.2165 20.0007 24.26ZM20.2473 11.3333C20.1798 11.4454 20.0807 11.5351 19.9625 11.5913C19.8443 11.6475 19.7121 11.6676 19.5826 11.6492C19.453 11.6308 19.3317 11.5746 19.2338 11.4877C19.136 11.4009 19.0658 11.2871 19.0321 11.1606C18.9985 11.0342 19.0028 10.9006 19.0445 10.7765C19.0863 10.6525 19.1636 10.5435 19.2669 10.4631C19.3701 10.3827 19.4948 10.3345 19.6253 10.3244C19.7558 10.3144 19.8863 10.343 20.0007 10.4067C20.0788 10.4502 20.1475 10.509 20.2024 10.5796C20.2574 10.6502 20.2976 10.7312 20.3206 10.8177C20.3436 10.9041 20.349 10.9944 20.3364 11.083C20.3238 11.1715 20.2935 11.2567 20.2473 11.3333ZM22.914 21.3333C22.848 21.4473 22.7497 21.5391 22.6316 21.5972C22.5135 21.6554 22.3808 21.6773 22.2503 21.6601C22.1197 21.643 21.9972 21.5876 21.8981 21.5009C21.799 21.4142 21.7278 21.3001 21.6935 21.173C21.6592 21.0459 21.6633 20.9114 21.7052 20.7867C21.7472 20.6619 21.8252 20.5523 21.9293 20.4718C22.0335 20.3912 22.1592 20.3433 22.2905 20.3341C22.4218 20.3249 22.5529 20.3548 22.6673 20.42C22.7448 20.4624 22.8131 20.5198 22.8683 20.5889C22.9234 20.658 22.9642 20.7373 22.9884 20.8223C23.0126 20.9073 23.0197 20.9962 23.0092 21.0839C22.9987 21.1717 22.9709 21.2564 22.9273 21.3333H22.914ZM23.334 18C23.2021 18 23.0732 17.9609 22.9636 17.8876C22.854 17.8144 22.7685 17.7103 22.7181 17.5885C22.6676 17.4666 22.6544 17.3326 22.6801 17.2033C22.7059 17.074 22.7694 16.9552 22.8626 16.8619C22.9558 16.7687 23.0746 16.7052 23.2039 16.6795C23.3333 16.6538 23.4673 16.667 23.5891 16.7174C23.7109 16.7679 23.8151 16.8533 23.8883 16.963C23.9616 17.0726 24.0007 17.2015 24.0007 17.3333C24.0007 17.5101 23.9304 17.6797 23.8054 17.8047C23.6804 17.9298 23.5108 18 23.334 18Z" fill="#802EC0"/>
<path d="M16.0007 4.6665C13.4954 4.6665 11.0465 5.40939 8.96343 6.80122C6.88041 8.19305 5.25689 10.1713 4.29818 12.4858C3.33947 14.8004 3.08863 17.3472 3.57738 19.8043C4.06612 22.2614 5.27251 24.5184 7.04397 26.2899C8.81544 28.0613 11.0724 29.2677 13.5295 29.7565C15.9866 30.2452 18.5334 29.9944 20.848 29.0356C23.1625 28.0769 25.1408 26.4534 26.5326 24.3704C27.9244 22.2874 28.6673 19.8384 28.6673 17.3332C28.6673 13.9738 27.3328 10.7519 24.9573 8.37648C22.5819 6.00102 19.3601 4.6665 16.0007 4.6665ZM16.0007 27.3332C14.0228 27.3332 12.0894 26.7467 10.445 25.6479C8.80046 24.5491 7.51874 22.9873 6.76186 21.16C6.00498 19.3327 5.80695 17.3221 6.1928 15.3823C6.57866 13.4425 7.53106 11.6606 8.92959 10.2621C10.3281 8.86358 12.1099 7.91117 14.0498 7.52532C15.9896 7.13947 18.0002 7.3375 19.8275 8.09438C21.6548 8.85125 23.2165 10.133 24.3154 11.7775C25.4142 13.422 26.0007 15.3554 26.0007 17.3332C26.0007 19.9853 24.9471 22.5289 23.0717 24.4042C21.1964 26.2796 18.6528 27.3332 16.0007 27.3332Z" fill="#802EC0"/>
</svg>
