<svg width="120" height="120" viewBox="0 0 120 120" fill="none" xmlns="http://www.w3.org/2000/svg">
<path d="M65.3389 43.5938H68.4889C68.8862 43.5937 69.2797 43.672 69.6468 43.8241C70.0139 43.9761 70.3474 44.199 70.6284 44.48C70.9094 44.761 71.1323 45.0945 71.2843 45.4616C71.4364 45.8287 71.5146 46.2222 71.5146 46.6195V51.3281C71.5146 51.7255 71.4364 52.1189 71.2843 52.486C71.1323 52.8531 70.9094 53.1867 70.6284 53.4677C70.3474 53.7486 70.0139 53.9715 69.6468 54.1236C69.2797 54.2756 68.8862 54.3539 68.4889 54.3539H65.3389V43.5938Z" fill="#FFE3CA"/>
<path d="M29.4751 54.3652H26.3251C25.5226 54.3652 24.753 54.0464 24.1855 53.479C23.6181 52.9116 23.2993 52.1419 23.2993 51.3395V46.6309C23.2993 45.8284 23.6181 45.0588 24.1855 44.4913C24.753 43.9239 25.5226 43.6051 26.3251 43.6051H29.4751V54.3652Z" fill="#FFE3CA"/>
<path d="M1.75781 101.69L2.28516 96.2434C2.30156 96.084 2.31797 95.927 2.33672 95.7746C3.21563 88.7082 8.48906 82.9754 15.4008 81.2738L32.6086 78.1191L47.407 55.8184L62.3813 77.9668L79.4133 81.2738C86.3273 82.9754 91.6008 88.7082 92.4773 95.7746C92.4961 95.9316 92.5148 96.0887 92.5289 96.2434L93.0469 101.69C93.907 110.559 86.9766 118.242 78.1172 118.242H8.78906C6.92426 118.242 5.13583 117.501 3.81722 116.182C2.4986 114.864 1.75781 113.075 1.75781 111.211V101.69Z" fill="#802EC0"/>
<path d="M34.3311 75.5184L47.4068 55.8145L60.6092 75.3426L47.4936 87.209L34.3311 75.5184Z" fill="#FCD2B1"/>
<path d="M15.9585 118.242V103.886C15.9585 103.42 16.1437 102.973 16.4733 102.643C16.803 102.314 17.2501 102.128 17.7163 102.128C18.1825 102.128 18.6296 102.314 18.9593 102.643C19.2889 102.973 19.4741 103.42 19.4741 103.886V118.242H15.9585ZM57.7921 95.6995L67.76 83.3245C67.882 83.1727 67.9537 82.9866 67.965 82.7921C67.9764 82.5976 67.9268 82.4044 67.8233 82.2394L63.0772 74.6761C63.005 74.5604 62.9083 74.4619 62.794 74.3874C62.6798 74.313 62.5506 74.2643 62.4156 74.2449C62.2806 74.2255 62.143 74.2358 62.0123 74.275C61.8817 74.3143 61.7612 74.3816 61.6593 74.4722L47.4069 87.1285L56.4116 95.8003C56.5062 95.8898 56.6184 95.9586 56.7411 96.0023C56.8638 96.046 56.9942 96.0637 57.1241 96.0542C57.2539 96.0447 57.3804 96.0083 57.4954 95.9472C57.6104 95.8862 57.7115 95.8018 57.7921 95.6995V95.6995Z" fill="white"/>
<path d="M36.8743 95.5007L27.1876 83.4656C27.0326 83.2733 26.9424 83.0369 26.9298 82.7903C26.9171 82.5436 26.9827 82.2993 27.1172 82.0922L31.7087 75C31.8008 74.8585 31.9225 74.7386 32.0653 74.6485C32.2081 74.5584 32.3687 74.5003 32.5361 74.478C32.7035 74.4557 32.8737 74.4699 33.0351 74.5196C33.1965 74.5692 33.3452 74.6531 33.4712 74.7656L47.4212 87.1336L38.5993 95.6203C38.4815 95.7324 38.3416 95.8188 38.1886 95.8739C38.0355 95.929 37.8727 95.9516 37.7105 95.9404C37.5482 95.9292 37.3901 95.8843 37.2461 95.8086C37.1021 95.7329 36.9755 95.628 36.8743 95.5007V95.5007Z" fill="white"/>
<path d="M58.1626 41.4186L29.4751 41.1139V28.0639C29.4751 24.3467 32.6884 20.374 36.6517 20.374H64.1673C64.4781 20.374 64.7762 20.4975 64.9959 20.7173C65.2157 20.937 65.3392 21.2351 65.3392 21.5459V34.6873C65.3392 38.4045 62.1259 41.4186 58.1626 41.4186Z" fill="#FFB81E"/>
<path d="M31.8187 37.9033H62.9905C63.6121 37.9033 64.2083 38.1503 64.6478 38.5898C65.0873 39.0293 65.3343 39.6255 65.3343 40.2471V56.1002C65.3343 60.8561 63.445 65.4172 60.0821 68.7801C56.7192 72.143 52.1581 74.0322 47.4022 74.0322V74.0322C42.6464 74.0322 38.0853 72.143 34.7224 68.7801C31.3595 65.4172 29.4702 60.8561 29.4702 56.1002V40.2471C29.4702 39.9389 29.531 39.6337 29.6491 39.3491C29.7671 39.0644 29.9402 38.8058 30.1583 38.5881C30.3765 38.3704 30.6354 38.1979 30.9203 38.0804C31.2052 37.9629 31.5105 37.9027 31.8187 37.9033V37.9033Z" fill="#FFE3CA"/>
<path d="M47.4187 64.6519H47.25C45.439 64.6189 43.675 64.0709 42.164 63.0722C41.7799 62.8133 41.5135 62.4133 41.4228 61.9591C41.332 61.5049 41.4242 61.0332 41.6792 60.6466C41.9343 60.26 42.3317 59.9896 42.785 59.8944C43.2382 59.7991 43.7108 59.8866 44.1 60.1379C45.0844 60.791 46.2396 61.1394 47.421 61.1394C48.6025 61.1394 49.7577 60.791 50.7421 60.1379C50.9346 60.0029 51.1523 59.9079 51.3821 59.8585C51.612 59.8092 51.8494 59.8064 52.0804 59.8504C52.3113 59.8944 52.5311 59.9843 52.7267 60.1148C52.9223 60.2453 53.0897 60.4136 53.2191 60.6099C53.3484 60.8063 53.4371 61.0265 53.4798 61.2577C53.5225 61.4889 53.5184 61.7263 53.4678 61.9559C53.4171 62.1855 53.3209 62.4026 53.1849 62.5943C53.0488 62.7861 52.8757 62.9486 52.6757 63.0722C51.1125 64.0949 49.2867 64.6435 47.4187 64.6519V64.6519Z" fill="#FCD2B1"/>
<path d="M55.2209 49.9688C54.7547 49.9688 54.3076 49.7836 53.9779 49.4539C53.6483 49.1242 53.4631 48.6771 53.4631 48.2109V45.9375C53.4631 45.4713 53.6483 45.0242 53.9779 44.6945C54.3076 44.3649 54.7547 44.1797 55.2209 44.1797C55.6871 44.1797 56.1342 44.3649 56.4639 44.6945C56.7935 45.0242 56.9787 45.4713 56.9787 45.9375V48.2063C56.9793 48.4375 56.9343 48.6666 56.8463 48.8804C56.7582 49.0942 56.6288 49.2885 56.4655 49.4522C56.3022 49.616 56.1082 49.7459 55.8947 49.8345C55.6811 49.9231 55.4521 49.9688 55.2209 49.9688V49.9688ZM39.5928 49.9688C39.1266 49.9688 38.6795 49.7836 38.3498 49.4539C38.0202 49.1242 37.835 48.6771 37.835 48.2109V45.9375C37.835 45.4713 38.0202 45.0242 38.3498 44.6945C38.6795 44.3649 39.1266 44.1797 39.5928 44.1797C40.059 44.1797 40.5061 44.3649 40.8357 44.6945C41.1654 45.0242 41.3506 45.4713 41.3506 45.9375V48.2063C41.3512 48.4375 41.3062 48.6666 41.2181 48.8804C41.1301 49.0942 41.0007 49.2885 40.8374 49.4522C40.6741 49.616 40.4801 49.7459 40.2665 49.8345C40.053 49.9231 39.824 49.9688 39.5928 49.9688V49.9688Z" fill="#717C8B"/>
<path d="M47.4072 99.4453C48.378 99.4453 49.165 98.6583 49.165 97.6875C49.165 96.7167 48.378 95.9297 47.4072 95.9297C46.4364 95.9297 45.6494 96.7167 45.6494 97.6875C45.6494 98.6583 46.4364 99.4453 47.4072 99.4453Z" fill="white"/>
<path d="M47.4072 106.477C48.378 106.477 49.165 105.69 49.165 104.719C49.165 103.748 48.378 102.961 47.4072 102.961C46.4364 102.961 45.6494 103.748 45.6494 104.719C45.6494 105.69 46.4364 106.477 47.4072 106.477Z" fill="white"/>
<path d="M47.4072 113.508C48.378 113.508 49.165 112.721 49.165 111.75C49.165 110.779 48.378 109.992 47.4072 109.992C46.4364 109.992 45.6494 110.779 45.6494 111.75C45.6494 112.721 46.4364 113.508 47.4072 113.508Z" fill="white"/>
<path d="M114.281 68.459H78.5459C76.3583 68.459 74.585 70.2324 74.585 72.4199V114.282C74.585 116.469 76.3583 118.243 78.5459 118.243H114.281C116.469 118.243 118.242 116.469 118.242 114.282V72.4199C118.242 70.2324 116.469 68.459 114.281 68.459Z" fill="#F2F2F2"/>
<path d="M104.396 106.763L103.015 107.344C100.914 108.219 98.6597 108.669 96.3834 108.669C94.1071 108.669 91.8532 108.219 89.7518 107.344L88.3689 106.767C87.9378 106.587 87.5695 106.284 87.3101 105.895C87.0508 105.507 86.912 105.05 86.9111 104.583V94.3104H105.853V104.578C105.853 105.046 105.715 105.502 105.455 105.891C105.196 106.28 104.827 106.583 104.396 106.763ZM110.747 91.4393V98.6721C110.747 99.1383 110.562 99.5854 110.232 99.915C109.903 100.245 109.455 100.43 108.989 100.43C108.523 100.43 108.076 100.245 107.746 99.915C107.417 99.5854 107.231 99.1383 107.231 98.6721V90.9658L110.747 91.4393Z" fill="#802EC0"/>
<path d="M95.9484 99.4122L82.5 92.163C82.355 92.0849 82.2339 91.9691 82.1495 91.8278C82.0651 91.6864 82.0205 91.5249 82.0205 91.3602C82.0205 91.1956 82.0651 91.0341 82.1495 90.8927C82.2339 90.7514 82.355 90.6356 82.5 90.5575L95.9508 83.3083C96.0841 83.2367 96.233 83.1992 96.3843 83.1992C96.5357 83.1992 96.6846 83.2367 96.8179 83.3083L110.271 90.5575C110.416 90.6356 110.537 90.7514 110.622 90.8927C110.706 91.0341 110.751 91.1956 110.751 91.3602C110.751 91.5249 110.706 91.6864 110.622 91.8278C110.537 91.9691 110.416 92.0849 110.271 92.163L96.8179 99.4122C96.6843 99.4842 96.5349 99.5219 96.3832 99.5219C96.2314 99.5219 96.082 99.4842 95.9484 99.4122V99.4122Z" fill="#702BA7"/>
<path d="M100.985 62.8945H91.8447C89.7737 62.8945 88.0947 64.5735 88.0947 66.6445V71.0977C88.0947 73.1687 89.7737 74.8477 91.8447 74.8477H100.985C103.056 74.8477 104.735 73.1687 104.735 71.0977V66.6445C104.735 64.5735 103.056 62.8945 100.985 62.8945Z" fill="#03C6AE"/>
</svg>
