<svg width="133" height="133" viewBox="0 0 133 133" fill="none" xmlns="http://www.w3.org/2000/svg">
<path d="M117.446 113.677H15.5541C13.5521 113.677 11.9321 112.057 11.9321 110.055V51.8651C11.9321 45.8741 16.8059 41 22.7976 41H109.961C115.953 41 121.068 45.8741 121.068 51.8651V110.055C121.068 112.058 119.448 113.677 117.446 113.677Z" fill="#802EC0"/>
<path d="M124.69 113.676H8.3104C6.30842 113.676 4.68848 112.057 4.68848 110.054C4.68848 108.052 6.30842 106.433 8.3104 106.433H124.69C126.692 106.433 128.312 108.052 128.312 110.054C128.312 112.057 126.691 113.676 124.69 113.676Z" fill="#03C6AE"/>
<path d="M33.1891 86.62V86.5858C32.8104 87.2049 32.1909 87.9966 30.9863 87.9966C29.7477 87.9966 28.6465 86.8953 28.6465 85.7595C28.6465 85.3808 28.8187 84.8644 28.9906 84.5894L34.9444 75.0906L29.4727 66.4526C29.3005 66.1084 29.1974 65.6612 29.1974 65.2825C29.1974 64.1812 30.2644 63.1143 31.503 63.1143C32.57 63.1143 33.3959 63.8714 33.878 64.6973L37.7666 71.0982L41.6559 64.6973C42.1034 64.0433 42.8599 63.1143 44.0645 63.1143C45.2692 63.1143 46.3361 64.1124 46.3361 65.3167C46.3361 65.6609 46.1985 66.0738 46.0263 66.4526L40.5886 75.0906L46.5423 84.5894C46.7145 84.8644 46.8864 85.3808 46.8864 85.7595C46.8864 86.895 45.7506 87.9966 44.5802 87.9966C43.3756 87.9966 42.7568 87.274 42.3428 86.62L37.7656 79.0487L33.1891 86.62ZM64.5385 77.7063H60.4082C59.0666 77.7063 58.0338 76.7428 58.0338 75.5035C58.0338 74.2646 59.2042 73.3353 60.4082 73.3353H64.5385V68.8958C64.5385 67.7599 65.5709 66.693 66.9136 66.693C68.2552 66.693 69.288 67.6565 69.288 68.8958V73.3353H73.4176C74.6222 73.3353 75.7926 74.2646 75.7926 75.5035C75.7926 76.7428 74.7602 77.7063 73.4176 77.7063H69.288V82.1459C69.288 83.3851 68.2555 84.3141 66.9136 84.3141C65.5713 84.3141 64.5385 83.2475 64.5385 82.1459V77.7063ZM93.203 85.7249V78.1881L87.1459 66.3495C87.0424 66.1084 86.9394 65.6955 86.9394 65.3513C86.9394 64.1467 88.144 63.1143 89.3833 63.1143C90.1061 63.1143 90.932 63.4242 91.3443 64.1467L95.6466 72.6816L99.9139 64.1467C100.327 63.4242 101.153 63.1143 101.91 63.1143C103.149 63.1143 104.353 64.1467 104.353 65.3513C104.353 65.6612 104.216 66.0396 104.112 66.3495L98.0898 78.1881V85.7249C98.0898 86.9299 97.0234 87.9966 95.6466 87.9966C94.2697 87.9966 93.203 86.9641 93.203 85.7249Z" fill="white"/>
<path d="M48.326 110.964C46.881 111.831 45.2926 112.264 43.5583 112.264H42.8371C41.1031 112.264 39.5141 111.831 38.0697 110.964L33.4476 107.931H33.1587V122.915L43.2703 128.693L53.3817 122.915V107.931H53.0934L48.326 110.964Z" fill="#FCD2B1"/>
<path d="M59.1593 89.1516C59.1593 80.3393 52.0814 73.2617 43.2694 73.2617C34.4575 73.2617 27.3803 80.3393 27.3803 89.1516H25.9355V92.0403C25.9355 93.6293 27.236 94.9298 28.8243 94.9298V100.275C28.8243 103.308 30.4127 106.053 32.8688 107.641L38.2138 110.964C39.6585 111.831 41.2472 112.264 42.9805 112.264H43.703C45.4363 112.264 47.025 111.831 48.4701 110.964L53.815 107.641C56.4145 106.053 57.8595 103.308 57.8595 100.275V94.9298C59.4482 94.9298 60.7483 93.6293 60.7483 92.0403V89.1516H59.1593V89.1516Z" fill="#FFE3CA"/>
<path d="M31.8804 114.222L36.9397 113.53H50.6041L54.6576 114.234C54.6576 114.234 56.5313 124.396 45.6648 125.22C34.7994 126.043 31.4302 119.193 31.8804 114.222Z" fill="#FCD2B1"/>
<path d="M73.6053 129.726C60.026 133.627 26.513 133.627 12.9351 129.726L13.8009 123.225C14.0908 121.058 15.6792 119.182 17.8458 118.458L31.8806 114.222C32.1602 118.548 37.152 121.994 43.2704 121.994C49.3821 121.994 54.3689 118.555 54.6578 114.234L68.694 118.603C70.8606 119.326 72.4492 121.06 72.7385 123.37L73.6053 129.726Z" fill="#03C6AE"/>
<path d="M56.185 92.8695L54.6754 93.4481C54.5458 93.2253 54.3961 93.0125 54.2332 92.813C53.1792 91.5129 51.4635 90.665 49.5317 90.665C46.8185 90.665 44.5342 92.3375 43.8991 94.5919V94.532H42.2835C41.6281 92.3109 39.3572 90.665 36.6672 90.665C34.9419 90.665 33.3891 91.3433 32.3248 92.414C31.972 92.7698 31.6764 93.1654 31.4403 93.5944L30.3564 93.3317L27.8394 92.7199C28.0189 93.5245 28.1253 94.3059 28.1852 94.951L29.5221 95.2768L30.8688 95.6027C30.8618 95.6858 30.8588 95.7689 30.8588 95.8554C30.8588 97.1754 31.4107 98.3824 32.3251 99.2967C33.3891 100.371 34.9419 101.049 36.6676 101.049C39.3841 101.049 41.6684 99.3732 42.3001 97.1222H43.8994C44.5345 99.3732 46.8188 101.049 49.532 101.049C51.4638 101.049 53.1795 100.201 54.2335 98.9044C54.9321 98.0465 55.3408 96.9958 55.3408 95.8554C55.3408 95.7157 55.3341 95.5761 55.3208 95.4364L57.123 94.7448L58.2664 94.3059C58.3363 93.5811 58.4796 92.7432 58.7688 91.8853L56.185 92.8695ZM36.6669 98.7481C34.8584 98.7481 33.3652 97.6143 33.1793 96.1646C33.166 96.0615 33.159 95.9618 33.159 95.8554C33.159 95.2303 33.4017 94.6451 33.8174 94.1729C34.4521 93.4414 35.4932 92.9659 36.6666 92.9659C38.6017 92.9659 40.1744 94.2627 40.1744 95.8554C40.1748 97.4514 38.6024 98.7481 36.6669 98.7481ZM52.993 96.3242C52.7203 97.6974 51.274 98.7481 49.5317 98.7481C47.5965 98.7481 46.0238 97.4514 46.0238 95.8554C46.0238 94.2627 47.5962 92.9659 49.5317 92.9659C50.7652 92.9659 51.8522 93.4946 52.4773 94.2893C52.833 94.7415 53.0392 95.2801 53.0392 95.8554C53.0395 96.015 53.0229 96.1712 52.993 96.3242Z" fill="#0B4870"/>
<path d="M35.6037 92.9648H33.1592V98.7487H35.6037V92.9648Z" fill="#4D4D4D"/>
<path d="M35.7581 92.9648H35.6035V98.7487H35.7581V92.9648Z" fill="#4D4D4D"/>
<path d="M35.9124 92.9648H35.7578V98.7487H35.9124V92.9648Z" fill="#4C4C4C"/>
<path d="M36.0672 92.9648H35.9126V98.7487H36.0672V92.9648Z" fill="#4B4B4B"/>
<path d="M36.222 92.9648H36.0674V98.7487H36.222V92.9648Z" fill="#4A4A4A"/>
<path d="M36.3763 92.9648H36.2217V98.7487H36.3763V92.9648Z" fill="#494949"/>
<path d="M36.5306 92.9648H36.376V98.7487H36.5306V92.9648Z" fill="#484848"/>
<path d="M36.6854 92.9648H36.5308V98.7487H36.6854V92.9648Z" fill="#474747"/>
<path d="M36.8402 92.9648H36.6855V98.7487H36.8402V92.9648Z" fill="#464646"/>
<path d="M36.9945 92.9648H36.8398V98.7487H36.9945V92.9648Z" fill="#454545"/>
<path d="M37.1492 92.9648H36.9946V98.7487H37.1492V92.9648Z" fill="#444444"/>
<path d="M37.304 92.9648H37.1494V98.7487H37.304V92.9648Z" fill="#434343"/>
<path d="M37.4583 92.9648H37.3037V98.7487H37.4583V92.9648Z" fill="#424242"/>
<path d="M37.6126 92.9648H37.458V98.7487H37.6126V92.9648Z" fill="#414141"/>
<path d="M37.7674 92.9648H37.6128V98.7487H37.7674V92.9648Z" fill="#3F3F3F"/>
<path d="M37.9222 92.9648H37.7676V98.7487H37.9222V92.9648Z" fill="#3E3E3E"/>
<path d="M38.0765 92.9648H37.9219V98.7487H38.0765V92.9648Z" fill="#3D3D3D"/>
<path d="M38.2313 92.9648H38.0767V98.7487H38.2313V92.9648Z" fill="#3C3C3C"/>
<path d="M38.3856 92.9648H38.231V98.7487H38.3856V92.9648Z" fill="#3B3B3B"/>
<path d="M38.5399 92.9648H38.3853V98.7487H38.5399V92.9648Z" fill="#3A3A3A"/>
<path d="M38.6946 92.9648H38.54V98.7487H38.6946V92.9648Z" fill="#393939"/>
<path d="M38.8508 92.9648H38.6948V98.7487H38.8508V92.9648Z" fill="#383838"/>
<path d="M39.0039 92.9648H38.8506V98.7487H39.0039V92.9648Z" fill="#373737"/>
<path d="M39.1599 92.9648H39.0039V98.7487H39.1599V92.9648Z" fill="#363636"/>
<path d="M39.313 92.9648H39.1597V98.7487H39.313V92.9648Z" fill="#353535"/>
<path d="M39.4689 92.9648H39.313V98.7487H39.4689V92.9648Z" fill="#343434"/>
<path d="M39.622 92.9648H39.4688V98.7487H39.622V92.9648Z" fill="#333333"/>
<path d="M40.174 92.9648H39.6221V98.7487H40.174V92.9648Z" fill="#333333"/>
<path d="M52.993 96.3261C52.7203 97.6973 51.2733 98.748 49.533 98.748C47.5978 98.748 46.0248 97.4502 46.0248 95.8563C46.0248 94.2629 47.5975 92.9648 49.533 92.9648C50.7649 92.9648 51.8528 93.4935 52.4773 94.2892C52.8344 94.7401 53.0402 95.279 53.0402 95.8563C53.0405 96.0159 53.0242 96.1731 52.993 96.3261ZM40.1741 95.8563C40.1741 97.4502 38.6007 98.748 36.6659 98.748C34.8584 98.748 33.3662 97.6135 33.1793 96.1648C33.1643 96.0627 33.1587 95.9607 33.1587 95.8563C33.1587 95.2302 33.4034 94.6463 33.8177 94.1731C34.4541 93.4426 35.4925 92.9648 36.6659 92.9648C38.6007 92.9648 40.1741 94.2629 40.1741 95.8563Z" fill="#CCE9FF"/>
<path d="M53.0406 95.8563C53.0406 96.0155 53.0244 96.1731 52.9931 96.3261C52.7205 97.6973 51.2734 98.748 49.5331 98.748C47.598 98.748 46.0249 97.4502 46.0249 95.8563C46.0249 94.2629 47.5976 92.9648 49.5331 92.9648C50.765 92.9648 51.853 93.4935 52.4774 94.2892C52.8345 94.7404 53.0406 95.279 53.0406 95.8563Z" fill="#CCE9FF"/>
<path d="M60.418 89.0055C59.6167 89.8899 59.0976 90.9007 58.7688 91.8849C58.4795 92.7428 58.3362 93.5807 58.2664 94.3055C58.147 95.599 58.27 96.5233 58.27 96.5233L57.1229 94.7444L56.5177 93.8035C56.3349 93.5208 56.2218 93.2016 56.1852 92.8691C56.1819 92.8326 56.1819 92.7927 56.1786 92.7561C56.0918 90.9273 55.5631 85.0454 52.2351 83.1003C51.8125 82.8509 51.344 82.668 50.8253 82.565L49.8179 75.4495C51.4707 74.8343 52.8672 74.6747 54.0506 74.8476C61.1096 75.9017 60.418 89.0055 60.418 89.0055Z" fill="#FFB81E"/>
<path d="M52.2351 83.1004C50.4825 84.1079 47.8427 84.7131 44.0489 84.7131C40.6907 84.7131 37.4022 83.5693 33.645 85.7837C30.6259 87.5626 30.3167 91.4595 30.3566 93.3315C30.3699 93.9732 30.4231 94.3755 30.4231 94.3755L28.2751 96.5234C28.2751 96.5234 28.2751 95.8817 28.185 94.9507C28.1252 94.3057 28.0188 93.5243 27.8392 92.7197C27.5366 91.3365 27.0149 89.8934 26.1268 89.0056C26.1268 89.0056 24.7839 79.9117 31.9659 74.6117C35.2177 71.2435 43.3074 70.7514 43.3074 70.7514C49.1461 70.6516 52.4977 72.8129 54.0505 74.8478C54.7155 75.7123 55.0547 76.5568 55.1212 77.1952C55.3739 79.5793 54.6387 81.7205 52.2351 83.1004Z" fill="#FFB81E"/>
</svg>
