<svg width="11" height="11" viewBox="0 0 11 11" fill="none" xmlns="http://www.w3.org/2000/svg">
<path d="M10.2625 2.7392C9.77068 1.89659 9.10353 1.22945 8.2609 0.737633C7.41812 0.245844 6.4981 0 5.50015 0C4.5023 0 3.58201 0.245844 2.73938 0.737633C1.89669 1.22937 1.22955 1.89652 0.737708 2.7392C0.245844 3.58193 0 4.50223 0 5.5C0 6.49782 0.245919 7.41797 0.737633 8.26075C1.22945 9.10336 1.89659 9.7705 2.73928 10.2624C3.58201 10.7541 4.50223 11 5.50005 11C6.49788 11 7.41819 10.7541 8.26087 10.2624C9.10351 9.77068 9.77063 9.10336 10.2624 8.26075C10.7541 7.41804 11 6.49777 11 5.5C11 4.50213 10.7541 3.58181 10.2625 2.7392ZM8.87311 7.45504C8.5246 8.0518 8.05198 8.5246 7.45521 8.87311C6.85845 9.22162 6.20678 9.3957 5.50008 9.3957C4.79355 9.3957 4.14183 9.22162 3.54499 8.87311C2.94822 8.52458 2.4756 8.0518 2.12709 7.45504C1.7785 6.85828 1.60427 6.20658 1.60427 5.5C1.60427 4.79337 1.77858 4.14167 2.12709 3.54491C2.47552 2.94815 2.94827 2.47542 3.54499 2.12694C4.14175 1.7784 4.79345 1.60419 5.50008 1.60419C6.20676 1.60419 6.85845 1.7784 7.45521 2.12694C8.05198 2.47545 8.52463 2.94815 8.87311 3.54491C9.22165 4.14167 9.39581 4.79337 9.39581 5.5C9.39581 6.20658 9.22165 6.85828 8.87311 7.45504Z" fill="white"/>
<path d="M6.18782 2.75H5.72944C5.66249 2.75 5.60771 2.77155 5.56464 2.81446C5.52185 2.85743 5.5003 2.91229 5.5003 2.97914V5.50004H3.89613C3.82923 5.50004 3.7744 5.52148 3.73141 5.56435C3.68846 5.6073 3.66699 5.6622 3.66699 5.72918V6.18748C3.66699 6.25435 3.68846 6.30928 3.73141 6.3522C3.77443 6.39512 3.82936 6.41657 3.89613 6.41657H6.18794C6.25471 6.41657 6.30967 6.39512 6.35251 6.3522C6.39543 6.30928 6.41705 6.25435 6.41705 6.18748V2.97914C6.41705 2.91234 6.39543 2.85751 6.35251 2.81446C6.30962 2.77155 6.25469 2.75 6.18782 2.75Z" fill="white"/>
</svg>
