<svg width="28" height="28" viewBox="0 0 28 28" fill="none" xmlns="http://www.w3.org/2000/svg">
<g clip-path="url(#clip0_799_31900)">
<g style="mix-blend-mode:multiply">
<path d="M5.73333 27.5719C8.13282 27.5719 10.078 25.6267 10.078 23.2272C10.078 20.8277 8.13282 18.8826 5.73333 18.8826C3.33384 18.8826 1.38867 20.8277 1.38867 23.2272C1.38867 25.6267 3.33384 27.5719 5.73333 27.5719Z" fill="#03C6AE"/>
</g>
<g style="mix-blend-mode:multiply">
<path d="M4.80204 15.5044C4.13641 16.5883 3.63719 17.7445 3.34055 18.9802C3.10902 19.9412 3.02944 20.9095 3.18138 21.8923C3.26096 22.5571 3.44907 23.1929 3.73848 23.7927C4.36069 25.0573 5.28679 26.0545 6.48781 26.7915C7.86971 27.6442 9.34567 28.1139 11.0025 28.0778C13.4624 28.0344 15.9224 28.0633 18.3823 28.0705C18.7079 28.0705 19.0335 28.0489 19.3518 27.9838C21.3704 27.5503 23.0489 26.582 24.3078 24.9272C25.0169 23.995 25.5016 22.9617 25.6246 21.7839C25.7693 21.0757 25.6825 20.3676 25.5957 19.6739C25.5089 18.9802 25.2918 18.3154 25.053 17.6578C24.6551 16.5378 24.0763 15.5261 23.4324 14.5434C23.3962 14.4783 23.3673 14.4133 23.3239 14.3555C21.6743 11.9203 19.634 9.84644 17.4417 7.89541C17.4128 7.84482 17.3694 7.82315 17.3187 7.79424C16.8702 7.51243 16.8268 7.38958 17.0076 6.91266C17.3115 6.12503 17.8831 5.54694 18.5198 5.01944C19.3156 4.36187 20.2055 3.88495 21.175 3.51642C21.696 3.32132 21.9564 2.69265 21.4789 2.19406C20.7482 1.44255 19.88 0.871689 18.8743 0.539291C18.6283 0.459805 18.3823 0.39477 18.1363 0.32251C17.8107 0.32251 17.4851 0.32251 17.1596 0.32251C17.0149 0.423674 16.8412 0.416448 16.6748 0.459805C15.9079 0.676586 15.2278 1.05234 14.5983 1.52926C14.4609 1.63042 14.3741 1.6521 14.2294 1.54371C13.4624 0.965628 12.6232 0.510387 11.6537 0.35864C11.6392 0.35864 11.632 0.336962 11.6175 0.32251C11.2919 0.32251 10.9663 0.32251 10.6408 0.32251C10.619 0.336962 10.6046 0.365866 10.5829 0.373092C9.33843 0.604326 8.32552 1.25467 7.42114 2.10012C6.8351 2.6493 6.98704 3.27796 7.73948 3.58146C8.71622 3.97889 9.64231 4.48471 10.4526 5.16396C11.0821 5.69146 11.6103 6.29845 11.8635 7.10054C11.9214 7.29564 11.9069 7.44017 11.726 7.57023C11.5668 7.68585 11.4294 7.8376 11.2847 7.96767C9.62061 9.43455 8.05783 11.0098 6.66869 12.7441C5.99582 13.6184 5.33744 14.5217 4.80204 15.5044Z" fill="#802EC0"/>
</g>
<g style="mix-blend-mode:multiply">
<path d="M16.5164 22.3232C15.8865 21.5834 15.5449 20.724 15.4702 19.7448C15.3955 18.7439 16.2388 18.0586 17.1143 18.4067C17.5199 18.5699 17.8189 18.8854 17.8189 19.3097C17.8402 20.3758 18.4487 20.996 19.2815 21.4529C20.253 21.986 20.2636 21.9751 20.253 20.8545C20.253 19.6904 20.2423 18.5155 20.253 17.3514C20.253 17.0685 20.1782 16.9706 19.89 16.9053C18.1819 16.5028 16.762 15.6651 15.8972 14.0332C15.7051 13.6633 15.5769 13.2608 15.4915 12.8474C15.1713 10.9979 16.0574 9.65975 17.3598 8.5827C18.0858 7.98434 18.9932 7.6362 19.922 7.46213C20.1782 7.41862 20.2423 7.29894 20.2423 7.0596C20.2423 6.62443 20.1889 6.18926 20.285 5.76496C20.4238 5.18836 20.9576 4.79671 21.5554 4.85111C22.1319 4.9055 22.6016 5.37331 22.6337 5.97167C22.655 6.45036 22.655 6.91817 22.6657 7.39686V7.42949H22.6977C23.6265 7.64708 24.5233 7.90818 25.324 8.46303C26.4129 9.2137 27.1282 10.2363 27.4271 11.5527C27.4378 11.7377 27.4485 11.9335 27.4485 12.1185C27.4485 12.7603 27.1495 13.1955 26.5837 13.3696C26.0606 13.5328 25.5589 13.3261 25.2172 12.8147C25.1852 12.7712 25.1638 12.7277 25.1318 12.6842C25.0251 12.1837 25.0571 11.6507 24.7368 11.2155C24.2564 10.5627 23.6052 10.2037 22.8685 9.97525C22.6977 9.92085 22.655 9.97525 22.655 10.1384C22.6657 10.9979 22.6657 11.8465 22.6764 12.7059C22.6657 13.3043 22.6657 13.9027 22.655 14.501C22.6444 14.7621 22.7938 14.7948 22.9966 14.8383C24.3952 15.1211 25.5802 15.8065 26.4983 16.9271C27.7688 18.4937 27.726 20.4846 26.6691 21.986C26.6264 22.0512 26.5837 22.1165 26.541 22.1927C25.5802 23.3241 24.3738 24.0095 22.9433 24.2924C22.7084 24.3359 22.6444 24.4556 22.655 24.684C22.6657 25.0104 22.6657 25.3368 22.655 25.6632C22.6444 26.3703 22.1533 26.8925 21.4914 26.9034C20.8508 26.9143 20.3063 26.3921 20.2636 25.7067C20.2423 25.3368 20.253 24.9778 20.2636 24.6079C20.2636 24.4229 20.1889 24.3359 20.0181 24.3033C18.6516 24.0095 17.4772 23.3568 16.5164 22.3232ZM22.6657 19.5164C22.6657 20.1909 22.6657 20.8763 22.655 21.5508C22.655 21.7575 22.6871 21.8445 22.9219 21.7684C23.4877 21.5834 24.0109 21.3223 24.4379 20.9089C25.2386 20.1256 25.2813 19.103 24.5233 18.2761C24.0749 17.7866 23.5091 17.5037 22.8899 17.3079C22.6443 17.2317 22.655 17.3732 22.655 17.5255C22.6657 18.1891 22.6657 18.8527 22.6657 19.5164ZM20.2423 9.90997C19.4309 10.1384 18.7263 10.4866 18.2246 11.172C17.8082 11.7268 17.7762 12.3143 18.0537 12.9235C18.4808 13.8591 19.3028 14.229 20.2423 14.4684C20.2423 12.9453 20.2423 11.4439 20.2423 9.90997Z" fill="#FFB81E"/>
</g>
</g>
<defs>
<clipPath id="clip0_799_31900">
<rect width="27.7572" height="27.7572" fill="white"/>
</clipPath>
</defs>
</svg>
