<svg width="34" height="34" viewBox="0 0 34 34" fill="none" xmlns="http://www.w3.org/2000/svg">
<rect width="34" height="34" rx="5" fill="#B3BBFF"/>
<path d="M23.5829 10.7188C23.5829 9.76939 22.8135 9 21.8643 9H14.6767C13.7274 9 12.958 9.76939 12.958 10.7188V19.1563C12.958 20.1056 13.7274 20.875 14.6767 20.875H21.8643C22.8135 20.875 23.5829 20.1056 23.5829 19.1563V10.7188ZM20.6142 18.0625H15.9267C15.668 18.0625 15.458 17.8525 15.458 17.5937C15.458 17.335 15.668 17.125 15.9267 17.125H20.6142C20.873 17.125 21.083 17.335 21.083 17.5937C21.083 17.8525 20.873 18.0625 20.6142 18.0625ZM20.6142 16.1875H15.9267C15.668 16.1875 15.458 15.9775 15.458 15.7187C15.458 15.46 15.668 15.25 15.9267 15.25H20.6142C20.873 15.25 21.083 15.46 21.083 15.7187C21.083 15.9775 20.873 16.1875 20.6142 16.1875ZM20.6142 14.3125H15.9267C15.668 14.3125 15.458 14.1025 15.458 13.8437C15.458 13.585 15.668 13.375 15.9267 13.375H20.6142C20.873 13.375 21.083 13.585 21.083 13.8437C21.083 14.1025 20.873 14.3125 20.6142 14.3125Z" fill="url(#paint0_linear_1222_10916)"/>
<path d="M14.6767 21.8125C13.2118 21.8125 12.0205 20.6207 12.0205 19.1563V10.7188C12.0205 10.665 12.033 10.615 12.0361 10.5625H11.5518C10.6037 10.5625 9.83301 11.3331 9.83301 12.2813V22.2813C9.83301 23.2294 10.6037 24 11.5518 24H19.0518C19.9999 24 20.7705 23.2294 20.7705 22.2813V21.8125H14.6767Z" fill="#7E8CFF"/>
<defs>
<linearGradient id="paint0_linear_1222_10916" x1="14.2447" y1="20.9118" x2="25.2741" y2="7.67647" gradientUnits="userSpaceOnUse">
<stop offset="0.263154" stop-color="white"/>
<stop offset="0.749539" stop-color="white" stop-opacity="0.84039"/>
<stop offset="1" stop-color="white" stop-opacity="0.61"/>
</linearGradient>
</defs>
</svg>
