<svg width="85" height="74" viewBox="0 0 85 74" fill="none" xmlns="http://www.w3.org/2000/svg">
<circle cx="34.2383" cy="34" r="34" fill="#F9F2FF"/>
<path d="M29.1659 34.5117H77.9613C79.4631 34.5117 80.6039 35.7222 80.6721 37.2226V67.0419V69.7528H26.4551V67.0419V37.2226C26.4551 35.7208 27.6641 34.5117 29.1659 34.5117Z" fill="#802EC0"/>
<path d="M77.9614 37.2227H29.166V67.0421H77.9614V37.2227Z" fill="#03A9F4"/>
<path d="M84.7383 69.7529C84.7383 71.973 82.951 73.7603 80.7309 73.7603H26.396C24.1759 73.7603 22.3887 71.973 22.3887 69.7529H84.7383Z" fill="#802EC0"/>
<path d="M58.985 69.7529C58.985 70.5038 58.3805 71.1084 57.6296 71.1084H49.497C48.7461 71.1084 48.1416 70.5038 48.1416 69.7529C50.8525 69.7529 56.2742 69.7529 58.985 69.7529Z" fill="#5B2287"/>
<path d="M77.9614 37.2227H29.166V67.0421H77.9614V37.2227Z" fill="#03C6AE"/>
<g style="mix-blend-mode:multiply">
<path d="M52 61C50.0222 61 48.0888 60.4135 46.4443 59.3147C44.7998 58.2159 43.5181 56.6541 42.7612 54.8268C42.0043 52.9996 41.8063 50.9889 42.1922 49.0491C42.578 47.1093 43.5304 45.3275 44.9289 43.9289C46.3275 42.5304 48.1093 41.578 50.0491 41.1922C51.9889 40.8063 53.9996 41.0043 55.8268 41.7612C57.6541 42.5181 59.2159 43.7998 60.3147 45.4443C61.4135 47.0888 62 49.0222 62 51C61.9971 53.6513 60.9426 56.1931 59.0679 58.0679C57.1931 59.9426 54.6513 60.9971 52 61Z" fill="#802EC0"/>
</g>
<path d="M56.607 50.1619L50.546 46.2159C50.3951 46.1176 50.2204 46.0618 50.0404 46.0545C49.8604 46.0472 49.6818 46.0887 49.5235 46.1746C49.3651 46.2604 49.2329 46.3874 49.1407 46.5422C49.0486 46.697 49 46.8738 49 47.0539V54.9999C48.9998 55.1805 49.0485 55.3577 49.141 55.5129C49.2334 55.668 49.3661 55.7952 49.525 55.8809C49.6842 55.9668 49.8637 56.0078 50.0444 55.9997C50.225 55.9916 50.4001 55.9347 50.551 55.8349L56.612 51.8399C56.7506 51.7486 56.8642 51.6241 56.9427 51.4778C57.0212 51.3316 57.062 51.1681 57.0615 51.0021C57.061 50.8361 57.0192 50.6728 56.9399 50.527C56.8605 50.3812 56.7461 50.2575 56.607 50.1669V50.1619Z" fill="#FFB81E"/>
<path d="M22.9716 41H19M24.9797 33.4942L20.9796 29.7374L24.9797 33.4942ZM31 29.7299V26V29.7299Z" stroke="#FFB81E" stroke-linecap="round" stroke-linejoin="round"/>
<path d="M20.4629 63.0381L22.3798 64.9551M20.4629 64.9551L22.3798 63.0381L20.4629 64.9551Z" stroke="#FFB81E" stroke-linecap="round" stroke-linejoin="round"/>
<path d="M35.2549 28.3554H37.9657M36.6103 29.7109L36.6103 27L36.6103 29.7109Z" stroke="#FFB81E" stroke-linecap="round" stroke-linejoin="round"/>
<path d="M20.3554 45.9765C21.104 45.9765 21.7109 45.3696 21.7109 44.6211C21.7109 43.8725 21.104 43.2656 20.3554 43.2656C19.6068 43.2656 19 43.8725 19 44.6211C19 45.3696 19.6068 45.9765 20.3554 45.9765Z" stroke="#FFB81E" stroke-linecap="round" stroke-linejoin="round"/>
</svg>
