<svg width="69" height="76" viewBox="0 0 69 76" fill="none" xmlns="http://www.w3.org/2000/svg">
<circle cx="34.0566" cy="34" r="34" fill="#F9F2FF"/>
<path d="M23.4097 55.5C22.6384 55.5 22.2184 55.18 22.0009 54.9112C21.7872 54.6475 21.5659 54.18 21.7197 53.455L25.1297 37.5725L22.9872 37.6938H22.9709C22.3259 37.6938 21.8559 37.485 21.5622 37.1213C21.2884 36.7812 21.1897 36.345 21.2859 35.895C21.4747 35.0187 22.3897 34.2887 23.3709 34.2337L28.3809 33.95C28.4772 33.9438 28.5672 33.94 28.6509 33.94C28.8347 33.94 29.3209 33.94 29.6309 34.3237C29.9459 34.7138 29.8384 35.21 29.8034 35.3725L25.8984 53.5675C25.6647 54.6725 24.7497 55.4288 23.5659 55.495L23.4097 55.5Z" fill="#802EC0"/>
<path d="M41.1063 35.8175L40.935 35.8225C38.51 35.9612 36.4913 38.7025 35.535 43.155C34.9388 45.94 35.06 48.0287 35.8763 49.0387C36.2475 49.4987 36.7725 49.7312 37.4375 49.7312L37.6125 49.7262C40.0375 49.59 42.055 46.85 43.01 42.3975C43.6088 39.6112 43.4888 37.5212 42.6725 36.5125C42.3013 36.0512 41.7738 35.8175 41.1063 35.8175ZM36.8388 53C35.04 53 33.545 52.3262 32.515 51.0512C31.0613 49.2538 30.6813 46.4875 31.4175 43.0562C32.7075 37.0413 36.6775 32.8225 41.295 32.5625C43.2825 32.45 44.9275 33.1275 46.0363 34.4987C47.49 36.2975 47.87 39.0625 47.1338 42.495C45.8438 48.5075 41.8725 52.725 37.2538 52.9875C37.1138 52.9962 36.975 53 36.8388 53Z" fill="#802EC0"/>
<path d="M59.8582 33.7671L59.6882 33.7721C57.2632 33.9109 55.2445 36.6521 54.2882 41.1034C53.6907 43.8884 53.812 45.9796 54.6282 46.9884C54.9995 47.4484 55.527 47.6821 56.192 47.6821L56.367 47.6771C58.7907 47.5409 60.8095 44.8009 61.7645 40.3471C62.3645 37.5634 62.2432 35.4734 61.4282 34.4634C61.0545 34.0009 60.527 33.7671 59.8582 33.7671ZM55.5945 50.9521C53.7945 50.9521 52.2982 50.2771 51.267 49.0009C49.8132 47.2021 49.4332 44.4371 50.1695 41.0059C51.4607 34.9896 55.4307 30.7721 60.0482 30.5121C62.052 30.3996 63.6782 31.0784 64.7857 32.4484C66.2395 34.2484 66.6195 37.0134 65.8832 40.4446C64.5945 46.4559 60.6257 50.6734 56.0057 50.9396C55.867 50.9496 55.7295 50.9521 55.5945 50.9521Z" fill="#802EC0"/>
<path d="M34.9993 73.001C33.9868 73.001 33.0343 72.381 32.658 71.3772C32.173 70.0847 32.828 68.6447 34.1205 68.1585C34.543 68.001 44.6205 64.2735 59.7905 63.0085C61.168 62.8885 62.3755 63.916 62.4905 65.2922C62.6043 66.6685 61.5818 67.876 60.2068 67.991C45.7193 69.1985 35.973 72.8047 35.8768 72.841C35.588 72.9485 35.2905 73.001 34.9993 73.001Z" fill="#802EC0"/>
<path d="M23.752 65.5C22.747 65.5 21.7995 64.89 21.417 63.8963C20.922 62.6075 21.5645 61.1613 22.8533 60.6675C23.5308 60.4062 39.747 54.26 63.6183 53.0037C65.0095 52.9175 66.1745 53.99 66.247 55.3688C66.3195 56.7475 65.2608 57.9238 63.882 57.9963C40.8533 59.2088 24.8058 65.2725 24.6458 65.3337C24.352 65.4463 24.0495 65.5 23.752 65.5Z" fill="#802EC0"/>
</svg>
