<svg width="83" height="69" viewBox="0 0 83 69" fill="none" xmlns="http://www.w3.org/2000/svg">
<circle cx="34.2383" cy="34" r="34" fill="#F9F2FF"/>
<path d="M59.029 51.3922C57.9504 52.5533 56.7208 53.6019 55.37 54.5136C51.6391 57.0412 46.9702 58.5414 41.9008 58.5414C38.3613 58.5414 35.0169 57.8107 32.0535 56.5091C27.8519 60.7898 21.1399 60.4 21.1399 60.4L26.4167 52.9731C22.3203 49.439 19.7803 44.5155 19.7803 39.0665C19.7803 34.2202 21.7897 29.7883 25.115 26.3805C26.2918 25.1756 27.634 24.097 29.1094 23.1748C28.2135 25.4302 27.7253 27.8542 27.7253 30.3784C27.7253 42.4127 38.8056 52.1669 52.4718 52.1669C54.7429 52.1669 56.9404 51.8981 59.029 51.3922Z" fill="#03C6AE"/>
<path d="M64.0213 39.0667C64.0213 43.7444 62.1505 48.0358 59.0293 51.3925C56.9407 51.8985 54.7432 52.1672 52.4721 52.1672C38.8059 52.1672 27.7256 42.413 27.7256 30.3787C27.7256 27.8547 28.2138 25.4306 29.1097 23.1751C32.7212 20.9197 37.1337 19.5918 41.9009 19.5918C54.1177 19.5916 64.0213 28.3094 64.0213 39.0667Z" fill="url(#paint0_linear_1277_19546)"/>
<g style="mix-blend-mode:multiply">
<path d="M69.7968 45.9371L75.7008 54.2473C75.7008 54.2473 68.1896 54.6828 63.4909 49.8946C62.0752 50.5145 60.582 51.0187 59.0293 51.3929C56.9407 51.8988 54.7432 52.1676 52.4721 52.1676C38.8059 52.1676 27.7256 42.4134 27.7256 30.3791C27.7256 27.8551 28.2138 25.431 29.1097 23.1755C32.4874 14.6808 41.6726 8.59082 52.4719 8.59082C66.1394 8.59082 77.22 18.3433 77.22 30.3791C77.22 36.4746 74.3796 41.9832 69.7968 45.9371Z" fill="#802EC0"/>
</g>
<path d="M43.2328 35.243C45.1887 35.243 46.7743 33.6575 46.7743 31.7016C46.7743 29.7457 45.1887 28.1602 43.2328 28.1602C41.277 28.1602 39.6914 29.7457 39.6914 31.7016C39.6914 33.6575 41.277 35.243 43.2328 35.243Z" fill="#FFB81E"/>
<path d="M52.8237 35.243C54.7795 35.243 56.3651 33.6575 56.3651 31.7016C56.3651 29.7457 54.7795 28.1602 52.8237 28.1602C50.8678 28.1602 49.2822 29.7457 49.2822 31.7016C49.2822 33.6575 50.8678 35.243 52.8237 35.243Z" fill="#FFB81E"/>
<path d="M62.4154 35.243C64.3713 35.243 65.9569 33.6575 65.9569 31.7016C65.9569 29.7457 64.3713 28.1602 62.4154 28.1602C60.4596 28.1602 58.874 29.7457 58.874 31.7016C58.874 33.6575 60.4596 35.243 62.4154 35.243Z" fill="#FFB81E"/>
<defs>
<linearGradient id="paint0_linear_1277_19546" x1="45.8734" y1="19.5916" x2="45.8734" y2="52.167" gradientUnits="userSpaceOnUse">
<stop offset="0.394" stop-color="#80E8BE"/>
<stop offset="1" stop-color="#00C278"/>
</linearGradient>
</defs>
</svg>
