<svg width="90" height="75" viewBox="0 0 90 75" fill="none" xmlns="http://www.w3.org/2000/svg">
<circle cx="34.418" cy="34" r="34" fill="#F9F2FF"/>
<g style="mix-blend-mode:multiply">
<path d="M30.5 71C36.299 71 41 66.299 41 60.5C41 54.701 36.299 50 30.5 50C24.701 50 20 54.701 20 60.5C20 66.299 24.701 71 30.5 71Z" fill="#03C6AE"/>
</g>
<g style="mix-blend-mode:multiply">
<path d="M31.4135 14.979C31.227 14.9739 31.0414 15.0063 30.8676 15.0741C30.6938 15.142 30.5354 15.244 30.4017 15.3741C30.268 15.5043 30.1618 15.6599 30.0893 15.8317C30.0168 16.0036 29.9794 16.1883 29.9795 16.3749V66.6249C29.9795 66.9951 30.1266 67.3501 30.3883 67.6119C30.6501 67.8736 31.0051 68.0207 31.3753 68.0207H81.6253C81.9955 68.0207 82.3506 67.8736 82.6123 67.6119C82.8741 67.3501 83.0212 66.9951 83.0212 66.6249C83.0212 66.2547 82.8741 65.8996 82.6123 65.6379C82.3506 65.3761 81.9955 65.229 81.6253 65.229H32.7712V16.3749C32.7713 16.0112 32.6295 15.6618 32.3759 15.4011C32.1223 15.1404 31.777 14.989 31.4135 14.979Z" fill="#802EC0"/>
</g>
<g style="mix-blend-mode:multiply">
<path d="M39.7503 28.9375C39.3801 28.9375 39.0251 29.0846 38.7633 29.3463C38.5016 29.6081 38.3545 29.9631 38.3545 30.3333V58.25C38.3545 58.6202 38.5016 58.9752 38.7633 59.237C39.0251 59.4988 39.3801 59.6458 39.7503 59.6458H48.1253C48.4955 59.6458 48.8506 59.4988 49.1123 59.237C49.3741 58.9752 49.5212 58.6202 49.5212 58.25V30.3333C49.5212 29.9631 49.3741 29.6081 49.1123 29.3463C48.8506 29.0846 48.4955 28.9375 48.1253 28.9375H39.7503Z" fill="#FFB81E"/>
</g>
<path d="M41.1455 31.7295H46.7288V56.8545H41.1455V31.7295Z" fill="#FFB81E"/>
<path d="M67.6663 34.5205C67.2961 34.5205 66.9411 34.6676 66.6793 34.9293C66.4176 35.1911 66.2705 35.5461 66.2705 35.9163V58.2497C66.2705 58.6199 66.4176 58.9749 66.6793 59.2367C66.9411 59.4984 67.2961 59.6455 67.6663 59.6455H76.0413C76.4115 59.6455 76.7666 59.4984 77.0283 59.2367C77.2901 58.9749 77.4372 58.6199 77.4372 58.2497V35.9163C77.4372 35.5461 77.2901 35.1911 77.0283 34.9293C76.7666 34.6676 76.4115 34.5205 76.0413 34.5205H67.6663Z" fill="#802EC0"/>
<path d="M69.0625 37.3125H74.6458V56.8542H69.0625V37.3125Z" fill="#802EC0"/>
<path d="M53.7083 40.1045C53.3381 40.1045 52.9831 40.2516 52.7213 40.5133C52.4596 40.7751 52.3125 41.1301 52.3125 41.5003V58.2503C52.3125 58.6205 52.4596 58.9756 52.7213 59.2373C52.9831 59.4991 53.3381 59.6462 53.7083 59.6462H62.0833C62.4535 59.6462 62.8086 59.4991 63.0703 59.2373C63.3321 58.9756 63.4792 58.6205 63.4792 58.2503V41.5003C63.4792 41.1301 63.3321 40.7751 63.0703 40.5133C62.8086 40.2516 62.4535 40.1045 62.0833 40.1045H53.7083Z" fill="#03C6AE"/>
<path d="M55.1045 42.8955H60.6878V56.8538H55.1045V42.8955Z" fill="#03C6AE"/>
</svg>
