<svg width="79" height="86" viewBox="0 0 79 86" fill="none" xmlns="http://www.w3.org/2000/svg">
<circle cx="34.418" cy="34" r="34" fill="#F9F2FF"/>
<g style="mix-blend-mode:multiply">
<path d="M59.8371 46.1631L47.0116 85.059L38.3337 76.3786L28.6389 86.0002L20 77.3613L29.6216 67.6665L20.9412 58.9886L59.8371 46.1631Z" fill="#7329AC"/>
</g>
<g style="mix-blend-mode:multiply">
<path d="M25.6176 74.2351C33.1383 74.2351 39.2351 68.1383 39.2351 60.6176C39.2351 53.0968 33.1383 47 25.6176 47C18.0968 47 12 53.0968 12 60.6176C12 68.1383 18.0968 74.2351 25.6176 74.2351Z" fill="#03C6AE"/>
</g>
<path d="M64.7558 41.2439C64.937 41.425 65.152 41.5687 65.3887 41.6668C65.6254 41.7648 65.879 41.8152 66.1352 41.8152C66.3914 41.8152 66.645 41.7648 66.8817 41.6668C67.1184 41.5687 67.3334 41.425 67.5146 41.2439L72.1912 36.5672C72.5571 36.2014 72.7626 35.7052 72.7626 35.1878C72.7626 34.6705 72.5571 34.1743 72.1912 33.8085C71.8254 33.4427 71.3292 33.2371 70.8119 33.2371C70.2945 33.2371 69.7984 33.4427 69.4325 33.8085L64.7558 38.4852C64.5747 38.6663 64.431 38.8814 64.333 39.118C64.2349 39.3547 64.1845 39.6084 64.1845 39.8645C64.1845 40.1207 64.2349 40.3744 64.333 40.611C64.431 40.8477 64.5747 41.0627 64.7558 41.2439ZM67.5146 59.2449C67.1487 58.8791 66.6526 58.6736 66.1352 58.6736C65.6178 58.6736 65.1217 58.8791 64.7558 59.2449C64.39 59.6108 64.1845 60.1069 64.1845 60.6243C64.1845 61.1417 64.39 61.6378 64.7558 62.0037L69.4325 66.6803C69.7984 67.0462 70.2945 67.2517 70.8119 67.2517C71.3292 67.2517 71.8254 67.0462 72.1912 66.6803C72.5571 66.3145 72.7626 65.8183 72.7626 65.301C72.7626 64.7836 72.5571 64.2875 72.1912 63.9216L67.5146 59.2449ZM43.9961 41.2439C44.1772 41.425 44.3923 41.5687 44.6289 41.6667C44.8656 41.7648 45.1193 41.8152 45.3754 41.8152C45.6316 41.8152 45.8853 41.7648 46.1219 41.6667C46.3586 41.5687 46.5736 41.425 46.7548 41.2439C46.9359 41.0627 47.0796 40.8477 47.1776 40.611C47.2757 40.3744 47.3261 40.1207 47.3261 39.8645C47.3261 39.6084 47.2757 39.3547 47.1776 39.118C47.0796 38.8814 46.9359 38.6663 46.7548 38.4852L42.0781 33.8085C41.7123 33.4427 41.2161 33.2371 40.6987 33.2371C40.1814 33.2371 39.6852 33.4427 39.3194 33.8085C38.9536 34.1743 38.748 34.6705 38.748 35.1878C38.748 35.7052 38.9536 36.2014 39.3194 36.5672L43.9961 41.2439ZM57.6036 35.5658V28.9506C57.6036 28.4333 57.398 27.9371 57.0322 27.5713C56.6664 27.2055 56.1702 27 55.6529 27C55.1356 27 54.6394 27.2055 54.2736 27.5713C53.9078 27.9371 53.7023 28.4333 53.7023 28.9506V35.5658C53.7023 36.0831 53.9078 36.5793 54.2736 36.9451C54.6394 37.3109 55.1356 37.5164 55.6529 37.5164C56.1702 37.5164 56.6664 37.3109 57.0322 36.9451C57.398 36.5793 57.6036 36.0831 57.6036 35.5658ZM77.0491 48.2743H70.4339C69.9166 48.2743 69.4204 48.4798 69.0546 48.8456C68.6888 49.2114 68.4833 49.7076 68.4833 50.2249C68.4833 50.7423 68.6888 51.2384 69.0546 51.6042C69.4204 51.97 69.9166 52.1756 70.4339 52.1756H77.0491C77.5664 52.1756 78.0626 51.97 78.4284 51.6042C78.7942 51.2384 78.9997 50.7423 78.9997 50.2249C78.9997 49.7076 78.7942 49.2114 78.4284 48.8456C78.0626 48.4798 77.5664 48.2743 77.0491 48.2743Z" fill="#E5A51B"/>
</svg>
