<svg width="75" height="77" viewBox="0 0 75 77" fill="none" xmlns="http://www.w3.org/2000/svg">
<circle cx="34.0566" cy="34" r="34" fill="#F9F2FF"/>
<g clip-path="url(#clip0_1277_19547)">
<path d="M61.3006 26.6553H24.2227V31.6741H61.3006V26.6553Z" fill="#FFB81E"/>
<path d="M64.2609 30.357L64.2666 20.0001H28.3623C26.693 19.9932 25.085 20.6285 23.8712 21.7745C22.6574 22.9204 21.9307 24.4892 21.8415 26.1561L21.8358 51.4584V54.5535H21.8301V61.4277C21.8308 63.2597 22.5589 65.0164 23.8543 66.3118C25.1497 67.6073 26.9065 68.3353 28.7385 68.3361H31.5486C31.3163 67.4194 31.1995 66.4773 31.2009 65.5317C31.2009 62.49 32.4092 59.573 34.5599 57.4223C36.7106 55.2715 39.6277 54.0633 42.6693 54.0633C45.7109 54.0633 48.6279 55.2715 50.7787 57.4223C52.9294 59.573 54.1377 62.49 54.1377 65.5317C54.139 66.4773 54.0222 67.4194 53.79 68.3361H64.2609C66.0929 68.3353 67.8496 67.6073 69.1451 66.3118C70.4405 65.0164 71.1686 63.2597 71.1693 61.4277V37.2654C71.1694 36.3581 70.9908 35.4597 70.6437 34.6215C70.2965 33.7833 69.7877 33.0216 69.1461 32.3801C68.5046 31.7386 67.743 31.2297 66.9048 30.8826C66.0665 30.5354 65.1681 30.3568 64.2609 30.357ZM28.881 22.9584H61.3026V30.357H28.881C27.8999 30.357 26.9589 29.9672 26.2652 29.2735C25.5714 28.5797 25.1817 27.6388 25.1817 26.6577C25.1817 25.6765 25.5714 24.7356 26.2652 24.0419C26.9589 23.3481 27.8999 22.9584 28.881 22.9584ZM62.6307 50.9796C62.2739 50.9801 61.9249 50.8749 61.6279 50.6771C61.3309 50.4793 61.0993 50.1979 60.9622 49.8685C60.8251 49.5391 60.7888 49.1764 60.8579 48.8263C60.927 48.4763 61.0983 48.1546 61.3502 47.9019C61.6021 47.6492 61.9232 47.4768 62.2731 47.4067C62.6229 47.3365 62.9857 47.3717 63.3156 47.5077C63.6454 47.6437 63.9276 47.8745 64.1263 48.1709C64.325 48.4672 64.4313 48.8158 64.4319 49.1727C64.4317 49.6508 64.2421 50.1095 63.9045 50.4481C63.5669 50.7868 63.1089 50.9779 62.6307 50.9796Z" fill="#802EC0"/>
<g style="mix-blend-mode:multiply">
<path d="M54.138 65.5319C54.1393 66.4775 54.0225 67.4196 53.7903 68.3363H31.5489C31.3166 67.4196 31.1998 66.4775 31.2012 65.5319C31.2012 62.4903 32.4095 59.5732 34.5602 57.4225C36.7109 55.2718 39.628 54.0635 42.6696 54.0635C45.7112 54.0635 48.6282 55.2718 50.779 57.4225C52.9297 59.5732 54.138 62.4903 54.138 65.5319Z" fill="#03C6AE"/>
</g>
<path d="M53.7902 68.3359C53.1657 70.812 51.7326 73.0088 49.7182 74.5783C47.7037 76.1477 45.2232 76.9999 42.6695 76.9999C40.1159 76.9999 37.6353 76.1477 35.6209 74.5783C33.6064 73.0088 32.1734 70.812 31.5488 68.3359H53.7902Z" fill="#03C6AE"/>
</g>
<defs>
<clipPath id="clip0_1277_19547">
<rect width="57" height="57" fill="white" transform="translate(18 20)"/>
</clipPath>
</defs>
</svg>
