<svg width="34" height="34" viewBox="0 0 34 34" fill="none" xmlns="http://www.w3.org/2000/svg">
<path d="M27.625 34H6.375C2.85391 34 0 31.1461 0 27.625V6.375C0 2.85391 2.85391 0 6.375 0H27.625C31.1461 0 34 2.85391 34 6.375V27.625C34 31.1461 31.1461 34 27.625 34Z" fill="#E3F8FA"/>
<path d="M23.9499 12.9388H20.325V12.2926C20.325 11.5798 19.6747 11.0001 18.875 11.0001H14.525C13.7253 11.0001 13.075 11.5797 13.075 12.2926V12.9387H9.45001C8.65029 12.9388 8 13.5184 8 14.2312V16.1698C8 16.8826 8.65029 17.4622 9.45001 17.4622H15.25V17.1391C15.25 16.9605 15.4121 16.816 15.6125 16.816H17.7875C17.9879 16.816 18.15 16.9605 18.15 17.1391V17.4622H23.95C24.7497 17.4622 25.3999 16.8826 25.3999 16.1698V14.2312C25.3999 13.5184 24.7497 12.9388 23.9499 12.9388ZM18.875 12.9388H14.525V12.2926H18.875V12.9388Z" fill="#1FC9C5"/>
<path d="M25.1989 17.8109C25.0753 17.7563 24.9277 17.7689 24.8186 17.8427C24.5609 18.0166 24.2607 18.1084 23.9499 18.1084H18.15V19.0777C18.15 19.2563 17.9878 19.4008 17.7875 19.4008H15.6125C15.4121 19.4008 15.25 19.2563 15.25 19.0777V18.1084H9.45001C9.13919 18.1084 8.839 18.0166 8.58127 17.8427C8.47187 17.7683 8.32462 17.7556 8.20105 17.8109C8.07789 17.8655 8 17.9775 8 18.1002V22.6319C8 23.3447 8.65029 23.9243 9.45001 23.9243H23.95C24.7497 23.9243 25.4 23.3447 25.4 22.6319V18.1002C25.3999 17.9775 25.3221 17.8655 25.1989 17.8109Z" fill="#1FC9C5"/>
</svg>
