<svg width="91" height="136" viewBox="0 0 91 136" fill="none" xmlns="http://www.w3.org/2000/svg">
<path d="M45.667 0H0.33366V90.6667H45.667V0Z" fill="#6B15AF"/>
<path d="M34.9302 113.333C34.9302 119.922 29.589 125.263 23.0003 125.263C16.4117 125.263 11.0705 119.922 11.0705 113.333L0.333661 113.333C0.333661 125.852 10.4819 136 23.0003 136C35.5188 136 45.667 125.852 45.667 113.333L34.9302 113.333Z" fill="#802EC0"/>
<path fill-rule="evenodd" clip-rule="evenodd" d="M68.3333 34.5965C61.7447 34.5965 56.4035 29.2553 56.4035 22.6667C56.4035 16.078 61.7447 10.7368 68.3333 10.7368C74.922 10.7368 80.2632 16.078 80.2632 22.6667C80.2632 29.2553 74.922 34.5965 68.3333 34.5965ZM68.3333 45.3333C55.8149 45.3333 45.6667 35.1851 45.6667 22.6667C45.6667 10.1482 55.8149 0 68.3333 0C80.8518 0 91 10.1482 91 22.6667C91 35.1851 80.8518 45.3333 68.3333 45.3333Z" fill="#802EC0"/>
<path d="M45.667 45.3333L45.667 22.5668C45.667 10.1035 35.5635 -1.48623e-07 23.1002 0L0.33366 2.71488e-07V22.7665C0.33366 35.2298 10.4372 45.3333 22.9005 45.3333H45.667Z" fill="#03C6AE"/>
<path d="M68.3337 90.6665C80.8521 90.6665 91.0003 80.5183 91.0003 67.9998C91.0003 55.4814 80.8521 45.3332 68.3337 45.3332L45.667 45.3332L45.667 67.9998C45.667 80.5183 55.8152 90.6665 68.3337 90.6665Z" fill="#FFB81E"/>
<ellipse rx="22.6667" ry="22.6667" transform="matrix(4.37114e-08 -1 -1 -4.37114e-08 23.0003 67.9998)" fill="#802EC0"/>
</svg>
