<svg width="68" height="64" viewBox="0 0 68 64" fill="none" xmlns="http://www.w3.org/2000/svg">
<rect x="0.388672" y="0.875488" width="67.4624" height="62.4542" rx="20" fill="#EAD0FF" fill-opacity="0.3"/>
<g style="mix-blend-mode:multiply">
<path d="M17.4629 20.5921C17.4629 18.6082 19.1846 17 21.3083 17H46.7674C48.8912 17 50.6128 18.6093 50.6128 20.5931C50.6128 27.7664 50.6128 33.4025 50.6128 40.3057C50.6128 41.0992 49.9242 41.7435 49.0747 41.7435H41.1598C40.7279 41.7435 40.3778 42.0705 40.3778 42.4739C40.3778 43.4824 39.5026 44.3 38.423 44.3H30.0272C28.9476 44.3 28.0724 43.4824 28.0724 42.4739C28.0724 42.0705 27.7223 41.7435 27.2905 41.7435H19.0011C18.1516 41.7435 17.4629 41.1002 17.4629 40.3067V20.5921Z" fill="#03C6AE"/>
</g>
<path d="M19.4121 22.4125C19.4121 21.3079 20.3075 20.4125 21.4121 20.4125L29.1121 20.4125C30.2167 20.4125 31.1121 21.3095 31.1121 22.4141C31.1121 27.3274 31.1121 30.4681 31.1121 34.9858C31.1121 36.0904 30.2167 36.9875 29.1121 36.9875H21.4121C20.3075 36.9875 19.4121 36.092 19.4121 34.9875V22.4125Z" fill="white"/>
<path d="M32.5742 23.1141C32.5742 22.1831 33.4306 21.4283 34.487 21.4283L46.7489 21.3875C47.8053 21.3875 48.6617 22.1831 48.6617 23.1141C48.6617 24.0452 47.8053 24.7591 46.7489 24.7591L34.487 24.7999C33.4306 24.7999 32.5742 24.0452 32.5742 23.1141Z" fill="white"/>
<path d="M32.5742 29.2108C32.5742 28.1467 33.4306 27.2841 34.487 27.2841L46.7489 27.2374C47.8053 27.2374 48.6617 28.1467 48.6617 29.2108C48.6617 30.2748 47.8053 31.0907 46.7489 31.0907L34.487 31.1374C33.4306 31.1374 32.5742 30.2748 32.5742 29.2108Z" fill="white"/>
<path d="M32.5742 35.3016C32.5742 34.3706 33.4306 33.6158 34.487 33.6158L46.7489 33.575C47.8053 33.575 48.6617 34.3706 48.6617 35.3016C48.6617 36.2327 47.8053 36.9466 46.7489 36.9466L34.487 36.9874C33.4306 36.9874 32.5742 36.2327 32.5742 35.3016Z" fill="white"/>
<g style="mix-blend-mode:multiply">
<path d="M16 44.4545C16 45.7153 17.0221 46.7374 18.2829 46.7374H49.7171C50.9779 46.7374 52 45.7153 52 44.4545V41.4106C52 40.9904 51.6593 40.6497 51.239 40.6497H16.761C16.3407 40.6497 16 40.9904 16 41.4106V44.4545Z" fill="#802EC0"/>
</g>
<g style="mix-blend-mode:multiply">
<path d="M27.1514 30.9435C27.2766 30.4291 27.6097 29.9971 28.0146 29.656C28.9973 28.8281 29.7328 27.6397 29.7328 26.2805C29.7328 23.7488 27.7031 21.9376 25.1994 21.9376C22.6957 21.9376 20.666 23.7488 20.666 26.2805C20.666 27.6397 21.4015 28.8281 22.3842 29.656C22.7891 29.9971 23.1222 30.4291 23.2474 30.9435L23.5152 32.043H26.8836L27.1514 30.9435Z" fill="#FFB81E"/>
</g>
<g style="mix-blend-mode:multiply">
<path d="M22.8418 32.7169C22.8418 32.3448 23.1434 32.0432 23.5155 32.0432H24.1892C24.5622 32.0432 24.8655 31.7425 24.8688 31.3695L24.8718 31.0253C24.8734 30.8428 25.0217 30.6958 25.2042 30.6958C25.3878 30.6958 25.5366 30.8446 25.5366 31.0282V31.3695C25.5366 31.7416 25.8382 32.0432 26.2103 32.0432H26.884C27.256 32.0432 27.5576 32.3448 27.5576 32.7169C27.5576 33.089 27.256 33.3906 26.884 33.3906H23.5155C23.1434 33.3906 22.8418 33.089 22.8418 32.7169Z" fill="#FFB81E"/>
</g>
<g style="mix-blend-mode:multiply">
<path d="M24.1875 33.3901H26.2086V33.727C26.2086 34.2851 25.7561 34.7375 25.198 34.7375C24.6399 34.7375 24.1875 34.2851 24.1875 33.727V33.3901Z" fill="#FFB81E"/>
</g>
</svg>
