<svg width="34" height="34" viewBox="0 0 34 34" fill="none" xmlns="http://www.w3.org/2000/svg">
<g style="mix-blend-mode:multiply">
<circle cx="15" cy="15" r="9" fill="#802EC0"/>
</g>
<g style="mix-blend-mode:multiply">
<circle cx="15" cy="15" r="4" fill="#802EC0"/>
</g>
<path fill-rule="evenodd" clip-rule="evenodd" d="M15.0001 8.5C15.2763 8.5 15.5001 8.72386 15.5001 9V15C15.5001 15.1733 15.4104 15.3342 15.263 15.4253C15.1156 15.5164 14.9315 15.5247 14.7765 15.4472L10.7765 13.4472C10.5295 13.3237 10.4294 13.0234 10.5529 12.7764C10.6764 12.5294 10.9767 12.4293 11.2237 12.5528L14.5001 14.191V9C14.5001 8.72386 14.724 8.5 15.0001 8.5Z" fill="white"/>
<g style="mix-blend-mode:multiply">
<rect x="19" y="20" width="9" height="8" rx="2" fill="#FFB81E"/>
</g>
<g style="mix-blend-mode:multiply">
<path fill-rule="evenodd" clip-rule="evenodd" d="M20 18.5C20 16.567 21.567 15 23.5 15C25.433 15 27 16.567 27 18.5V21H25V18.5C25 17.6716 24.3284 17 23.5 17C22.6716 17 22 17.6716 22 18.5V18.9167H20V18.5Z" fill="#03C6AE"/>
</g>
<path fill-rule="evenodd" clip-rule="evenodd" d="M24 24.9146C24.5826 24.7087 25 24.1531 25 23.5C25 22.6716 24.3284 22 23.5 22C22.6716 22 22 22.6716 22 23.5C22 24.1531 22.4174 24.7087 23 24.9146V25.5C23 25.7761 23.2239 26 23.5 26C23.7761 26 24 25.7761 24 25.5V24.9146Z" fill="white"/>
</svg>
