<svg width="34" height="34" viewBox="0 0 34 34" fill="none" xmlns="http://www.w3.org/2000/svg">
<g style="mix-blend-mode:multiply">
<rect x="8" y="13" width="18" height="13" rx="2" fill="#802EC0"/>
</g>
<g style="mix-blend-mode:multiply">
<path d="M12 10C12 8.89543 12.8954 8 14 8H20C21.1046 8 22 8.89543 22 10V17C22 18.1046 21.1046 19 20 19H14C12.8954 19 12 18.1046 12 17V10Z" fill="#FFB81E"/>
</g>
<path d="M16 11.5C16 11.2239 16.2239 11 16.5 11H19.5C19.7761 11 20 11.2239 20 11.5C20 11.7761 19.7761 12 19.5 12H16.5C16.2239 12 16 11.7761 16 11.5Z" fill="white"/>
<path d="M14 11.5C14 11.2239 14.2239 11 14.5 11C14.7761 11 15 11.2239 15 11.5C15 11.7761 14.7761 12 14.5 12C14.2239 12 14 11.7761 14 11.5Z" fill="white"/>
<path d="M16 13.5C16 13.2239 16.2239 13 16.5 13H19.5C19.7761 13 20 13.2239 20 13.5C20 13.7761 19.7761 14 19.5 14H16.5C16.2239 14 16 13.7761 16 13.5Z" fill="white"/>
<path d="M14 13.5C14 13.2239 14.2239 13 14.5 13C14.7761 13 15 13.2239 15 13.5C15 13.7761 14.7761 14 14.5 14C14.2239 14 14 13.7761 14 13.5Z" fill="white"/>
<path d="M16 15.5C16 15.2239 16.2239 15 16.5 15H19.5C19.7761 15 20 15.2239 20 15.5C20 15.7761 19.7761 16 19.5 16H16.5C16.2239 16 16 15.7761 16 15.5Z" fill="white"/>
<path d="M14 15.5C14 15.2239 14.2239 15 14.5 15C14.7761 15 15 15.2239 15 15.5C15 15.7761 14.7761 16 14.5 16C14.2239 16 14 15.7761 14 15.5Z" fill="white"/>
<g style="mix-blend-mode:multiply">
<path d="M14 9C14 7.34315 15.3431 6 17 6C18.6569 6 20 7.34315 20 9H14Z" fill="#03C6AE"/>
</g>
<g style="mix-blend-mode:multiply">
<path d="M6 25C6 24.4477 6.44772 24 7 24H27C27.5523 24 28 24.4477 28 25V26C28 27.1046 27.1046 28 26 28H8C6.89543 28 6 27.1046 6 26V25Z" fill="#802EC0"/>
</g>
<path d="M15 25.5C15 25.2239 15.2239 25 15.5 25H18.5C18.7761 25 19 25.2239 19 25.5C19 25.7761 18.7761 26 18.5 26H15.5C15.2239 26 15 25.7761 15 25.5Z" fill="white"/>
</svg>
