<svg width="27" height="20" viewBox="0 0 27 20" fill="none" xmlns="http://www.w3.org/2000/svg">
<path d="M24.9925 3.17041L23.3165 20.0001H3.18622L1.83594 3.49612L13.2514 9.88744L24.9925 3.17041Z" fill="#F2F2F2"/>
<path d="M24.4243 0L13.2517 10.4952L2.0791 0H13.2517H24.4243Z" fill="#F2F2F2"/>
<path d="M3.1859 4.84622V19.9999H1.36181C0.678434 19.9999 0.124023 19.4456 0.124023 18.7621V2.61432L2.12384 2.66883L3.1859 4.84622Z" fill="#F14336"/>
<path d="M26.3783 2.61423V18.7621C26.3783 19.4455 25.8239 19.9999 25.1398 19.9999H23.3164V4.84613L24.3262 2.46045L26.3783 2.61423Z" fill="#D32E2A"/>
<path d="M26.378 1.23778V2.61433L23.3162 4.84622L13.251 12.1824L3.1859 4.84622L0.124023 2.61433V1.23778C0.124023 0.554411 0.678434 0 1.36181 0H2.07841L13.251 8.14331L24.4237 0H25.1396C25.8236 0 26.378 0.55436 26.378 1.23778Z" fill="#F14336"/>
<path d="M3.1859 4.84622L0.124023 4.37149V2.61432L3.1859 4.84622Z" fill="#D32E2A"/>
</svg>
