<svg width="23" height="22" viewBox="0 0 23 22" fill="none" xmlns="http://www.w3.org/2000/svg">
<path d="M5.37569 13.2949L4.6099 16.1537L1.81094 16.213C0.974463 14.6615 0.5 12.8864 0.5 11C0.5 9.17597 0.943612 7.45584 1.72994 5.94122H1.73055L4.2224 6.39807L5.31399 8.87497C5.08552 9.54103 4.961 10.256 4.961 11C4.96108 11.8075 5.10735 12.5812 5.37569 13.2949Z" fill="#FBBB00"/>
<path d="M22.3082 8.94507C22.4345 9.61049 22.5004 10.2977 22.5004 11C22.5004 11.7876 22.4176 12.5558 22.2599 13.2968C21.7244 15.8183 20.3252 18.0201 18.3869 19.5783L18.3863 19.5777L15.2477 19.4175L14.8035 16.6445C16.0896 15.8902 17.0947 14.7098 17.6242 13.2968H11.7422V8.94507H17.71H22.3082Z" fill="#518EF8"/>
<path d="M18.3856 19.5776L18.3862 19.5782C16.5011 21.0934 14.1064 22 11.4997 22C7.31057 22 3.66848 19.6586 1.81055 16.2129L5.3753 13.2949C6.30424 15.7741 8.69585 17.539 11.4997 17.539C12.7048 17.539 13.8339 17.2132 14.8027 16.6445L18.3856 19.5776Z" fill="#28B446"/>
<path d="M18.5219 2.53242L14.9583 5.44984C13.9557 4.82309 12.7704 4.46104 11.5006 4.46104C8.63331 4.46104 6.19696 6.30686 5.31455 8.87498L1.73107 5.94123H1.73047C3.5612 2.41155 7.24923 0 11.5006 0C14.1696 0 16.6168 0.950731 18.5219 2.53242Z" fill="#F14336"/>
</svg>
