<svg width="43" height="44" viewBox="0 0 43 44" fill="none" xmlns="http://www.w3.org/2000/svg">
<rect width="43" height="44" rx="5" fill="#F8F0FF"/>
<g style="mix-blend-mode:multiply">
<path fill-rule="evenodd" clip-rule="evenodd" d="M24.0763 10.8857C24.0763 9.98987 24.8025 9.26367 25.6983 9.26367C26.5941 9.26367 27.3203 9.98987 27.3203 10.8857V14.9407C27.3203 16.1165 26.3671 17.0696 25.1914 17.0696C24.0156 17.0696 23.0625 16.1165 23.0625 14.9407V12.1022C23.0625 11.9062 23.2214 11.7474 23.4173 11.7474C23.6133 11.7474 23.7721 11.9062 23.7721 12.1022V14.9407C23.7721 15.7245 24.4076 16.36 25.1914 16.36C25.9752 16.36 26.6106 15.7245 26.6106 14.9407V10.8857C26.6106 10.3818 26.2022 9.9733 25.6983 9.9733C25.1944 9.9733 24.7859 10.3818 24.7859 10.8857V14.5352C24.7859 14.7592 24.9674 14.9407 25.1914 14.9407C25.4153 14.9407 25.5969 14.7592 25.5969 14.5352V11.3926C25.5969 11.1966 25.7557 11.0377 25.9517 11.0377C26.1477 11.0377 26.3065 11.1966 26.3065 11.3926V14.5352C26.3065 15.1511 25.8073 15.6503 25.1914 15.6503C24.5755 15.6503 24.0763 15.1511 24.0763 14.5352V10.8857Z" fill="#FFB81E"/>
</g>
<g style="mix-blend-mode:multiply">
<rect x="11.5332" y="16.9675" width="15.8413" height="17.6692" rx="2" transform="rotate(-15 11.5332 16.9675)" fill="#03BBAE"/>
</g>
<g style="mix-blend-mode:multiply">
<path d="M11.5312 15.1778C11.5312 14.0732 12.4267 13.1778 13.5312 13.1778H25.3726C26.4772 13.1778 27.3726 14.0732 27.3726 15.1778V25.9727L21.889 30.847H13.5313C12.4267 30.847 11.5312 29.9515 11.5312 28.847V15.1778Z" fill="#802EC0"/>
</g>
<g style="mix-blend-mode:multiply">
<path d="M21.8895 27.973L21.8895 30.8473L27.373 25.973L23.8895 25.973C22.7849 25.973 21.8895 26.8685 21.8895 27.973Z" fill="#802EC0"/>
</g>
<rect x="13.9688" y="18.6616" width="10.9671" height="1.21856" rx="0.609282" fill="white"/>
<rect x="13.9688" y="21.7081" width="10.9671" height="1.21856" rx="0.609282" fill="white"/>
<rect x="13.9688" y="24.7543" width="10.9671" height="1.21856" rx="0.609282" fill="white"/>
</svg>
