<svg width="68" height="63" viewBox="0 0 68 63" fill="none" xmlns="http://www.w3.org/2000/svg">
<rect width="67.4624" height="62.4542" rx="20" fill="#F9F1FF"/>
<g style="mix-blend-mode:multiply">
<path d="M18.875 25.375C18.875 23.6491 20.2741 22.25 22 22.25H45.7499C47.4758 22.25 48.8749 23.6503 48.8749 25.3762C48.8749 31.7979 48.8749 36.9173 48.8749 42.8746C48.8749 44.6004 47.4758 45.9999 45.7499 45.9999H22C20.2741 45.9999 18.875 44.6008 18.875 42.8749V25.375Z" fill="#802EC0"/>
</g>
<g style="mix-blend-mode:multiply">
<path d="M17 23.5001C17 21.7742 18.3991 20.3751 20.125 20.3751H47.6249C49.3508 20.3751 50.7499 21.7746 50.7499 23.5005C50.7499 25.7157 50.7499 27.6647 50.7499 29.9672C50.7499 30.2448 50.5669 30.4896 50.3005 30.5676L34.2261 35.2723C33.9968 35.3394 33.7531 35.3394 33.5238 35.2723L17.4494 30.5676C17.1831 30.4896 17 30.2453 17 29.9678V23.5001Z" fill="#03C6AE"/>
</g>
<path d="M37 35.3749H30.75V33.8681C30.75 32.9744 31.6023 32.2499 32.6538 32.2499H35.0962C36.1476 32.2499 37 32.9744 37 33.8681V35.3749Z" fill="white"/>
<path d="M32 35.375L35.75 35.375L35.75 36.2791C35.75 36.8153 35.2386 37.25 34.6077 37.25L33.1423 37.25C32.5114 37.25 32 36.8153 32 36.2791L32 35.375Z" fill="white"/>
<g style="mix-blend-mode:multiply">
<path d="M27.625 17.8751C27.625 17.1848 28.1846 16.6251 28.875 16.6251H38.875C39.5653 16.6251 40.125 17.1848 40.125 17.8751V22.2501H38.25V19.1251C38.25 18.7799 37.9701 18.5001 37.625 18.5001H30.125C29.7798 18.5001 29.5 18.7799 29.5 19.1251V22.2501H27.625V17.8751Z" fill="#FFB81E"/>
</g>
<g style="mix-blend-mode:multiply">
<path d="M30.75 17.5625C30.75 16.6996 31.4496 16 32.3125 16H35.4375C36.3004 16 37 16.6996 37 17.5625C37 18.4254 36.3004 19.125 35.4375 19.125H32.3125C31.4496 19.125 30.75 18.4254 30.75 17.5625Z" fill="#FF7800"/>
</g>
</svg>
