<svg width="174" height="66" viewBox="0 0 174 66" fill="none" xmlns="http://www.w3.org/2000/svg">
<path d="M16.4817 41.0676C7.39303 41.0676 0 33.6746 0 24.5859C0 15.4973 7.39303 8.10437 16.4817 8.10437C25.5704 8.10437 32.9632 15.4973 32.9632 24.5859C32.9632 33.6746 25.5684 41.0676 16.4817 41.0676ZM16.4817 16.2084C11.8624 16.2084 8.10404 19.9666 8.10404 24.5859C8.10404 29.2052 11.8624 32.9635 16.4817 32.9635C21.101 32.9635 24.8592 29.2052 24.8592 24.5859C24.8592 19.9666 21.101 16.2084 16.4817 16.2084Z" fill="#802EC0"/>
<path d="M41.3428 41.0676C32.2542 41.0676 24.8613 33.6746 24.8613 24.5859C24.8613 15.4973 32.2542 8.10437 41.3428 8.10437V16.2084C36.7235 16.2084 32.9654 19.9666 32.9654 24.5859C32.9654 29.2052 36.7235 32.9635 41.3428 32.9635C45.9622 32.9635 49.7205 29.2052 49.7205 24.5859H57.8246C57.8246 33.6746 50.4315 41.0676 41.3428 41.0676Z" fill="#802EC0"/>
<path d="M57.8235 20.4445H41.3418V28.7308H57.8235V20.4445Z" fill="#03C6AE"/>
<path d="M16.4814 65.9283V57.8242C21.1007 57.8242 24.8589 54.066 24.8589 49.4467C24.8589 44.8273 21.1007 41.0691 16.4814 41.0691V32.9651C25.5701 32.9651 32.963 40.358 32.963 49.4467C32.963 58.5333 25.5681 65.9283 16.4814 65.9283Z" fill="#802EC0"/>
<path d="M16.4817 65.9286C7.39303 65.9286 0 58.5357 0 49.447H8.10404C8.10404 54.0663 11.8624 57.8246 16.4817 57.8246C21.101 57.8246 24.8592 54.0663 24.8592 49.447H32.9632C32.9632 58.5337 25.5684 65.9286 16.4817 65.9286Z" fill="#802EC0"/>
<path d="M28.9133 8.10404C31.1512 8.10404 32.9654 6.28989 32.9654 4.05202C32.9654 1.81415 31.1512 0 28.9133 0C26.6755 0 24.8613 1.81415 24.8613 4.05202C24.8613 6.28989 26.6755 8.10404 28.9133 8.10404Z" fill="#03C6AE"/>
<path d="M74.0495 61.4226C75.3281 61.4226 76.4687 61.1537 77.4712 60.616C78.4738 60.0784 79.2583 59.3445 79.825 58.4145C80.4062 57.4699 80.6968 56.4019 80.6968 55.2103V44.9219H77.3187V54.9923C77.3187 55.6317 77.1734 56.213 76.8828 56.7361C76.6067 57.2447 76.2217 57.6443 75.7277 57.935C75.2482 58.2256 74.6888 58.3709 74.0495 58.3709C73.4248 58.3709 72.8654 58.2256 72.3714 57.935C71.8774 57.6443 71.4851 57.2447 71.1945 56.7361C70.9185 56.213 70.7804 55.6317 70.7804 54.9923V44.9219H67.4023V55.2103C67.4023 56.4019 67.6857 57.4699 68.2523 58.4145C68.8335 59.3445 69.6253 60.0784 70.6279 60.616C71.6304 61.1537 72.771 61.4226 74.0495 61.4226Z" fill="#802EC0"/>
<path d="M83.1297 61.161H86.3988V54.2076C86.3988 53.5246 86.6022 52.9797 87.009 52.5728C87.4159 52.1514 87.9389 51.9407 88.5782 51.9407C89.2175 51.9407 89.7406 52.1514 90.1474 52.5728C90.5542 52.9797 90.7576 53.5246 90.7576 54.2076V61.161H94.0267V53.5101C94.0267 52.6091 93.8379 51.8244 93.4601 51.156C93.0823 50.473 92.552 49.9426 91.8691 49.5647C91.2008 49.1869 90.4162 48.998 89.5154 48.998C88.7598 48.998 88.0915 49.1433 87.5103 49.434C86.9291 49.7101 86.486 50.1387 86.1809 50.72V49.2596H83.1297V61.161Z" fill="#802EC0"/>
<path d="M96.1764 48.1915H99.4455V44.9219H96.1764V48.1915ZM96.1764 61.161H99.4455V49.2596H96.1764V61.161Z" fill="#802EC0"/>
<path d="M105.565 61.161H108.398L113.083 49.2596H109.553L106.981 56.3873L104.409 49.2596H100.879L105.565 61.161Z" fill="#802EC0"/>
<path d="M120.042 61.4226C121.262 61.4226 122.33 61.161 123.245 60.6378C124.161 60.1002 124.8 59.3954 125.163 58.5235L122.548 57.281C122.315 57.6879 121.989 58.0076 121.567 58.2401C121.16 58.4726 120.666 58.5889 120.085 58.5889C119.286 58.5889 118.632 58.3636 118.124 57.9132C117.615 57.4627 117.317 56.8669 117.23 56.1258H125.556C125.614 55.9659 125.65 55.777 125.664 55.559C125.694 55.3265 125.708 55.094 125.708 54.8615C125.708 53.7571 125.476 52.769 125.011 51.8971C124.56 51.0106 123.899 50.3058 123.027 49.7827C122.156 49.2596 121.088 48.998 119.824 48.998C118.69 48.998 117.673 49.2668 116.772 49.8045C115.872 50.3422 115.152 51.076 114.615 52.0061C114.092 52.9361 113.83 53.9969 113.83 55.1885C113.83 56.3365 114.085 57.3828 114.593 58.3273C115.102 59.2719 115.821 60.0275 116.751 60.5943C117.681 61.1465 118.778 61.4226 120.042 61.4226ZM119.824 51.6137C120.492 51.6137 121.044 51.8099 121.48 52.2022C121.916 52.5946 122.17 53.1032 122.243 53.7281H117.296C117.455 53.0451 117.753 52.5219 118.189 52.1586C118.639 51.7953 119.184 51.6137 119.824 51.6137Z" fill="#802EC0"/>
<path d="M127.633 61.161H130.902V54.7525C130.902 53.8661 131.149 53.1831 131.643 52.7036C132.137 52.2095 132.784 51.9625 133.583 51.9625H134.607V49.1288H133.91C133.183 49.1288 132.537 49.2668 131.97 49.5429C131.418 49.8045 130.989 50.3058 130.684 51.047V49.2596H127.633V61.161Z" fill="#802EC0"/>
<path d="M140.704 61.4226C142.084 61.4226 143.196 61.0811 144.038 60.3981C144.881 59.7151 145.302 58.8214 145.302 57.717C145.302 56.8596 145.041 56.1403 144.518 55.559C143.995 54.9632 143.239 54.52 142.251 54.2294L140.355 53.6627C139.498 53.4156 139.069 53.0596 139.069 52.5946C139.069 52.2894 139.186 52.0496 139.418 51.8753C139.665 51.7009 139.999 51.6137 140.421 51.6137C141.002 51.6137 141.518 51.7663 141.968 52.0714C142.433 52.3621 142.753 52.7544 142.927 53.2485L145.346 52.115C144.983 51.1269 144.358 50.364 143.472 49.8263C142.6 49.2741 141.583 48.998 140.421 48.998C139.534 48.998 138.75 49.1578 138.067 49.4775C137.384 49.7827 136.854 50.2114 136.476 50.7636C136.098 51.3158 135.909 51.9625 135.909 52.7036C135.909 53.5464 136.171 54.2803 136.694 54.9051C137.217 55.5154 137.965 55.9587 138.939 56.2348L140.965 56.8015C141.75 57.0195 142.142 57.3682 142.142 57.8478C142.142 58.5598 141.663 58.9158 140.704 58.9158C140.065 58.9158 139.483 58.7342 138.96 58.3709C138.437 58.0076 138.023 57.5063 137.718 56.8669L135.321 58.0004C135.669 59.0466 136.323 59.8822 137.282 60.5071C138.256 61.1174 139.396 61.4226 140.704 61.4226Z" fill="#802EC0"/>
<path d="M147.256 48.1915H150.525V44.9219H147.256V48.1915ZM147.256 61.161H150.525V49.2596H147.256V61.161Z" fill="#802EC0"/>
<path d="M158.65 61.2918C158.897 61.2918 159.158 61.2772 159.434 61.2482C159.71 61.2191 159.957 61.19 160.175 61.161V58.3927C159.87 58.4363 159.616 58.4581 159.412 58.4581C158.061 58.4581 157.385 57.855 157.385 56.6489V52.0932H160.175V49.2596H157.385V46.5567H154.116V47.4286C154.116 48.6492 153.484 49.2596 152.22 49.2596H152.111V52.0932H154.116V56.8669C154.116 58.2619 154.509 59.3518 155.293 60.1365C156.092 60.9067 157.211 61.2918 158.65 61.2918Z" fill="#802EC0"/>
<path d="M163.943 66C166.123 66 167.699 64.7576 168.673 62.2727L173.772 49.2596H170.264L167.452 56.9105L164.641 49.2596H161.132L165.818 61.161L165.6 61.6623C165.425 62.0547 165.2 62.4034 164.924 62.7086C164.648 63.0138 164.19 63.1664 163.551 63.1664C163.028 63.1664 162.534 63.0937 162.069 62.9484V65.6295C162.316 65.7603 162.599 65.8547 162.919 65.9128C163.253 65.971 163.595 66 163.943 66Z" fill="#802EC0"/>
<path d="M75.6841 37.1934C76.614 37.1934 77.5293 37.0408 78.4302 36.7357C79.3455 36.416 80.1664 35.9364 80.8929 35.297C81.6339 34.6431 82.2223 33.8293 82.6582 32.8557C83.0941 31.8676 83.312 30.7123 83.312 29.3899V27.6679H75.5969V30.5016H79.934V30.5452C79.934 31.3008 79.7305 31.9475 79.3237 32.4852C78.9314 33.0228 78.4084 33.437 77.7545 33.7276C77.1153 34.0037 76.4251 34.1418 75.6841 34.1418C74.7252 34.1418 73.8752 33.9165 73.1342 33.466C72.4077 33.0156 71.8338 32.3907 71.4125 31.5915C70.9911 30.7922 70.7804 29.8622 70.7804 28.8014C70.7804 27.7406 70.9766 26.8178 71.3689 26.0331C71.7757 25.2339 72.3423 24.609 73.0688 24.1585C73.7953 23.708 74.638 23.4828 75.5969 23.4828C76.5849 23.4828 77.4204 23.7444 78.1033 24.2675C78.8007 24.7761 79.2874 25.4228 79.5635 26.2075L82.5493 24.7688C82.2732 23.9696 81.8083 23.243 81.1544 22.5891C80.5006 21.9352 79.7015 21.412 78.7571 21.0197C77.8272 20.6273 76.7738 20.4312 75.5969 20.4312C74.42 20.4312 73.3303 20.6419 72.3278 21.0633C71.3398 21.4702 70.4753 22.0514 69.7343 22.8071C68.9933 23.5482 68.4194 24.4346 68.0126 25.4664C67.6058 26.4836 67.4023 27.5953 67.4023 28.8014C67.4023 30.0075 67.613 31.1192 68.0344 32.1364C68.4557 33.1536 69.0442 34.04 69.7997 34.7957C70.5552 35.5513 71.4343 36.1399 72.4368 36.5613C73.4393 36.9827 74.5218 37.1934 75.6841 37.1934Z" fill="#802EC0"/>
<path d="M85.398 36.9318H88.7761V20.6927H85.398V36.9318Z" fill="#802EC0"/>
<path d="M99.4576 37.1934C100.387 37.1934 101.303 37.0408 102.204 36.7357C103.119 36.416 103.94 35.9364 104.666 35.297C105.407 34.6431 105.996 33.8293 106.432 32.8557C106.868 31.8676 107.086 30.7123 107.086 29.3899V27.6679H99.3704V30.5016H103.707V30.5452C103.707 31.3008 103.504 31.9475 103.097 32.4852C102.705 33.0228 102.182 33.437 101.528 33.7276C100.889 34.0037 100.199 34.1418 99.4576 34.1418C98.4986 34.1418 97.6487 33.9165 96.9077 33.466C96.1812 33.0156 95.6073 32.3907 95.1859 31.5915C94.7646 30.7922 94.5539 29.8622 94.5539 28.8014C94.5539 27.7406 94.75 26.8178 95.1423 26.0331C95.5492 25.2339 96.1158 24.609 96.8423 24.1585C97.5687 23.708 98.4114 23.4828 99.3704 23.4828C100.358 23.4828 101.194 23.7444 101.877 24.2675C102.574 24.7761 103.061 25.4228 103.337 26.2075L106.323 24.7688C106.047 23.9696 105.582 23.243 104.928 22.5891C104.274 21.9352 103.475 21.412 102.531 21.0197C101.601 20.6273 100.547 20.4312 99.3704 20.4312C98.1935 20.4312 97.1038 20.6419 96.1013 21.0633C95.1133 21.4702 94.2488 22.0514 93.5078 22.8071C92.7668 23.5482 92.1929 24.4346 91.786 25.4664C91.3792 26.4836 91.1758 27.5953 91.1758 28.8014C91.1758 30.0075 91.3865 31.1192 91.8078 32.1364C92.2292 33.1536 92.8176 34.04 93.5732 34.7957C94.3287 35.5513 95.2077 36.1399 96.2102 36.5613C97.2128 36.9827 98.2952 37.1934 99.4576 37.1934Z" fill="#802EC0"/>
</svg>
