<svg width="84" height="16" viewBox="0 0 84 16" fill="none" xmlns="http://www.w3.org/2000/svg">
<path d="M58.3433 1.325C58.5267 0.953374 59.0566 0.953374 59.24 1.325L60.9652 4.82065C61.0381 4.96823 61.1789 5.07051 61.3417 5.09417L65.1994 5.65473C65.6095 5.71432 65.7733 6.21831 65.4765 6.50758L62.6851 9.22857C62.5672 9.34344 62.5134 9.50893 62.5413 9.67113L63.2002 13.5132C63.2703 13.9217 62.8416 14.2332 62.4748 14.0403L59.0243 12.2263C58.8787 12.1497 58.7047 12.1497 58.559 12.2263L55.1086 14.0403C54.7418 14.2332 54.313 13.9217 54.3831 13.5132L55.0421 9.67113C55.0699 9.50893 55.0161 9.34343 54.8983 9.22857L52.1068 6.50758C51.8101 6.21831 51.9738 5.71432 52.3839 5.65473L56.2416 5.09417C56.4045 5.07051 56.5453 4.96823 56.6181 4.82065L58.3433 1.325Z" fill="#FFB81E"/>
<path d="M75.3433 1.325C75.5267 0.953374 76.0566 0.953374 76.24 1.325L77.9652 4.82065C78.0381 4.96823 78.1789 5.07051 78.3417 5.09417L82.1994 5.65473C82.6095 5.71432 82.7733 6.21831 82.4765 6.50758L79.6851 9.22857C79.5672 9.34344 79.5134 9.50893 79.5413 9.67113L80.2002 13.5132C80.2703 13.9217 79.8416 14.2332 79.4748 14.0403L76.0243 12.2263C75.8787 12.1497 75.7047 12.1497 75.559 12.2263L72.1086 14.0403C71.7418 14.2332 71.313 13.9217 71.3831 13.5132L72.0421 9.67113C72.0699 9.50893 72.0161 9.34343 71.8983 9.22857L69.1068 6.50758C68.8101 6.21831 68.9738 5.71432 69.3839 5.65473L73.2416 5.09417C73.4045 5.07051 73.5453 4.96823 73.6181 4.82065L75.3433 1.325Z" fill="#FFB81E"/>
<path d="M41.3433 1.325C41.5267 0.953374 42.0566 0.953374 42.24 1.325L43.9652 4.82065C44.0381 4.96823 44.1789 5.07051 44.3417 5.09417L48.1994 5.65473C48.6095 5.71432 48.7733 6.21831 48.4765 6.50758L45.6851 9.22857C45.5672 9.34344 45.5134 9.50893 45.5413 9.67113L46.2002 13.5132C46.2703 13.9217 45.8416 14.2332 45.4748 14.0403L42.0243 12.2263C41.8787 12.1497 41.7047 12.1497 41.559 12.2263L38.1086 14.0403C37.7418 14.2332 37.313 13.9217 37.3831 13.5132L38.0421 9.67113C38.0699 9.50893 38.0161 9.34343 37.8983 9.22857L35.1068 6.50758C34.8101 6.21831 34.9738 5.71432 35.3839 5.65473L39.2416 5.09417C39.4045 5.07051 39.5453 4.96823 39.6181 4.82065L41.3433 1.325Z" fill="#FFB81E"/>
<path d="M24.3433 1.325C24.5267 0.953374 25.0566 0.953374 25.24 1.325L26.9652 4.82065C27.0381 4.96823 27.1789 5.07051 27.3417 5.09417L31.1994 5.65473C31.6095 5.71432 31.7733 6.21831 31.4765 6.50758L28.6851 9.22857C28.5672 9.34344 28.5134 9.50893 28.5413 9.67113L29.2002 13.5132C29.2703 13.9217 28.8416 14.2332 28.4748 14.0403L25.0243 12.2263C24.8787 12.1497 24.7047 12.1497 24.559 12.2263L21.1086 14.0403C20.7418 14.2332 20.313 13.9217 20.3831 13.5132L21.0421 9.67113C21.0699 9.50893 21.0161 9.34343 20.8983 9.22857L18.1068 6.50758C17.8101 6.21831 17.9738 5.71432 18.3839 5.65473L22.2416 5.09417C22.4045 5.07051 22.5453 4.96823 22.6181 4.82065L24.3433 1.325Z" fill="#FFB81E"/>
<path d="M7.3433 1.325C7.52671 0.953374 8.05663 0.953374 8.24003 1.325L9.96525 4.82065C10.0381 4.96823 10.1789 5.07051 10.3417 5.09417L14.1994 5.65473C14.6095 5.71432 14.7733 6.21831 14.4765 6.50758L11.6851 9.22857C11.5672 9.34344 11.5134 9.50893 11.5413 9.67113L12.2002 13.5132C12.2703 13.9217 11.8416 14.2332 11.4748 14.0403L8.02434 12.2263C7.87867 12.1497 7.70466 12.1497 7.559 12.2263L4.10858 14.0403C3.74176 14.2332 3.31305 13.9217 3.3831 13.5132L4.04207 9.67113C4.06989 9.50893 4.01612 9.34343 3.89827 9.22857L1.10683 6.50758C0.810067 6.21831 0.973823 5.71432 1.38393 5.65473L5.24162 5.09417C5.40447 5.07051 5.54526 4.96823 5.61809 4.82065L7.3433 1.325Z" fill="#FFB81E"/>
</svg>
