<svg width="68" height="63" viewBox="0 0 68 63" fill="none" xmlns="http://www.w3.org/2000/svg">
<rect width="67.4624" height="62.4542" rx="20" fill="#F9F1FF"/>
<path d="M21.7665 17.8023L22.0098 16L22.2531 17.8023C22.3304 18.3746 22.7895 18.8194 23.3639 18.8785L25.7598 19.125L23.3639 19.3715C22.7895 19.4306 22.3304 19.8755 22.2531 20.4477L22.0098 22.25L21.7665 20.4477C21.6892 19.8755 21.23 19.4306 20.6556 19.3715L18.2598 19.125L20.6556 18.8785C21.23 18.8194 21.6892 18.3746 21.7665 17.8023Z" fill="#FFB81E"/>
<path d="M45.6355 17.5921L45.7598 16.6251L45.8841 17.5921C45.9578 18.1654 46.415 18.6133 46.9897 18.6754L48.2598 18.8126L46.9896 18.9498C46.415 19.0119 45.9578 19.4599 45.8841 20.0332L45.7598 21.0001L45.6355 20.0332C45.5617 19.4599 45.1046 19.0119 44.5299 18.9498L43.2598 18.8126L44.5299 18.6754C45.1046 18.6133 45.5617 18.1654 45.6355 17.5921Z" fill="#FFB81E"/>
<g style="mix-blend-mode:multiply">
<path d="M33.1908 19.2528L16.5877 25.6071C15.7932 25.9102 15.8076 27.0109 16.6105 27.2942L33.2376 33.1728C33.654 33.3209 34.1112 33.3209 34.5289 33.1728L51.1607 27.293C51.9612 27.0109 51.9756 25.9126 51.1836 25.6094L34.5745 19.2528C34.1304 19.0826 33.636 19.0826 33.1908 19.2528Z" fill="#03C6AE"/>
</g>
<g style="mix-blend-mode:multiply">
<path fill-rule="evenodd" clip-rule="evenodd" d="M18.2359 26.5768C18.0301 26.5768 17.8633 26.7436 17.8633 26.9494V33.6561C17.8633 33.8619 18.0301 34.0287 18.2359 34.0287C18.4417 34.0287 18.6085 33.8619 18.6085 33.6561V26.9494C18.6085 26.7436 18.4417 26.5768 18.2359 26.5768Z" fill="#FFB81E"/>
</g>
<g style="mix-blend-mode:multiply">
<path d="M17.6722 35.1466H18.7984C18.8986 35.1466 18.9805 35.0597 18.9805 34.9526V34.4466C18.9805 34.0101 18.6475 33.6562 18.2368 33.6562H18.2337C17.823 33.6562 17.4901 34.0101 17.4901 34.4466V34.9526C17.4901 35.0597 17.5719 35.1466 17.6722 35.1466Z" fill="#FFB81E"/>
</g>
<g style="mix-blend-mode:multiply">
<path d="M24.1973 29.9304C24.1973 27.3222 28.5345 25.8318 33.8848 25.8318C39.2351 25.8318 43.5724 27.3222 43.5724 29.9304C43.5724 32.5386 43.5724 38.5001 43.5724 38.5001H24.1973V29.9304Z" fill="#03C6AE"/>
</g>
<circle cx="33.8839" cy="32.5384" r="0.745196" fill="white"/>
<circle cx="37.6124" cy="32.5384" r="0.745196" fill="white"/>
<circle cx="30.1593" cy="32.5384" r="0.745196" fill="white"/>
<g style="mix-blend-mode:multiply">
<path d="M22.0098 39.7499H45.1349C46.8608 39.7499 48.2599 41.149 48.2599 42.8749C48.2599 44.6008 46.8608 45.9999 45.1349 45.9999H22.0098C20.2839 45.9999 18.8848 44.6008 18.8848 42.8749C18.8848 41.149 20.2839 39.7499 22.0098 39.7499Z" fill="#802EC0"/>
</g>
<circle cx="40.7598" cy="42.875" r="0.625003" fill="white"/>
<circle cx="43.8848" cy="42.875" r="0.625003" fill="white"/>
<circle cx="37.6348" cy="42.875" r="0.625003" fill="white"/>
<g style="mix-blend-mode:multiply">
<path d="M25.1348 42.8749C25.1348 44.6008 23.7357 45.9999 22.0098 45.9999C20.2839 45.9999 18.8848 44.6008 18.8848 42.8749C18.8848 41.149 20.2839 39.7499 22.0098 39.7499C23.7357 39.7499 25.1348 41.149 25.1348 42.8749Z" fill="#802EC0"/>
</g>
<g style="mix-blend-mode:multiply">
<path d="M27.6348 35.3749L29.8223 37.2499L32.0098 35.3749V40.9999H27.6348V35.3749Z" fill="#FFB81E"/>
</g>
</svg>
