<svg width="68" height="63" viewBox="0 0 68 63" fill="none" xmlns="http://www.w3.org/2000/svg">
<rect width="67.4624" height="62.4542" rx="20" fill="#F9F1FF"/>
<g style="mix-blend-mode:multiply">
<path d="M19 20.0612C19 18.3706 20.3706 17 22.0612 17H45.3266C47.0173 17 48.3878 18.372 48.3878 20.0627C48.3878 26.5857 48.3878 31.7676 48.3878 37.8163C48.3878 39.507 47.0173 40.8776 45.3266 40.8776H22.0612C20.3706 40.8776 19 39.507 19 37.8164V20.0612Z" fill="#802EC0"/>
</g>
<path d="M20.8359 20.6736C20.8359 19.9973 21.3842 19.4491 22.0604 19.4491H45.3258C46.002 19.4491 46.5503 19.9983 46.5503 20.6745C46.5503 25.4787 46.5503 29.0994 46.5503 33.5299C46.5503 34.2062 46.002 34.7552 45.3258 34.7552H22.0604C21.3842 34.7552 20.8359 34.207 20.8359 33.5308V20.6736Z" fill="white"/>
<g style="mix-blend-mode:multiply">
<path d="M28.3741 45.0149C28.2774 45.4013 28.5697 45.7757 28.968 45.7757H38.4201C38.8185 45.7757 39.1107 45.4013 39.0141 45.0149L37.9798 40.8777H29.4084L28.3741 45.0149Z" fill="#FF7800"/>
</g>
<g style="mix-blend-mode:multiply">
<path d="M23.2852 45.7755C23.2852 46.4518 23.8334 47 24.5096 47H42.877C43.5533 47 44.1015 46.4518 44.1015 45.7755C44.1015 45.0992 43.5533 44.551 42.877 44.551H24.5096C23.8334 44.551 23.2852 45.0992 23.2852 45.7755Z" fill="#FFB81E"/>
</g>
<g style="mix-blend-mode:multiply">
<path d="M35.5309 37.8164C35.5309 38.8308 34.7086 39.6531 33.6942 39.6531C32.6798 39.6531 31.8574 38.8308 31.8574 37.8164C31.8574 36.8019 32.6798 35.9796 33.6942 35.9796C34.7086 35.9796 35.5309 36.8019 35.5309 37.8164Z" fill="#7628B9"/>
</g>
<g style="mix-blend-mode:multiply">
<path d="M33.3371 21.9642L24.8115 25.2614C24.4036 25.4187 24.411 25.9899 24.8232 26.1369L33.3612 29.1873C33.575 29.2641 33.8098 29.2641 34.0242 29.1873L42.5646 26.1363C42.9756 25.9899 42.983 25.4199 42.5763 25.2626L34.0476 21.9642C33.8196 21.8759 33.5657 21.8759 33.3371 21.9642Z" fill="#03C6AE"/>
</g>
<g style="mix-blend-mode:multiply">
<path d="M29.4072 26.796C29.069 26.796 28.7949 27.0701 28.7949 27.4083V30.4036C28.7949 30.5956 28.9068 30.7672 29.0769 30.8314C30.1671 31.2414 34.2507 32.5465 38.3247 30.8346C38.4863 30.7666 38.5909 30.5968 38.5909 30.4119V27.4083C38.5909 27.0701 38.3167 26.796 37.9786 26.796H29.4072Z" fill="#03C6AE"/>
</g>
<g style="mix-blend-mode:multiply">
<path fill-rule="evenodd" clip-rule="evenodd" d="M33.3867 25.5714C33.3867 25.4023 33.5238 25.2653 33.6928 25.2653H39.8153C40.3225 25.2653 40.7337 25.6764 40.7337 26.1836V29.2449C40.7337 29.4139 40.5966 29.551 40.4275 29.551C40.2585 29.551 40.1214 29.4139 40.1214 29.2449V26.1836C40.1214 26.0146 39.9844 25.8775 39.8153 25.8775H33.6928C33.5238 25.8775 33.3867 25.7404 33.3867 25.5714Z" fill="#FFB81E"/>
</g>
<g style="mix-blend-mode:multiply">
<path d="M40.8913 30.4694H39.966C39.8836 30.4694 39.8164 30.3979 39.8164 30.3099V29.8942C39.8164 29.5356 40.09 29.2449 40.4274 29.2449H40.4299C40.7673 29.2449 41.0409 29.5356 41.0409 29.8942V30.3099C41.0409 30.3979 40.9737 30.4694 40.8913 30.4694Z" fill="#FFB81E"/>
</g>
</svg>
