<svg width="169" height="65" viewBox="0 0 169 65" fill="none" xmlns="http://www.w3.org/2000/svg">
<path d="M16.029 39.9393C7.18997 39.9393 0 32.7494 0 23.9103C0 15.0713 7.18997 7.88147 16.029 7.88147C24.8681 7.88147 32.0579 15.0713 32.0579 23.9103C32.0579 32.7494 24.8661 39.9393 16.029 39.9393ZM16.029 15.7629C11.5366 15.7629 7.88146 19.4179 7.88146 23.9103C7.88146 28.4028 11.5366 32.0578 16.029 32.0578C20.5215 32.0578 24.1764 28.4028 24.1764 23.9103C24.1764 19.4179 20.5215 15.7629 16.029 15.7629Z" fill="#802EC0"/>
<path d="M40.2066 39.9392C31.3675 39.9392 24.1777 32.7493 24.1777 23.9102C24.1777 15.0712 31.3675 7.88135 40.2066 7.88135V15.7628C35.7141 15.7628 32.0592 19.4178 32.0592 23.9102C32.0592 28.4027 35.7141 32.0577 40.2066 32.0577C44.699 32.0577 48.3541 28.4027 48.3541 23.9102H56.2356C56.2356 32.7493 49.0456 39.9392 40.2066 39.9392Z" fill="#802EC0"/>
<path d="M56.2365 19.8829H40.2075V27.9417H56.2365V19.8829Z" fill="#03C6AE"/>
<path d="M16.0288 64.1176V56.2362C20.5212 56.2362 24.1762 52.5811 24.1762 48.0887C24.1762 43.5963 20.5212 39.9413 16.0288 39.9413V32.0598C24.8679 32.0598 32.0576 39.2496 32.0576 48.0887C32.0576 56.9258 24.8659 64.1176 16.0288 64.1176Z" fill="#802EC0"/>
<path d="M16.029 64.1176C7.18997 64.1176 0 56.9277 0 48.0886H7.88146C7.88146 52.5811 11.5366 56.2361 16.029 56.2361C20.5215 56.2361 24.1764 52.5811 24.1764 48.0886H32.0579C32.0579 56.9257 24.8661 64.1176 16.029 64.1176Z" fill="#802EC0"/>
<path d="M28.1185 7.88146C30.2949 7.88146 32.0592 6.11713 32.0592 3.94073C32.0592 1.76432 30.2949 0 28.1185 0C25.9421 0 24.1777 1.76432 24.1777 3.94073C24.1777 6.11713 25.9421 7.88146 28.1185 7.88146Z" fill="#03C6AE"/>
<path d="M72.0164 59.7358C73.2599 59.7358 74.3691 59.4744 75.3441 58.9515C76.3191 58.4286 77.0821 57.7149 77.6332 56.8104C78.1984 55.8918 78.481 54.853 78.481 53.6942V43.6884H75.1957V53.4822C75.1957 54.104 75.0544 54.6693 74.7718 55.1781C74.5033 55.6727 74.1289 56.0614 73.6484 56.344C73.1821 56.6267 72.6381 56.768 72.0164 56.768C71.4088 56.768 70.8648 56.6267 70.3843 56.344C69.9039 56.0614 69.5224 55.6727 69.2398 55.1781C68.9713 54.6693 68.8371 54.104 68.8371 53.4822V43.6884H65.5518V53.6942C65.5518 54.853 65.8273 55.8918 66.3784 56.8104C66.9436 57.7149 67.7137 58.4286 68.6887 58.9515C69.6637 59.4744 70.7729 59.7358 72.0164 59.7358Z" fill="#802EC0"/>
<path d="M80.8471 59.4814H84.0265V52.719C84.0265 52.0548 84.2243 51.5248 84.6199 51.1291C85.0156 50.7193 85.5243 50.5144 86.146 50.5144C86.7677 50.5144 87.2764 50.7193 87.6721 51.1291C88.0677 51.5248 88.2656 52.0548 88.2656 52.719V59.4814H91.4449V52.0407C91.4449 51.1645 91.2612 50.4013 90.8938 49.7512C90.5264 49.087 90.0107 48.5711 89.3465 48.2037C88.6965 47.8362 87.9335 47.6525 87.0574 47.6525C86.3226 47.6525 85.6726 47.7939 85.1074 48.0765C84.5422 48.345 84.1112 48.7619 83.8145 49.3272V47.9069H80.8471V59.4814Z" fill="#802EC0"/>
<path d="M93.5355 46.8682H96.7148V43.6884H93.5355V46.8682ZM93.5355 59.4814H96.7148V47.9069H93.5355V59.4814Z" fill="#802EC0"/>
<path d="M102.666 59.4814H105.421L109.978 47.9069H106.545L104.043 54.8389L101.542 47.9069H98.1087L102.666 59.4814Z" fill="#802EC0"/>
<path d="M116.745 59.7358C117.932 59.7358 118.971 59.4814 119.861 58.9727C120.751 58.4498 121.373 57.7643 121.726 56.9164L119.183 55.7081C118.957 56.1038 118.639 56.4147 118.229 56.6408C117.833 56.8669 117.353 56.98 116.788 56.98C116.01 56.98 115.375 56.7609 114.88 56.3228C114.385 55.8847 114.096 55.3053 114.011 54.5845H122.108C122.164 54.4291 122.2 54.2453 122.214 54.0334C122.242 53.8072 122.256 53.5811 122.256 53.355C122.256 52.2809 122.03 51.3199 121.578 50.472C121.14 49.6099 120.497 48.9245 119.649 48.4157C118.801 47.9069 117.763 47.6525 116.533 47.6525C115.431 47.6525 114.442 47.914 113.566 48.4369C112.69 48.9598 111.99 49.6735 111.468 50.578C110.959 51.4824 110.704 52.5141 110.704 53.673C110.704 54.7894 110.952 55.807 111.446 56.7256C111.941 57.6442 112.64 58.3791 113.545 58.9303C114.449 59.4673 115.516 59.7358 116.745 59.7358ZM116.533 50.1964C117.183 50.1964 117.72 50.3872 118.144 50.7687C118.568 51.1503 118.815 51.645 118.886 52.2527H114.075C114.23 51.5884 114.52 51.0797 114.944 50.7263C115.382 50.373 115.912 50.1964 116.533 50.1964Z" fill="#802EC0"/>
<path d="M124.128 59.4814H127.308V53.249C127.308 52.3869 127.548 51.7227 128.028 51.2563C128.509 50.7758 129.137 50.5356 129.915 50.5356H130.911V47.7797H130.233C129.526 47.7797 128.897 47.914 128.346 48.1825C127.809 48.4369 127.392 48.9245 127.096 49.6452V47.9069H124.128V59.4814Z" fill="#802EC0"/>
<path d="M136.84 59.7358C138.182 59.7358 139.263 59.4037 140.083 58.7395C140.903 58.0753 141.312 57.2061 141.312 56.132C141.312 55.2982 141.058 54.5987 140.549 54.0334C140.041 53.4539 139.306 53.0229 138.345 52.7402L136.501 52.1891C135.667 51.9488 135.25 51.6026 135.25 51.1503C135.25 50.8535 135.363 50.6204 135.59 50.4508C135.83 50.2812 136.155 50.1964 136.564 50.1964C137.13 50.1964 137.631 50.3448 138.069 50.6416C138.522 50.9242 138.832 51.3058 139.002 51.7863L141.355 50.6839C141.001 49.7229 140.394 48.981 139.532 48.4581C138.684 47.921 137.695 47.6525 136.564 47.6525C135.703 47.6525 134.94 47.808 134.275 48.1189C133.611 48.4157 133.095 48.8326 132.728 49.3696C132.361 49.9067 132.177 50.5356 132.177 51.2563C132.177 52.076 132.431 52.7897 132.94 53.3974C133.449 53.991 134.176 54.422 135.123 54.6905L137.094 55.2417C137.857 55.4537 138.239 55.7929 138.239 56.2592C138.239 56.9517 137.773 57.298 136.84 57.298C136.218 57.298 135.653 57.1213 135.144 56.768C134.636 56.4147 134.233 55.9271 133.936 55.3053L131.605 56.4076C131.944 57.4252 132.58 58.2378 133.512 58.8455C134.459 59.439 135.568 59.7358 136.84 59.7358Z" fill="#802EC0"/>
<path d="M143.212 46.8682H146.392V43.6884H143.212V46.8682ZM143.212 59.4814H146.392V47.9069H143.212V59.4814Z" fill="#802EC0"/>
<path d="M154.293 59.6086C154.533 59.6086 154.787 59.5945 155.056 59.5662C155.324 59.538 155.564 59.5097 155.776 59.4814V56.7892C155.48 56.8316 155.232 56.8528 155.035 56.8528C153.72 56.8528 153.063 56.2663 153.063 55.0933V50.6628H155.776V47.9069H153.063V45.2783H149.884V46.1262C149.884 47.3133 149.269 47.9069 148.04 47.9069H147.934V50.6628H149.884V55.3053C149.884 56.662 150.266 57.7219 151.029 58.4851C151.806 59.2341 152.894 59.6086 154.293 59.6086Z" fill="#802EC0"/>
<path d="M159.441 64.1876C161.561 64.1876 163.094 62.9792 164.04 60.5626L169 47.9069H165.588L162.854 55.3477L160.119 47.9069H156.707L161.264 59.4814L161.052 59.969C160.882 60.3506 160.663 60.6898 160.395 60.9866C160.126 61.2833 159.681 61.4317 159.06 61.4317C158.551 61.4317 158.07 61.3611 157.618 61.2197V63.8272C157.858 63.9544 158.134 64.0462 158.445 64.1028C158.77 64.1593 159.102 64.1876 159.441 64.1876Z" fill="#802EC0"/>
<path d="M73.6061 36.1721C74.5104 36.1721 75.4006 36.0237 76.2767 35.7269C77.1669 35.416 77.9653 34.9496 78.6718 34.3278C79.3924 33.6918 79.9647 32.9004 80.3886 31.9535C80.8125 30.9925 81.0245 29.869 81.0245 28.5829V26.9082H73.5213V29.6641H77.7392V29.7065C77.7392 30.4414 77.5414 31.0703 77.1457 31.5932C76.7642 32.1161 76.2555 32.5188 75.6196 32.8015C74.9979 33.07 74.3267 33.2043 73.6061 33.2043C72.6734 33.2043 71.8468 32.9852 71.1262 32.5471C70.4197 32.109 69.8615 31.5013 69.4517 30.724C69.042 29.9467 68.8371 29.0422 68.8371 28.0106C68.8371 26.9789 69.0278 26.0815 69.4093 25.3183C69.805 24.541 70.3561 23.9333 71.0626 23.4952C71.7691 23.0571 72.5887 22.8381 73.5213 22.8381C74.4821 22.8381 75.2946 23.0925 75.9588 23.6012C76.637 24.0959 77.1104 24.7248 77.3789 25.4879L80.2826 24.0888C80.0142 23.3115 79.562 22.6049 78.9261 21.9689C78.2903 21.333 77.5131 20.8242 76.5946 20.4426C75.6903 20.061 74.6658 19.8702 73.5213 19.8702C72.3767 19.8702 71.3169 20.0752 70.3419 20.485C69.3811 20.8807 68.5403 21.446 67.8197 22.1809C67.099 22.9017 66.5409 23.7637 66.1452 24.7672C65.7496 25.7564 65.5518 26.8376 65.5518 28.0106C65.5518 29.1836 65.7566 30.2647 66.1664 31.254C66.5762 32.2433 67.1485 33.1053 67.8833 33.8402C68.618 34.5751 69.4729 35.1475 70.4479 35.5573C71.4229 35.9672 72.4756 36.1721 73.6061 36.1721Z" fill="#802EC0"/>
<path d="M83.0531 35.9177H86.3384V20.1246H83.0531V35.9177Z" fill="#802EC0"/>
<path d="M96.7265 36.1721C97.6309 36.1721 98.5211 36.0237 99.3972 35.7269C100.287 35.416 101.086 34.9496 101.792 34.3278C102.513 33.6918 103.085 32.9004 103.509 31.9535C103.933 30.9925 104.145 29.869 104.145 28.5829V26.9082H96.6418V29.6641H100.86V29.7065C100.86 30.4414 100.662 31.0703 100.266 31.5932C99.8847 32.1161 99.376 32.5188 98.7401 32.8015C98.1184 33.07 97.4472 33.2043 96.7265 33.2043C95.7939 33.2043 94.9673 32.9852 94.2467 32.5471C93.5402 32.109 92.982 31.5013 92.5722 30.724C92.1624 29.9467 91.9576 29.0422 91.9576 28.0106C91.9576 26.9789 92.1483 26.0815 92.5298 25.3183C92.9255 24.541 93.4766 23.9333 94.1831 23.4952C94.8896 23.0571 95.7092 22.8381 96.6418 22.8381C97.6026 22.8381 98.4151 23.0925 99.0792 23.6012C99.7575 24.0959 100.231 24.7248 100.499 25.4879L103.403 24.0888C103.135 23.3115 102.682 22.6049 102.047 21.9689C101.411 21.333 100.634 20.8242 99.7151 20.4426C98.8108 20.061 97.7863 19.8702 96.6418 19.8702C95.4972 19.8702 94.4374 20.0752 93.4624 20.485C92.5016 20.8807 91.6608 21.446 90.9402 22.1809C90.2195 22.9017 89.6614 23.7637 89.2657 24.7672C88.8701 25.7564 88.6723 26.8376 88.6723 28.0106C88.6723 29.1836 88.8771 30.2647 89.2869 31.254C89.6967 32.2433 90.269 33.1053 91.0038 33.8402C91.7385 34.5751 92.5934 35.1475 93.5684 35.5573C94.5434 35.9672 95.5961 36.1721 96.7265 36.1721Z" fill="#802EC0"/>
</svg>
