<svg width="387" height="441" viewBox="0 0 387 441" fill="none" xmlns="http://www.w3.org/2000/svg">
<path d="M110.215 274.635C49.4381 274.635 0 225.198 0 164.421C0 103.643 49.4381 54.2061 110.215 54.2061C170.992 54.2061 220.429 103.643 220.429 164.421C220.429 225.198 170.979 274.635 110.215 274.635ZM110.215 108.385C79.3254 108.385 54.1928 133.517 54.1928 164.407C54.1928 195.297 79.3254 220.429 110.215 220.429C141.105 220.429 166.237 195.297 166.237 164.407C166.237 133.517 141.105 108.385 110.215 108.385Z" fill="#802EC0"/>
<path d="M276.45 274.635C215.673 274.635 166.236 225.198 166.236 164.421C166.236 103.643 215.673 54.2061 276.45 54.2061V108.399C245.56 108.399 220.429 133.531 220.429 164.421C220.429 195.31 245.56 220.442 276.45 220.442C307.34 220.442 332.473 195.31 332.473 164.421H386.666C386.666 225.184 337.227 274.635 276.45 274.635Z" fill="#802EC0"/>
<path d="M386.666 136.715H276.451V192.127H386.666V136.715Z" fill="#03C6AE"/>
<path d="M110.215 440.871V386.679C141.105 386.679 166.237 361.547 166.237 330.657C166.237 299.767 141.105 274.635 110.215 274.635V220.442C170.993 220.442 220.429 269.88 220.429 330.657C220.429 391.434 170.979 440.871 110.215 440.871Z" fill="#802EC0"/>
<path d="M110.215 440.871C49.4381 440.871 0 391.433 0 330.656H54.1928C54.1928 361.546 79.3254 386.678 110.215 386.678C141.105 386.678 166.237 361.546 166.237 330.656H220.429C220.429 391.433 170.979 440.871 110.215 440.871Z" fill="#802EC0"/>
<path d="M193.333 54.1928C208.298 54.1928 220.429 42.0613 220.429 27.0964C220.429 12.1315 208.298 0 193.333 0C178.368 0 166.236 12.1315 166.236 27.0964C166.236 42.0613 178.368 54.1928 193.333 54.1928Z" fill="#03C6AE"/>
</svg>
